<?xml version="1.0" standalone="no"?>
<!DOCTYPE svg PUBLIC "-//W3C//DTD SVG 1.1//EN" "http://www.w3.org/Graphics/SVG/1.1/DTD/svg11.dtd" >
<svg xmlns="http://www.w3.org/2000/svg">
<metadata></metadata>
<defs>
<font id="newjuneproextrabolditalic" horiz-adv-x="1140" >
<font-face units-per-em="2048" ascent="1597" descent="-451" />
<missing-glyph horiz-adv-x="542" />
<glyph unicode="IJ" horiz-adv-x="1597" d="M23 0l213 1524h434l-215 -1524h-432zM606 63l90 324q114 -43 199 -43q80 0 119.5 39t52.5 133l139 1008h430l-145 -1047q-35 -234 -179 -356.5t-372 -122.5q-149 0 -334 65z" />
<glyph unicode="ij" horiz-adv-x="1085" d="M16 0l158 1130h342l-158 -1130h-342zM193 1382q0 94 60.5 149.5t158.5 55.5q85 0 127.5 -38t42.5 -107q0 -92 -62 -147.5t-158 -55.5q-82 0 -125.5 37.5t-43.5 105.5zM387 -377l35 252q67 1 100.5 35.5t42.5 105.5l156 1114h344l-158 -1120q-28 -190 -159 -288.5 t-361 -98.5zM741 1382q0 94 60.5 149.5t159.5 55.5q83 0 125 -38t42 -107q0 -92 -61.5 -147.5t-157.5 -55.5q-82 0 -125 37.5t-43 105.5z" />
<glyph unicode="&#x27;n" horiz-adv-x="1136" d="M16 0l123 895q19 142 180 195q189 53 353 53q233 0 328.5 -106t68.5 -296l-104 -741h-349l99 709q10 64 -11 99.5t-86 35.5q-50 0 -135 -25l-112 -819h-355zM211 1417l74 180h348l-113 -245q-25 -58 -67 -87.5t-113 -29.5q-94 0 -127 52.5t-2 129.5z" />
<glyph unicode="ff" horiz-adv-x="1597" d="M-80 -377l35 252q67 1 100.5 35.5t42.5 105.5l119 854h-135l35 258h137l10 68q52 383 510 383q234 0 434 -66q108 60 252 60q126 0 277 -53l-70 -254q-100 34 -170 34t-101.5 -30.5t-43.5 -106.5l-6 -35h288l-37 -258h-284l-121 -860q-26 -190 -157 -288.5t-363 -98.5 l35 252q69 1 102.5 35.5t42.5 105.5l117 854h-410l-119 -860q-26 -190 -157.5 -288.5t-362.5 -98.5zM596 1128h412l8 68q6 34 22 98q-109 25 -221 25q-191 0 -217 -156z" />
<glyph unicode="fi" horiz-adv-x="1351" d="M-80 -377l35 252q67 1 100.5 35.5t42.5 105.5l119 854h-135l35 258h137l10 68q26 188 142.5 282.5t304.5 94.5q129 0 274 -51l-70 -254q-110 32 -170 32q-70 0 -101.5 -30.5t-43.5 -106.5l-4 -35h735l-157 -1128h-345l123 870h-393l-119 -860q-26 -190 -157.5 -288.5 t-362.5 -98.5zM1008 1389q0 89 62.5 143.5t156.5 54.5q166 0 166 -153q0 -84 -61 -139.5t-154 -55.5q-170 0 -170 150z" />
<glyph unicode="fl" horiz-adv-x="1372" d="M-80 -377l35 252q67 1 100.5 35.5t42.5 105.5l119 854h-135l35 258h137l10 68q26 188 151 285.5t326 97.5q155 0 306 -51l366 67l-223 -1595h-359l181 1274q-116 33 -226 33q-89 0 -131 -31.5t-55 -112.5l-4 -35h285l-35 -258h-287l-119 -860q-26 -190 -157.5 -288.5 t-362.5 -98.5z" />
<glyph unicode="ffi" horiz-adv-x="2107" d="M-80 -377l35 252q67 1 100.5 35.5t42.5 105.5l119 854h-135l35 258h137l10 68q52 383 510 383q231 0 438 -68q106 62 254 62q130 0 275 -51l-72 -254q-110 32 -170 32q-69 0 -100 -30.5t-43 -106.5l-6 -35h735l-158 -1128h-342l121 870h-391l-121 -860 q-26 -190 -157 -288.5t-363 -98.5l35 252q69 1 102 35.5t41 105.5l119 854h-412l-119 -860q-26 -190 -157.5 -288.5t-362.5 -98.5zM596 1128h412l10 68q5 46 22 98q-113 25 -223 25q-191 0 -217 -156zM1763 1389q0 89 61.5 143.5t155.5 54.5q166 0 166 -151 q0 -86 -59.5 -141.5t-155.5 -55.5q-168 0 -168 150z" />
<glyph unicode="&#xd;" horiz-adv-x="542" />
<glyph unicode=" "  horiz-adv-x="542" />
<glyph unicode="&#x09;" horiz-adv-x="542" />
<glyph unicode="&#xa0;" horiz-adv-x="542" />
<glyph unicode="!" horiz-adv-x="534" d="M16 125q0 94 60.5 148.5t159.5 54.5q83 0 125 -37.5t42 -106.5q0 -92 -62 -148t-157 -56q-82 0 -125 38t-43 107zM82 473l147 1051h340l-147 -1051h-340z" />
<glyph unicode="&#x22;" horiz-adv-x="921" d="M190 1563h336l-30 -564h-275zM608 1563h336l-29 -564h-274z" />
<glyph unicode="#" horiz-adv-x="1404" d="M43 377l41 272h199l39 207h-201l39 268h213l76 400h296l-75 -400h190l76 400h295l-76 -400h197l-43 -268h-199l-39 -207h201l-39 -272h-213l-70 -377h-297l72 377h-197l-73 -377h-297l73 377h-188zM578 649h196l39 207h-195z" />
<glyph unicode="$" d="M8 88l101 336l116 -43q174 -62 324 -62q74 0 119 35t45 101q0 47 -25 75.5t-80 47.5l-162 59q-317 112 -317 397q0 109 34.5 197.5t95.5 148t140.5 95.5t173.5 47l39 254h275l-37 -252q146 -18 235 -47l121 -37l-98 -344l-119 43q-177 60 -330 63q-70 0 -111.5 -33 t-41.5 -98q0 -86 102 -125l191 -76q158 -64 223 -154t65 -216q0 -215 -116.5 -345.5t-333.5 -156.5l-39 -262h-274l38 262q-138 10 -239 51z" />
<glyph unicode="%" horiz-adv-x="1585" d="M111 973l39 293q20 132 101.5 201t217.5 69q139 0 204.5 -72.5t45.5 -203.5l-39 -291q-19 -132 -99.5 -201.5t-218.5 -69.5q-139 0 -205 73t-46 202zM227 0l895 1524h242l-893 -1524h-244zM326 965q-10 -91 55 -91q67 0 80 91l43 305q13 88 -55 88q-64 0 -80 -88z M870 264l41 293q19 132 100 201t218 69q139 0 206 -73t48 -205l-41 -289q-19 -132 -99.5 -201t-218.5 -69q-139 0 -206 72.5t-48 201.5zM1087 256q-13 -90 56 -90q67 0 80 90l43 305q10 88 -56 88q-67 0 -80 -88z" />
<glyph unicode="&#x26;" horiz-adv-x="1456" d="M57 369q0 90 23 162.5t67.5 125.5t93.5 89.5t115 70.5q-77 134 -77 283q0 145 64.5 249.5t170 154.5t240.5 50q184 0 288.5 -91t104.5 -257q0 -76 -21.5 -140t-53 -108.5t-83 -85.5t-96.5 -66.5t-109 -55.5l191 -265q100 148 123 322l18 133h299l-18 -135 q-45 -329 -256 -549l184 -256h-393l-49 68q-184 -88 -379 -88q-214 0 -330.5 108.5t-116.5 280.5zM401 403q0 -71 44.5 -114t119.5 -43q84 0 168 35l-227 321q-105 -82 -105 -199zM588 1126q0 -101 57 -182q92 46 141.5 103t49.5 143q0 50 -27.5 79t-79.5 29q-65 0 -103 -48 t-38 -124z" />
<glyph unicode="'" horiz-adv-x="538" d="M190 1563h373l-31 -564h-311z" />
<glyph unicode="(" horiz-adv-x="757" d="M82 451q0 104 10.5 206t35 210t62 202t96 178.5t132 145t174.5 96t219 35.5l-37 -250q-106 -1 -186 -114t-120 -299t-40 -417q0 -87 12.5 -151.5t30.5 -99t45 -55t48 -26t46 -6.5l-35 -258q-71 0 -134 13.5t-131 54t-116.5 105t-80 175t-31.5 255.5z" />
<glyph unicode=")" horiz-adv-x="757" d="M-20 -152l34 250q107 1 187 114t119.5 299t39.5 417q0 87 -12.5 151.5t-30.5 99t-44.5 55.5t-47 27t-45.5 7l35 256q71 0 134 -13.5t130.5 -54t116 -104.5t80 -174.5t31.5 -255.5q0 -104 -10.5 -206t-35 -210t-62 -202.5t-95.5 -179t-131.5 -145t-174 -96t-218.5 -35.5z " />
<glyph unicode="*" d="M137 1094l96 305l261 -109l-23 271h352l-22 -273l260 107l96 -303l-295 -70l195 -225l-281 -185l-129 240l-131 -238l-276 185l192 225z" />
<glyph unicode="+" d="M84 467v274h334v389h297v-389h342v-274h-342v-389h-297v389h-334z" />
<glyph unicode="," horiz-adv-x="530" d="M-39 -76l127 412h352l-174 -473q-21 -53 -67 -83t-113 -30q-86 0 -117 51t-8 123z" />
<glyph unicode="-" horiz-adv-x="847" d="M70 508l36 268h705l-39 -268h-702z" />
<glyph unicode="." horiz-adv-x="530" d="M18 133q0 99 60 156t158 57q85 0 127.5 -39.5t42.5 -111.5q0 -98 -62 -156.5t-156 -58.5q-83 0 -126.5 40.5t-43.5 112.5z" />
<glyph unicode="/" horiz-adv-x="862" d="M-55 0l737 1524h293l-727 -1524h-303z" />
<glyph unicode="0" horiz-adv-x="1144" d="M74 489l78 558q34 241 176 369t377 128q238 0 346.5 -133t74.5 -377l-75 -553q-34 -244 -173 -371.5t-376 -127.5q-241 0 -351.5 132.5t-76.5 374.5zM430 473q-25 -190 107 -190q67 0 103 47t50 143l80 580q28 192 -102 192q-131 0 -156 -192z" />
<glyph unicode="1" horiz-adv-x="1144" d="M-4 0l39 287h354l131 934h-31q-43 0 -113 -17.5t-116 -46.5l-8 291q76 38 170.5 57t175.5 19h129q99 0 145.5 -54.5t34.5 -150.5l-145 -1032h289l-39 -287h-1016z" />
<glyph unicode="2" d="M8 139q0 117 82 187l445 393q81 73 122.5 118.5t70.5 110t28 139.5q0 148 -162 148q-110 0 -281 -59l-98 -35l-45 289l104 36q221 76 410 76q215 0 330.5 -101.5t115.5 -297.5q0 -160 -72.5 -291.5t-256.5 -300.5l-299 -270h512l-39 -281h-828q-69 0 -104 36.5t-35 102.5 z" />
<glyph unicode="3" d="M-12 96l90 291l102 -39q185 -65 303 -65q109 0 165.5 49.5t56.5 138.5q0 51 -29 104l-33 52h-287l37 270h269l47 47q61 61 61 162q0 62 -43 94.5t-123 32.5q-111 0 -278 -59l-99 -33l-45 286l107 37q221 76 407 76q215 0 330 -93.5t115 -272.5q0 -107 -36.5 -190 t-109.5 -165l-57 -61l41 -51q88 -107 88 -246q0 -153 -75.5 -261.5t-206 -161t-304.5 -52.5q-216 0 -393 71z" />
<glyph unicode="4" d="M6 369q0 88 70 196l571 828q96 143 258 143q110 0 159 -51.5t34 -161.5l-117 -803h125l-39 -282h-125l-33 -238h-350l33 238h-449q-68 0 -102.5 35t-34.5 96zM403 520h228l63 428z" />
<glyph unicode="5" d="M10 94l88 291l103 -37q175 -63 299 -63q109 0 165 70.5t56 203.5q0 162 -170 162q-129 0 -287 -45l-112 -33l122 881h897l-43 -307h-600l-32 -242q93 31 192 31q198 0 300 -99.5t102 -294.5q0 -307 -158.5 -466.5t-435.5 -159.5q-211 0 -387 69z" />
<glyph unicode="6" d="M72 522l75 541q33 228 187.5 350.5t388.5 122.5q158 0 348 -68l96 -34l-80 -297l-90 32q-63 25 -140.5 42.5t-137.5 17.5q-97 0 -149 -41.5t-62 -128.5l-10 -80q95 33 196 33q196 0 297 -103.5t101 -294.5q0 -103 -24 -196t-73 -171.5t-118.5 -135.5t-165 -89t-207.5 -32 q-241 0 -354 145t-78 387zM432 512q-33 -225 113 -225q76 0 126 73.5t50 208.5q0 72 -30.5 110t-102.5 38q-35 0 -131 -23z" />
<glyph unicode="7" d="M141 0l643 1217h-608l41 307h832q153 0 153 -146q0 -52 -16.5 -101.5t-50.5 -115.5l-594 -1161h-400z" />
<glyph unicode="8" d="M35 367q0 108 39.5 191t126.5 175l49 53l-29 60q-57 109 -57 221q0 151 70 260t190 163t276 54q205 0 323 -94.5t118 -269.5q0 -199 -135 -353l-52 -65l39 -49q79 -102 82 -238q0 -232 -157 -361.5t-414 -129.5q-219 0 -344 98.5t-125 284.5zM393 399q0 -61 37 -98 t105 -37q85 0 135.5 56.5t50.5 146.5q0 57 -31 108l-33 52h-147l-45 -54q-75 -81 -72 -174zM500 1063q0 -53 28 -111l25 -51h137l41 51q70 86 70 168q0 62 -33.5 97.5t-99.5 35.5q-76 0 -122 -53.5t-46 -136.5z" />
<glyph unicode="9" horiz-adv-x="1144" d="M37 92l80 297l90 -33q61 -24 140 -41.5t138 -17.5q98 0 149.5 41t61.5 129l11 80q-95 -33 -197 -33q-196 0 -296.5 102.5t-100.5 296.5q0 128 38.5 240t110.5 198t185 135.5t253 49.5q240 0 353.5 -145.5t79.5 -386.5l-76 -543q-32 -228 -186.5 -349.5t-389.5 -121.5 q-161 0 -348 67zM483 956q0 -149 133 -149q18 0 40 3t36 6.5t33.5 8.5t22.5 6l26 181q7 33 5 72.5t-10 74t-35.5 57.5t-71.5 23q-76 0 -127.5 -74t-51.5 -209z" />
<glyph unicode=":" horiz-adv-x="536" d="M20 133q0 99 60 156t158 57q86 0 129 -39.5t43 -111.5q0 -97 -62 -156t-155 -59q-84 0 -128.5 40.5t-44.5 112.5zM127 915q0 99 59.5 156t157.5 57q86 0 128 -39t42 -110q0 -98 -61.5 -156.5t-155.5 -58.5q-82 0 -126 40t-44 111z" />
<glyph unicode=";" horiz-adv-x="536" d="M-37 -76l127 412h352l-174 -473q-48 -113 -178 -113q-86 0 -118 51t-9 123zM127 915q0 99 59.5 156t157.5 57q86 0 128 -39t42 -110q0 -98 -61.5 -156.5t-155.5 -58.5q-82 0 -126 40t-44 111z" />
<glyph unicode="&#x3c;" d="M84 606q0 187 156 242l817 301v-365l-617 -178l617 -180v-356l-813 295q-160 53 -160 241z" />
<glyph unicode="=" d="M84 291v262h973v-262h-973zM84 670v262h973v-262h-973z" />
<glyph unicode="&#x3e;" d="M84 70v356l616 180l-616 178v365l817 -301q156 -55 156 -242q0 -188 -160 -241z" />
<glyph unicode="?" horiz-adv-x="921" d="M154 1450l100 29q181 51 309 51q395 0 395 -326q0 -130 -55.5 -227.5t-159.5 -188.5l-137 -120l-28 -195h-334l18 125q10 71 32 119t75 96l143 135q53 51 76.5 91t23.5 98q0 102 -108 102q-77 0 -199 -35l-110 -35zM170 125q0 94 60.5 148.5t158.5 54.5q85 0 127.5 -37.5 t42.5 -106.5q0 -92 -62 -148t-157 -56q-82 0 -126 38.5t-44 106.5z" />
<glyph unicode="@" horiz-adv-x="1910" d="M166 715q0 174 64.5 327.5t175 263t265 173t328.5 63.5q223 0 393 -86.5t263.5 -246.5t93.5 -371q0 -115 -36.5 -211.5t-97.5 -160t-140.5 -99t-165.5 -35.5q-49 0 -105.5 15t-83.5 15q-34 0 -110 -15t-136 -15q-176 0 -264 93.5t-88 260.5q0 88 30 168t85.5 142.5 t141.5 99.5t190 37q77 0 118 -9l7 50h252l-89 -644q30 -18 60 -18q83 0 142 88t59 240q0 227 -133.5 356t-385.5 129q-173 0 -310 -81t-211.5 -220t-74.5 -309q0 -236 131.5 -383.5t362.5 -147.5q79 0 224.5 38t219.5 38q84 0 146 -37l131 -76l-86 -174l-133 62 q-32 12 -70 12q-46 0 -109.5 -17.5t-148.5 -35t-182 -17.5q-168 0 -306 56.5t-228.5 156t-139.5 234t-49 291.5zM788 682q0 -150 113 -150q19 0 38.5 3t42.5 8.5t24 5.5l55 381q-42 6 -94 6q-87 0 -133 -72.5t-46 -181.5z" />
<glyph unicode="A" horiz-adv-x="1421" d="M-55 0l592 1341q84 201 321 201q230 0 260 -199l197 -1343h-420l-25 236h-399l-92 -236h-434zM584 547h264l-57 538z" />
<glyph unicode="B" horiz-adv-x="1368" d="M45 201l158 1124q12 94 74.5 146.5t160.5 52.5h502q194 0 294.5 -85t100.5 -247q0 -204 -145 -361l-51 -55l41 -53q98 -132 98 -264q0 -216 -146 -337.5t-399 -121.5h-506q-100 0 -148 55q-37 43 -37 107q0 18 3 39zM479 303h232q71 0 114 43t43 113q0 54 -30 96l-45 63 h-269zM565 911h258l56 66q51 61 51 141q0 48 -30 77.5t-83 29.5h-209z" />
<glyph unicode="C" horiz-adv-x="1333" d="M90 604q0 222 63.5 401.5t173.5 294.5t255.5 176.5t312.5 61.5q191 0 385 -72l109 -41l-95 -344l-114 39q-146 51 -277 51q-166 0 -266 -138t-100 -390q0 -289 251 -289q141 0 295 54l121 45l35 -349l-121 -41q-233 -79 -436 -79q-277 0 -434.5 159.5t-157.5 460.5z" />
<glyph unicode="D" horiz-adv-x="1429" d="M47 203l156 1118q13 95 76.5 149t160.5 54h367q281 0 437.5 -163t156.5 -458q0 -210 -62.5 -382t-171.5 -285t-256.5 -174.5t-318.5 -61.5h-365q-92 0 -143 54q-40 42 -40 110q0 18 3 39zM494 330h137q73 0 133 35t99 91t65 130t37.5 149t11.5 150q0 152 -61 231.5 t-175 79.5h-127z" />
<glyph unicode="E" horiz-adv-x="1230" d="M47 203l156 1118q14 95 76.5 149t160.5 54h846l-43 -318h-629l-39 -278h549l-41 -305h-551l-43 -306h633l-45 -317h-852q-98 0 -145 54q-36 41 -36 107q0 20 3 42z" />
<glyph unicode="F" horiz-adv-x="1214" d="M23 0l184 1321q12 95 74.5 149t160.5 54h832l-45 -322h-608l-46 -305h558l-43 -307h-558l-81 -590h-428z" />
<glyph unicode="G" horiz-adv-x="1443" d="M88 608q0 146 33.5 281.5t102 253t165 204.5t231 137t291.5 50q202 0 418 -72l113 -39l-99 -350l-120 41q-157 57 -314 57q-84 0 -152.5 -31.5t-114 -85t-76.5 -125.5t-44.5 -151t-13.5 -164q0 -311 278 -311q36 0 69 3t48 6l15 3l34 234h-241l41 295h426q105 0 149 -54 q34 -43 34 -108q0 -20 -3 -41l-51 -358q-21 -155 -160 -213q-111 -43 -214 -62.5t-233 -19.5q-292 0 -452 160.5t-160 459.5z" />
<glyph unicode="H" horiz-adv-x="1409" d="M23 0l213 1524h430l-82 -592h354l82 592h430l-213 -1524h-430l84 614h-354l-84 -614h-430z" />
<glyph unicode="I" horiz-adv-x="626" d="M23 0l213 1524h434l-215 -1524h-432z" />
<glyph unicode="J" horiz-adv-x="968" d="M-20 63l90 324q114 -43 198 -43q80 0 119.5 39t52.5 133l140 1008h430l-146 -1047q-35 -234 -179 -356.5t-372 -122.5q-148 0 -333 65z" />
<glyph unicode="K" horiz-adv-x="1404" d="M23 0l213 1524h421l-77 -559l452 559h465l-465 -549l246 -975h-440l-148 623l-90 -99q-53 -58 -80.5 -109.5t-38.5 -135.5l-37 -279h-421z" />
<glyph unicode="L" horiz-adv-x="1177" d="M45 203l186 1321h433l-166 -1172h587l-47 -352h-813q-98 0 -146 54q-37 42 -37 108q0 20 3 41z" />
<glyph unicode="M" horiz-adv-x="1777" d="M23 0l176 1264q19 130 114 202t242 72q269 0 289 -244l65 -620l242 620q42 114 135 179t238 65q141 0 211 -69q55 -54 55 -144q0 -24 -4 -51l-178 -1274h-379l135 965l-324 -824q-27 -73 -87.5 -113t-147.5 -40q-85 0 -135 40t-56 113l-86 822l-135 -963h-370z" />
<glyph unicode="N" horiz-adv-x="1470" d="M23 0l176 1268q19 130 104 200t229 70q72 0 122 -17t81.5 -53t49.5 -76t34 -102l197 -669l127 903h366l-176 -1266q-19 -133 -103 -202.5t-231 -69.5q-71 0 -121 17.5t-81.5 53.5t-50 77t-33.5 102l-195 667l-127 -903h-368z" />
<glyph unicode="O" horiz-adv-x="1560" d="M90 616q0 215 65 390.5t178.5 290t263 176t321.5 61.5q288 0 451 -163.5t163 -467.5q0 -146 -35 -282t-105.5 -252t-168.5 -202t-232 -134.5t-289 -48.5q-285 0 -448.5 165t-163.5 467zM522 614q0 -159 57.5 -239t168.5 -80q75 0 136 40.5t100 104.5t65.5 146t37.5 160.5 t11 152.5q0 160 -58.5 241t-169.5 81q-149 0 -248.5 -165t-99.5 -442z" />
<glyph unicode="P" horiz-adv-x="1302" d="M23 0l184 1321q12 95 74.5 149t160.5 54h432q202 0 315.5 -113.5t113.5 -310.5q0 -269 -163 -427.5t-421 -158.5h-203l-74 -514h-419zM559 827h162q85 0 138.5 68t53.5 164q0 70 -36.5 110.5t-98.5 40.5h-166z" />
<glyph unicode="Q" horiz-adv-x="1566" d="M92 616q0 214 64.5 389.5t177 290t262.5 176.5t322 62q286 0 448 -160t162 -456q0 -150 -40 -288.5t-128.5 -261.5t-216.5 -198q102 -39 213 -39h59l-43 -309h-94q-78 0 -144.5 18t-113.5 44t-91.5 52t-99 44t-114.5 18q-138 0 -250.5 37t-196.5 111t-130 193.5 t-46 276.5zM524 612q0 -155 58 -236t168 -81q74 0 135 41t100 105t66 146t38 161t11 153q0 156 -59 239t-169 83q-150 0 -249 -166.5t-99 -444.5z" />
<glyph unicode="R" horiz-adv-x="1382" d="M23 0l184 1323q12 94 75 147.5t162 53.5h508q196 0 305 -105t109 -284q0 -237 -184 -424l-84 -90l176 -621h-447l-129 526h-176l-71 -526h-428zM565 831h252l62 70q77 92 77 184q0 63 -32 97.5t-95 34.5h-211z" />
<glyph unicode="S" horiz-adv-x="1275" d="M20 102l101 357l131 -53q201 -80 379 -80q74 0 120 32t46 97q0 84 -105 116l-225 68q-328 102 -328 393q0 105 31 189.5t86 142.5t131.5 97t166 57t191.5 18q217 0 441 -76l129 -43l-105 -358l-131 51q-207 82 -370 82q-77 0 -121.5 -32.5t-44.5 -98.5q0 -86 104 -115 l223 -69q165 -51 248.5 -146.5t83.5 -247.5q0 -127 -48 -224.5t-132.5 -157t-193 -89.5t-236.5 -30q-243 0 -445 73z" />
<glyph unicode="T" horiz-adv-x="1310" d="M150 1194l45 330h1179l-47 -330h-373l-168 -1194h-428l168 1194h-376z" />
<glyph unicode="U" horiz-adv-x="1411" d="M86 578l135 946h428l-133 -955q-4 -32 -4 -60q0 -75 29 -115q40 -56 137 -56q96 0 149 57t70 174l133 955h432l-135 -961q-40 -282 -220 -435t-480 -153t-440 159q-109 124 -109 326q0 56 8 118z" />
<glyph unicode="V" horiz-adv-x="1396" d="M162 1524h428l90 -1039l391 1039h430l-583 -1348q-84 -190 -314 -190q-110 0 -175 48t-77 142z" />
<glyph unicode="W" horiz-adv-x="1927" d="M172 1524h406l-33 -1035l327 893q23 68 85 105t147 37q83 0 134.5 -37t55.5 -105l72 -890l254 1032h405l-409 -1336q-31 -100 -106.5 -153t-190.5 -53q-239 0 -254 190l-59 668l-252 -668q-69 -190 -310 -190q-116 0 -175.5 53.5t-61.5 152.5z" />
<glyph unicode="X" horiz-adv-x="1449" d="M-35 0l543 780l-320 744h451l166 -432l258 432h465l-518 -762l325 -762h-454l-174 461l-283 -461h-459z" />
<glyph unicode="Y" horiz-adv-x="1452" d="M160 1524h452l174 -529l312 529h463l-615 -910l-84 -614h-430l86 612z" />
<glyph unicode="Z" horiz-adv-x="1308" d="M6 160q0 107 92 217l695 827h-600l45 320h944q80 0 119.5 -41t39.5 -113q0 -119 -90 -223l-688 -828h627l-45 -319h-977q-81 0 -121.5 42.5t-40.5 117.5z" />
<glyph unicode="[" horiz-adv-x="757" d="M41 -133l233 1657h535l-37 -256h-217l-162 -1145h217l-35 -256h-534z" />
<glyph unicode="\" horiz-adv-x="866" d="M156 1524h293l323 -1524h-303z" />
<glyph unicode="]" horiz-adv-x="757" d="M-12 -133l35 256h215l163 1145h-217l35 256h533l-232 -1657h-532z" />
<glyph unicode="^" d="M63 88l277 870q51 170 225 170q178 0 230 -163l282 -877h-344l-168 660l-166 -660h-336z" />
<glyph unicode="_" horiz-adv-x="1024" d="M-4 -137h1032v-238h-1032v238z" />
<glyph unicode="`" horiz-adv-x="1036" d="M279 1563h417l125 -129q47 -47 47 -113q0 -42 -30.5 -72t-79.5 -30q-75 0 -142 57z" />
<glyph unicode="a" horiz-adv-x="1173" d="M59 444q0 303 152 480.5t403 177.5q23 0 48.5 -3t47 -7t38 -8t29.5 -7.5t14 -3.5l12 76h348l-129 -887l94 -67l-153 -228l-89 53q-41 24 -94 24q-28 0 -59 -7l-51 -12q-147 -31 -207 -31h-3q-190 0 -295 122q-106 122 -106 328zM403 463q0 -199 152 -199q48 0 68 4l51 11 l78 528q-67 22 -121 22q-64 0 -111 -35t-71 -92.5t-35 -117t-11 -121.5z" />
<glyph unicode="b" horiz-adv-x="1169" d="M49 240l184 1323h349l-62 -455q108 31 195 31q200 0 296.5 -114.5t96.5 -322.5q0 -326 -166 -520t-448 -194q-194 0 -287 30q-161 52 -161 185q0 18 3 37zM401 276q66 -14 115 -14q81 0 138 59t81.5 147t24.5 194q0 194 -148 194q-62 0 -131 -20z" />
<glyph unicode="c" horiz-adv-x="1028" d="M59 459q0 162 47 293.5t128.5 216t189 129.5t231.5 45q164 0 297 -51l80 -31l-78 -285l-77 31q-122 45 -211 45q-66 0 -116 -33.5t-78.5 -88.5t-42 -117.5t-13.5 -129.5q0 -207 172 -207q120 0 237 46l76 28l33 -280l-92 -31q-157 -53 -324 -53q-208 0 -333.5 125.5 t-125.5 347.5z" />
<glyph unicode="d" horiz-adv-x="1167" d="M59 453q0 313 152.5 499.5t409.5 186.5q37 0 79.5 -7.5t65 -13.5t31.5 -10l63 455h346l-182 -1332q-17 -125 -141 -182q-138 -61 -367 -61q-218 0 -337.5 124t-119.5 341zM403 469q0 -205 160 -205q58 0 117 12l78 560q-67 22 -123 22q-65 0 -112.5 -37.5t-72 -98 t-36 -124t-11.5 -129.5z" />
<glyph unicode="e" horiz-adv-x="1134" d="M85.5 663.5q24.5 99.5 74.5 187t120 153.5t167.5 104.5t209.5 38.5q231 0 343 -140q84 -105 84 -287q0 -61 -9 -130q-7 -69 -41.5 -99t-103.5 -30h-535q-1 -99 50 -148t147 -49q151 0 291 49l104 35l29 -258l-107 -37q-189 -65 -370 -65q-227 0 -353 123 q-125 122 -125 344q0 109 24.5 208.5zM422 682h332q5 32 5 60q1 58 -21 98q-32 60 -120 59q-72 0 -124 -57t-72 -160z" />
<glyph unicode="f" horiz-adv-x="843" d="M-82 -377l35 252q67 1 100.5 35.5t42.5 105.5l119 854h-135l37 258h135l10 68q26 191 141 284t304 93q125 0 276 -53l-70 -254q-104 34 -170 34q-70 0 -101.5 -30.5t-43.5 -106.5l-6 -35h287l-35 -258h-287l-119 -860q-26 -190 -157 -288.5t-363 -98.5z" />
<glyph unicode="g" horiz-adv-x="1193" d="M-10 -57q0 131 104 241l99 107q51 58 51 108q0 25 -15.5 50t-37.5 50t-44 54.5t-37.5 74.5t-15.5 99q0 79 28 145t77 112t115.5 78t143 47t160.5 15h105q29 0 56.5 2.5t46 5t43.5 8.5t35.5 9t35 11t29.5 9l211 66l51 -250l-189 -45q6 -6 15 -21.5t19.5 -51t10.5 -74.5 q0 -78 -28 -141.5t-76 -106t-114 -71t-140.5 -41.5t-157.5 -13l-84 6q11 -11 11 -53q0 -27 -12 -50t-23 -34h242q186 0 275 -76t89 -203q0 -101 -47.5 -176.5t-130 -118.5t-182.5 -63.5t-217 -20.5q-241 0 -371.5 79.5t-130.5 232.5zM297 -39q0 -111 211 -111q114 0 184 35 t70 101q0 41 -21.5 57t-74.5 16h-332q-11 -9 -24 -36.5t-13 -61.5zM422 737q0 -116 147 -116q82 0 137.5 41.5t55.5 119.5q0 115 -154 115q-81 0 -133.5 -40t-52.5 -120z" />
<glyph unicode="h" horiz-adv-x="1138" d="M16 0l217 1563h357l-66 -459q117 35 203 35q89 0 155.5 -19.5t105.5 -55.5t61.5 -86t24.5 -110v-20q0 -52 -7 -111l-102 -737h-347l99 707q2 17 2 31q0 100 -101 100q-50 0 -135 -27l-112 -811h-355z" />
<glyph unicode="i" horiz-adv-x="538" d="M16 0l158 1130h342l-158 -1130h-342zM193 1382q0 94 60.5 149.5t158.5 55.5q85 0 127.5 -38t42.5 -107q0 -92 -62 -147.5t-158 -55.5q-82 0 -125.5 37.5t-43.5 105.5z" />
<glyph unicode="j" horiz-adv-x="546" d="M-152 -377l35 252q67 1 101 35.5t43 105.5l155 1114h344l-157 -1120q-28 -190 -159.5 -288.5t-361.5 -98.5zM203 1382q0 94 60 149.5t159 55.5q83 0 125.5 -38t42.5 -107q0 -92 -61.5 -147.5t-157.5 -55.5q-82 0 -125 37.5t-43 105.5z" />
<glyph unicode="k" horiz-adv-x="1153" d="M14 0l217 1563h349l-115 -818l328 385h405l-348 -399l203 -731h-371l-127 442l-74 -82q-26 -30 -36.5 -43.5t-27 -40t-25 -56t-13.5 -68.5l-21 -152h-344z" />
<glyph unicode="l" horiz-adv-x="557" d="M20 0l218 1563h358l-217 -1563h-359z" />
<glyph unicode="m" horiz-adv-x="1685" d="M14 0l123 895q9 71 61.5 122t132 77t158.5 37.5t162 11.5q199 0 281 -76q165 76 325 76q215 -1 301 -105q64 -79 64 -205q0 -41 -6 -88l-105 -745h-344l101 711q2 19 2 36q0 39 -12 63q-18 34 -78 34q-84 0 -146 -31q5 -22 5 -48q0 -19 -3 -40l-100 -725h-344l98 711 q2 19 2 35q0 38 -12 63q-18 35 -78 35q-53 0 -129 -25l-113 -819h-346z" />
<glyph unicode="n" horiz-adv-x="1136" d="M16 0l123 895q19 142 180 195q189 53 353 53q232 0 328 -106q74 -83 75 -216q0 -38 -6 -80l-104 -741h-349l99 709q3 21 3 38q0 37 -14 61q-21 36 -86 36q-50 0 -135 -25l-112 -819h-355z" />
<glyph unicode="o" horiz-adv-x="1196" d="M59 459q0 159 48 289.5t131.5 216t197.5 132t246 46.5q216 0 336.5 -122t120.5 -341q0 -109 -25.5 -210.5t-77.5 -189t-125 -152.5t-174.5 -102.5t-220.5 -37.5q-217 0 -337 124.5t-120 346.5zM414 449q0 -101 36.5 -154t106.5 -53q51 0 92 31.5t66 80t41.5 109.5t23 116 t6.5 105q0 101 -37 154t-108 53q-98 0 -162.5 -120t-64.5 -322z" />
<glyph unicode="p" horiz-adv-x="1167" d="M-37 -369l176 1268q20 140 148 191q139 53 364 53q219 0 336 -118.5t117 -334.5q0 -317 -153.5 -506.5t-409.5 -189.5q-28 0 -60.5 4.5t-53.5 9.5t-41 10l-19 5l-56 -392h-348zM406 295q70 -23 122 -23q65 0 113 38t72.5 99.5t35.5 124.5t11 128q0 202 -162 202 q-42 0 -115 -12z" />
<glyph unicode="q" horiz-adv-x="1165" d="M57 422q0 328 167.5 524.5t449.5 196.5q186 0 297 -39q150 -50 150 -172q0 -16 -3 -33l-176 -1268h-350l53 392l-35 -8q-34 -8 -76.5 -14.5t-78.5 -6.5q-204 0 -301 111t-97 317zM406 463q0 -189 149 -189q57 0 129 21l80 557q-71 12 -117 12q-80 0 -136 -59 t-80.5 -147.5t-24.5 -194.5z" />
<glyph unicode="r" horiz-adv-x="790" d="M14 0l123 887q10 78 53 123.5t123 70.5q198 58 506 58l-39 -283q-199 0 -311 -37l-113 -819h-342z" />
<glyph unicode="s" horiz-adv-x="1064" d="M10 80l78 268l105 -41q160 -61 311 -61q57 0 90 25t33 73q0 32 -20.5 50.5t-63.5 27.5l-176 41q-136 29 -202.5 103t-66.5 198q0 97 38 171t106 118.5t154.5 67t189.5 22.5q199 0 364 -56l103 -36l-78 -267l-107 39q-173 62 -307 62q-60 0 -92.5 -26t-32.5 -71 q0 -31 20 -48.5t64 -28.5l178 -39q135 -31 201 -105.5t66 -197.5q0 -78 -25.5 -141.5t-70.5 -107.5t-107 -74t-134 -44t-153 -14q-197 0 -362 57z" />
<glyph unicode="t" horiz-adv-x="890" d="M74 868l37 260h133l30 215l351 68l-39 -283h295l-37 -260h-295l-66 -465q-3 -22 -3 -41q0 -46 18 -69q24 -33 90 -33q73 0 176 35v-254q-164 -53 -287 -53q-190 0 -278 102q-67 77 -67 208q0 42 7 89l70 481h-135z" />
<glyph unicode="u" horiz-adv-x="1136" d="M68 389l104 741h348l-98 -708q-2 -18 -3 -34q-1 -40 15 -64q20 -34 84 -35q56 0 137 22l115 819h352l-127 -894q-16 -140 -174 -193q-186 -55 -352 -55q-235 0 -331 106q-76 84 -76 219q0 36 6 76z" />
<glyph unicode="v" horiz-adv-x="1142" d="M104 1130h363l72 -729l274 729h379l-442 -989q-75 -166 -271 -166q-97 0 -154.5 42t-70.5 124z" />
<glyph unicode="w" horiz-adv-x="1613" d="M115 1130h352v-716l225 602q43 121 199 121q74 0 117.5 -32.5t48.5 -88.5l57 -602l191 716h354l-330 -974q-58 -181 -260 -181q-206 0 -221 166l-43 404l-160 -404q-61 -166 -268 -166q-200 0 -209 181z" />
<glyph unicode="x" horiz-adv-x="1171" d="M-39 0l408 578l-248 552h387l119 -290l172 290h401l-393 -569l258 -561h-389l-129 301l-191 -301h-395z" />
<glyph unicode="y" horiz-adv-x="1157" d="M-31 -324l74 252q96 -34 170 -34q97 0 133 98l12 35l-247 1103h378l95 -677l250 677h362l-530 -1196q-66 -150 -173 -229.5t-268 -79.5q-123 0 -256 51z" />
<glyph unicode="z" horiz-adv-x="1091" d="M16 137q0 101 80 187l510 550h-473l35 256h768q69 0 104 -36.5t35 -100.5q0 -103 -80 -186l-503 -549h477l-37 -258h-774q-70 0 -106 36.5t-36 100.5z" />
<glyph unicode="{" horiz-adv-x="788" d="M84 586v215q107 1 151 27t44 71q0 41 -25.5 95.5t-51.5 119t-26 129.5q0 133 90 207t262 74h181v-267h-95q-110 0 -110 -102q0 -51 46 -145.5t46 -153.5q0 -63 -32 -104.5t-75 -59.5q43 -18 75 -59t32 -103q0 -49 -23 -103.5t-46 -106.5t-23 -95q0 -50 26 -73t84 -23h95 v-266h-181q-172 0 -262 73.5t-90 206.5q0 65 26 129t51.5 118.5t25.5 94.5q0 47 -44 73.5t-151 27.5z" />
<glyph unicode="|" horiz-adv-x="612" d="M129 -369v1932h354v-1932h-354z" />
<glyph unicode="}" horiz-adv-x="788" d="M84 129h94q58 0 84.5 23t26.5 73q0 43 -23 95t-46 106.5t-23 103.5q0 63 31 103.5t73 58.5q-42 18 -73 59.5t-31 104.5q0 59 46 153.5t46 145.5q0 102 -111 102h-94v267h180q175 0 263.5 -73.5t88.5 -207.5q0 -51 -16 -103.5t-35 -87.5t-35 -77.5t-16 -75.5q0 -45 44 -71 t151 -27v-215q-107 -1 -151 -27.5t-44 -73.5q0 -40 25.5 -94.5t51 -118.5t25.5 -129q0 -133 -88.5 -206.5t-263.5 -73.5h-180v266z" />
<glyph unicode="~" d="M25 545q78 163 182 238t221 75q105 0 190 -67l62 -50q41 -36 92 -36q41 0 79 35.5t79 113.5l184 -137q-77 -163 -182.5 -238.5t-220.5 -75.5q-111 0 -193 68l-57 49q-44 35 -94 35q-43 0 -80 -33.5t-78 -111.5z" />
<glyph unicode="&#xa1;" horiz-adv-x="534" d="M-35 -381l150 1051h340l-148 -1051h-342zM131 956q0 92 62.5 148.5t156.5 56.5q82 0 126 -38.5t44 -106.5q0 -94 -60 -148.5t-159 -54.5q-85 0 -127.5 37t-42.5 106z" />
<glyph unicode="&#xa2;" d="M100 459q0 273 126 446.5t329 218.5l37 271h276l-37 -265q86 -10 162 -38l80 -33l-78 -283l-77 29q-118 47 -211 47q-66 0 -116 -33.5t-78.5 -88.5t-42 -117.5t-13.5 -129.5q0 -207 172 -207q111 0 237 46l76 28l33 -280l-92 -31q-126 -38 -213 -43l-37 -266h-277l41 280 q-139 40 -218 156.5t-79 292.5z" />
<glyph unicode="&#xa3;" d="M-4 102q0 73 35.5 120.5t111.5 47.5q93 0 139 57.5t46 149.5q0 33 -9 60h-227l29 213h125q-27 76 -37 108.5t-19.5 88t-9.5 116.5q0 116 42 208t116 149.5t170.5 87.5t208.5 30q175 0 356 -68l96 -34l-73 -297l-92 35q-157 57 -261 57t-155 -58t-51 -180q0 -74 43 -243 h260l-31 -220h-195q7 -14 7 -59q0 -121 -76 -197h141q56 0 97 37.5t48 108.5h256q-25 -209 -133.5 -314.5t-312.5 -105.5h-535q-110 0 -110 102z" />
<glyph unicode="&#xa4;" horiz-adv-x="1024" d="M41 178l102 111q-96 110 -96 284q0 180 98 283l-104 111l86 86l104 -103q111 97 279 97q170 0 278 -97l107 103l86 -86l-104 -111q96 -110 96 -283q0 -177 -96 -284l104 -111l-86 -84l-107 103q-111 -97 -278 -97q-171 0 -279 97l-104 -103zM182 573q0 -138 95 -237.5 t233 -99.5t233 99.5t95 237.5q0 137 -96 237.5t-232 100.5q-138 0 -233 -100t-95 -238z" />
<glyph unicode="&#xa5;" d="M41 362l31 216h295l20 129h-297l31 215h213l-170 602h389l78 -563l221 563h395l-334 -602h215l-30 -215h-297l-19 -129h297l-30 -216h-297l-50 -362h-413l49 362h-297z" />
<glyph unicode="&#xa6;" horiz-adv-x="612" d="M127 -369v770h356v-770h-356zM127 795v770h356v-770h-356z" />
<glyph unicode="&#xa7;" d="M-6 -279l76 297l92 -34q61 -25 139 -42.5t139 -17.5q98 0 149.5 43t63.5 133l11 72q-2 0 -20.5 -5t-34 -8.5t-39 -8t-50 -7t-51.5 -2.5q-455 0 -385 502l57 428q32 227 184 347t388 120q172 0 348 -68l94 -36l-76 -297l-90 34q-155 60 -278 60q-192 0 -213 -178l-11 -74 q95 33 197 33q226 0 322 -128.5t61 -375.5l-61 -428q-32 -227 -182.5 -345t-385.5 -118q-154 0 -350 70zM436 625q-14 -105 15 -157t116 -52q18 0 40 3t36.5 6.5t34 8.5t24.5 6l13 86q14 106 -15.5 157.5t-117.5 51.5q-58 0 -133 -24z" />
<glyph unicode="&#xa8;" horiz-adv-x="1036" d="M289 1382q0 93 56.5 149t146.5 56q73 0 113 -36.5t40 -102.5q0 -90 -56.5 -147.5t-146.5 -57.5q-73 0 -113 36.5t-40 102.5zM713 1382q0 93 57 149t148 56q73 0 112 -36.5t39 -102.5q0 -91 -54.5 -148t-144.5 -57q-75 0 -116 36.5t-41 102.5z" />
<glyph unicode="&#xa9;" horiz-adv-x="1910" d="M152 752q0 172 63.5 322t171.5 253.5t255.5 163t311.5 59.5q163 0 309.5 -58.5t255 -161.5t172.5 -253.5t64 -324.5q0 -171 -64 -321t-172 -255.5t-255.5 -166t-309.5 -60.5q-164 0 -311.5 60.5t-255.5 166t-171.5 255.5t-63.5 321zM393 752q0 -258 158.5 -419 t402.5 -161q118 0 220.5 42.5t177 117.5t117 184t42.5 236q0 263 -157 420t-400 157q-120 0 -223.5 -41t-178 -114.5t-117 -182.5t-42.5 -239zM555 752q0 205 111 314.5t295 109.5q126 0 241 -37l72 -25l-31 -217l-67 23q-118 32 -179 32q-161 0 -161 -200q0 -201 161 -201 q64 0 179 35l67 20l31 -217l-72 -20q-118 -41 -241 -41q-184 0 -295 109.5t-111 314.5z" />
<glyph unicode="&#xaa;" d="M141 907q0 283 389 283h134v24q0 53 -29 74t-86 21q-119 0 -250 -41l-96 -33l-35 217l100 33q175 53 316 53q356 0 356 -309v-365l88 -55l-104 -182l-80 41q-55 28 -131 12l-45 -10q-130 -29 -207 -29q-151 0 -235.5 70.5t-84.5 195.5zM426 920q0 -39 25 -59.5t67 -20.5 q38 0 100 16l48 12v133h-127q-113 0 -113 -81z" />
<glyph unicode="&#xab;" horiz-adv-x="1148" d="M51 559q0 71 74 148l266 276h326l-402 -416l293 -393h-307l-213 272q-37 45 -37 113zM489 561q0 74 76 146l273 276h323l-405 -416l297 -393h-303l-222 272q-39 47 -39 115z" />
<glyph unicode="&#xac;" d="M84 670v262h971v-658h-289v396h-682z" />
<glyph unicode="&#xad;" d="M88 465v278h965v-278h-965z" />
<glyph unicode="&#xae;" horiz-adv-x="1910" d="M152 752q0 172 63.5 322t171.5 253.5t255.5 163t311.5 59.5q163 0 309.5 -58.5t255 -161.5t172.5 -253.5t64 -324.5q0 -171 -64 -321t-172 -255.5t-255.5 -166t-309.5 -60.5q-164 0 -311.5 60.5t-255.5 166t-171.5 255.5t-63.5 321zM393 752q0 -258 158.5 -419 t402.5 -161q118 0 220.5 42.5t177 117.5t117 184t42.5 236q0 263 -157 420t-400 157q-120 0 -223.5 -41t-178 -114.5t-117 -182.5t-42.5 -239zM608 367v692q0 57 32 87t91 30h307q129 0 204 -68.5t75 -185.5q0 -99 -72 -189l-35 -45l129 -321h-258l-96 256h-125v-256h-252z M860 797h156l28 37q27 39 27 79q0 39 -21.5 62.5t-60.5 23.5h-129v-202z" />
<glyph unicode="&#xaf;" horiz-adv-x="1036" d="M244 1264l32 256h744l-33 -256h-743z" />
<glyph unicode="&#xb0;" horiz-adv-x="1144" d="M242 1155q0 177 110.5 293.5t292.5 116.5t288.5 -116t106.5 -294q0 -180 -109 -296t-290 -116q-183 0 -291 116.5t-108 295.5zM496 1153q0 -75 39 -121.5t108 -46.5t108.5 46.5t39.5 121.5t-40.5 121.5t-109.5 46.5t-107 -46t-38 -122z" />
<glyph unicode="&#xb1;" d="M84 0v260h973v-260h-973zM84 594v274h334v265h297v-265h342v-274h-342v-252h-297v252h-334z" />
<glyph unicode="&#xb2;" horiz-adv-x="655" d="M90 987q0 68 49 109l250 202q68 53 96 89t29 86q0 81 -94 81q-70 0 -160 -32l-59 -21l-27 172l66 23q105 34 219 37q129 0 203.5 -57.5t74.5 -170.5q0 -87 -41.5 -154.5t-146.5 -152.5l-156 -125h283l-25 -166h-477q-41 0 -62.5 22t-21.5 58z" />
<glyph unicode="&#xb3;" horiz-adv-x="655" d="M86 956l47 174l64 -20q115 -39 176 -37q55 0 84.5 22.5t29.5 61.5q0 28 -20 55l-14 25h-166l20 160h160l20 20q26 30 31 64q0 73 -96 73q-79 0 -166 -32l-59 -21l-19 174l66 21q109 37 217 37q130 0 202 -52t72 -159q0 -52 -19 -92.5t-57 -83.5l-22 -27l16 -21 q54 -63 54 -139q0 -124 -95.5 -192t-240.5 -68q-105 0 -224 39z" />
<glyph unicode="&#xb4;" horiz-adv-x="1052" d="M385 1319q0 59 64 115l147 129h420l-373 -281q-82 -59 -158 -59q-49 0 -74.5 29t-25.5 67z" />
<glyph unicode="&#xb5;" d="M90 -381v1511h359v-706q0 -60 24 -91.5t88 -31.5q50 0 129 25v804h365v-888q0 -83 -36.5 -129t-115.5 -70q-157 -49 -352 -49q-36 0 -68.5 5t-38.5 11v-391h-354z" />
<glyph unicode="&#xb6;" horiz-adv-x="1284" d="M55 981q0 115 33.5 212.5t99 172t170.5 116.5t240 42h606v-1905h-284v1645h-154v-1645h-295v832q-203 33 -309.5 178t-106.5 352z" />
<glyph unicode="&#xb7;" horiz-adv-x="739" d="M201 698q0 97 59.5 155t157.5 58q84 0 127 -40t43 -111q0 -98 -61.5 -156.5t-155.5 -58.5q-83 0 -126.5 40.5t-43.5 112.5z" />
<glyph unicode="&#xb8;" horiz-adv-x="1036" d="M176 -360l45 124q81 -45 154 -45q59 0 59 50q0 55 -151 45l-13 28l95 158h129l-52 -88q76 0 120 -34t44 -103q0 -89 -67 -137t-168 -48q-89 0 -195 50z" />
<glyph unicode="&#xb9;" horiz-adv-x="655" d="M84 907l22 170h203l66 471h-15q-24 0 -64 -9.5t-67 -25.5l-8 170q90 41 205 41h74q60 0 88 -30t22 -84l-75 -533h163l-24 -170h-590z" />
<glyph unicode="&#xba;" d="M131 1092q0 214 118.5 332t323.5 118q206 0 321.5 -117.5t115.5 -332.5t-118 -334t-323 -119q-206 0 -322 118.5t-116 334.5zM432 1092q0 -244 141 -244q140 0 140 244q0 239 -144 239q-137 0 -137 -239z" />
<glyph unicode="&#xbb;" horiz-adv-x="1148" d="M-4 174l407 416l-299 393h306l219 -270q39 -44 39 -117q0 -67 -74 -145l-275 -277h-323zM440 174l404 416l-295 393h307l213 -270q37 -45 37 -115q0 -68 -72 -147l-268 -277h-326z" />
<glyph unicode="&#xbc;" horiz-adv-x="1591" d="M63 707l23 170h203l65 471h-14q-24 0 -64 -9.5t-67 -25.5l-8 170q90 41 205 41h73q60 0 88.5 -30.5t22.5 -84.5l-76 -532h164l-25 -170h-590zM307 0l893 1524h242l-891 -1524h-244zM887 203q0 42 39 106l319 436q55 82 154 82q132 0 117 -122l-60 -416h70l-23 -164h-69 l-17 -125h-213l17 125h-250q-42 0 -63 21t-21 57zM1130 289h113l29 200z" />
<glyph unicode="&#xbd;" horiz-adv-x="1591" d="M63 707l23 170h203l65 471h-14q-24 0 -64 -9.5t-67 -25.5l-8 170q90 41 205 41h73q60 0 88.5 -30.5t22.5 -84.5l-76 -532h164l-25 -170h-590zM260 0l893 1524h242l-891 -1524h-244zM889 80q0 67 49 108l250 203q68 54 96 89t29 85q0 82 -94 82q-67 0 -160 -33l-60 -20 l-26 172l65 22q105 34 219 37q129 0 204 -57t75 -170q0 -87 -41.5 -154.5t-146.5 -152.5l-156 -125h283l-25 -166h-477q-41 0 -62.5 22t-21.5 58z" />
<glyph unicode="&#xbe;" horiz-adv-x="1591" d="M66 756l47 174l63 -21q115 -39 176 -37q55 0 85 22.5t30 61.5q0 28 -21 56l-14 24h-166l21 160h159l21 21q26 30 31 63q0 74 -97 74q-75 0 -165 -33l-60 -21l-18 175l65 20q109 37 217 37q131 0 203 -52t72 -159q0 -52 -19 -92.5t-57 -83.5l-23 -27l17 -20 q53 -62 53 -140q0 -124 -95.5 -192t-240.5 -68q-104 0 -223 39zM287 -2l893 1524h241l-891 -1524h-243zM887 203q0 42 39 106l319 436q55 82 154 82q132 0 117 -122l-60 -416h70l-23 -164h-69l-17 -125h-213l17 125h-250q-42 0 -63 21t-21 57zM1130 289h113l29 200z" />
<glyph unicode="&#xbf;" horiz-adv-x="921" d="M-33 -61q0 130 56 226.5t161 188.5l138 121l28 195h332l-16 -125q-10 -71 -32.5 -119t-76.5 -96l-141 -135q-54 -52 -78.5 -92t-24.5 -97q0 -102 111 -102q78 0 197 35l110 32l43 -278l-102 -29q-181 -51 -310 -51q-395 0 -395 326zM369 958q0 92 62 148.5t157 56.5 q82 0 125 -38t43 -107q0 -94 -60 -149.5t-159 -55.5q-83 0 -125.5 38t-42.5 107z" />
<glyph unicode="&#xc0;" horiz-adv-x="1421" d="M-55 0l592 1341q84 201 321 201q230 0 260 -199l197 -1343h-420l-25 236h-399l-92 -236h-434zM506 1872h442l125 -96q45 -36 45 -82q0 -41 -34 -71t-91 -30q-75 0 -143 47zM584 547h264l-57 538z" />
<glyph unicode="&#xc1;" horiz-adv-x="1421" d="M-55 0l592 1341q84 201 321 201q230 0 260 -199l197 -1343h-420l-25 236h-399l-92 -236h-434zM584 547h264l-57 538zM635 1673q0 60 57 99l144 100h442l-385 -232q-76 -47 -156 -47q-53 0 -77.5 23t-24.5 57z" />
<glyph unicode="&#xc2;" horiz-adv-x="1421" d="M-55 0l592 1341q84 201 321 201q230 0 260 -199l197 -1343h-420l-25 236h-399l-92 -236h-434zM444 1602l269 217q69 59 194 59q121 0 180 -59l211 -217h-340l-71 92l-90 -92h-353zM584 547h264l-57 538z" />
<glyph unicode="&#xc3;" horiz-adv-x="1421" d="M-55 0l592 1341q84 201 321 201q230 0 260 -199l197 -1343h-420l-25 236h-399l-92 -236h-434zM432 1686q122 206 324 206q89 0 162 -45l55 -32q25 -19 74 -19q68 0 127 94l155 -90q-123 -207 -323 -207q-94 0 -162 45l-56 33q-34 21 -73 21q-36 0 -65 -21.5t-62 -73.5z M584 547h264l-57 538z" />
<glyph unicode="&#xc4;" horiz-adv-x="1421" d="M-55 0l592 1341q84 201 321 201q230 0 260 -199l197 -1343h-420l-25 236h-399l-92 -236h-434zM494 1720q0 82 54 131.5t146 49.5q76 0 119 -35t43 -97q0 -78 -59 -127t-144 -49q-77 0 -118 33t-41 94zM584 547h264l-57 538zM926 1720q0 82 54.5 131.5t147.5 49.5 q76 0 118 -35t42 -97q0 -78 -59 -127t-144 -49q-76 0 -117.5 33.5t-41.5 93.5z" />
<glyph unicode="&#xc5;" horiz-adv-x="1421" d="M-55 0l592 1341q84 201 321 201q230 0 260 -199l197 -1343h-420l-25 236h-399l-92 -236h-434zM584 547h264l-57 538zM633 1782q0 108 84.5 173.5t214.5 65.5q111 0 176.5 -49.5t65.5 -136.5q0 -106 -88 -175t-216 -69q-108 0 -172.5 52t-64.5 139zM805 1794q0 -30 23 -49 t61 -19q47 0 78.5 26t31.5 63q0 32 -23 51.5t-63 19.5q-50 0 -79 -26.5t-29 -65.5z" />
<glyph unicode="&#xc6;" horiz-adv-x="2070" d="M-55 0l673 1333q96 191 347 191h1161l-43 -318h-629l-41 -278h549l-43 -305h-549l-41 -306h633l-45 -317h-852q-98 0 -146.5 51t-35.5 142l6 43h-410l-106 -236h-428zM621 547h311l94 657h-108z" />
<glyph unicode="&#xc7;" horiz-adv-x="1333" d="M90 604q0 222 63.5 401.5t173.5 294.5t255.5 176.5t312.5 61.5q191 0 385 -72l109 -41l-95 -344l-114 39q-146 51 -277 51q-166 0 -266 -138t-100 -390q0 -289 251 -289q141 0 295 54l121 45l35 -349l-121 -41q-194 -66 -375 -77l-43 -74q76 0 120 -34t44 -103 q0 -89 -67 -137t-168 -48q-89 0 -195 50l45 124q81 -45 154 -45q59 0 59 50q0 55 -151 45l-13 28l86 146q-248 19 -386 176.5t-138 439.5z" />
<glyph unicode="&#xc8;" horiz-adv-x="1230" d="M47 203l156 1118q14 95 76.5 149t160.5 54h846l-43 -318h-629l-39 -278h549l-41 -305h-551l-43 -306h633l-45 -317h-852q-98 0 -145 53.5t-33 149.5zM426 1872h442l125 -96q45 -36 45 -82q0 -41 -34 -71t-91 -30q-75 0 -143 47z" />
<glyph unicode="&#xc9;" horiz-adv-x="1230" d="M47 203l156 1118q14 95 76.5 149t160.5 54h846l-43 -318h-629l-39 -278h549l-41 -305h-551l-43 -306h633l-45 -317h-852q-98 0 -145 53.5t-33 149.5zM639 1673q0 60 57 99l144 100h442l-385 -232q-76 -47 -156 -47q-53 0 -77.5 23t-24.5 57z" />
<glyph unicode="&#xca;" horiz-adv-x="1230" d="M47 203l156 1118q14 95 76.5 149t160.5 54h846l-43 -318h-629l-39 -278h549l-41 -305h-551l-43 -306h633l-45 -317h-852q-98 0 -145 53.5t-33 149.5zM373 1602l268 217q69 59 195 59q121 0 180 -59l211 -217h-340l-72 92l-90 -92h-352z" />
<glyph unicode="&#xcb;" horiz-adv-x="1230" d="M47 203l156 1118q14 95 76.5 149t160.5 54h846l-43 -318h-629l-39 -278h549l-41 -305h-551l-43 -306h633l-45 -317h-852q-98 0 -145 53.5t-33 149.5zM424 1720q0 82 54.5 131.5t146.5 49.5q76 0 118.5 -35t42.5 -97q0 -78 -58.5 -127t-143.5 -49q-77 0 -118.5 33.5 t-41.5 93.5zM856 1720q0 82 55 131.5t148 49.5q76 0 118 -35t42 -97q0 -78 -59 -127t-144 -49q-76 0 -118 33.5t-42 93.5z" />
<glyph unicode="&#xcc;" horiz-adv-x="626" d="M23 0l213 1524h434l-215 -1524h-432zM90 1872h442l125 -96q45 -36 45 -82q0 -41 -33.5 -71t-90.5 -30q-76 0 -144 47z" />
<glyph unicode="&#xcd;" horiz-adv-x="626" d="M23 0l213 1524h434l-215 -1524h-432zM236 1673q0 60 57 99l143 100h443l-385 -232q-76 -47 -156 -47q-53 0 -77.5 23t-24.5 57z" />
<glyph unicode="&#xce;" horiz-adv-x="626" d="M23 0l213 1524h434l-215 -1524h-432zM27 1602l268 217q69 59 194 59q122 0 181 -59l211 -217h-340l-72 92l-90 -92h-352z" />
<glyph unicode="&#xcf;" horiz-adv-x="626" d="M23 0l213 1524h434l-215 -1524h-432zM88 1720q0 82 54.5 131.5t146.5 49.5q76 0 119 -35t43 -97q0 -78 -59 -127t-144 -49q-77 0 -118.5 33.5t-41.5 93.5zM520 1720q0 82 55 131.5t148 49.5q76 0 118 -35t42 -97q0 -78 -59 -127t-144 -49q-76 0 -118 33.5t-42 93.5z" />
<glyph unicode="&#xd0;" horiz-adv-x="1466" d="M41 664l31 213h102l64 444q13 95 77 149t162 54h365q281 0 437.5 -163t156.5 -458q0 -210 -62.5 -382t-171.5 -285t-256.5 -174.5t-318.5 -61.5h-365q-90 0 -141.5 53.5t-38.5 149.5l63 461h-104zM528 330h140q90 0 159.5 52t108.5 136.5t58.5 177.5t19.5 189 q0 152 -61 231.5t-175 79.5h-129l-45 -319h246l-31 -213h-246z" />
<glyph unicode="&#xd1;" horiz-adv-x="1470" d="M23 0l176 1268q19 130 104 200t229 70q72 0 122 -17t81.5 -53t49.5 -76t34 -102l197 -669l127 903h366l-176 -1266q-19 -133 -103 -202.5t-231 -69.5q-71 0 -121 17.5t-81.5 53.5t-50 77t-33.5 102l-195 667l-127 -903h-368zM492 1686q122 206 323 206q89 0 162 -45 l55 -32q25 -19 74 -19q68 0 127 94l156 -90q-123 -207 -324 -207q-94 0 -162 45l-55 33q-34 21 -74 21q-36 0 -65 -21.5t-62 -73.5z" />
<glyph unicode="&#xd2;" horiz-adv-x="1560" d="M90 616q0 215 65 390.5t178.5 290t263 176t321.5 61.5q288 0 451 -163.5t163 -467.5q0 -146 -35 -282t-105.5 -252t-168.5 -202t-232 -134.5t-289 -48.5q-285 0 -448.5 165t-163.5 467zM522 614q0 -159 57.5 -239t168.5 -80q75 0 136 40.5t100 104.5t65.5 146t37.5 160.5 t11 152.5q0 160 -58.5 241t-169.5 81q-149 0 -248.5 -165t-99.5 -442zM569 1872h443l125 -96q45 -36 45 -82q0 -41 -34 -71t-91 -30q-76 0 -144 47z" />
<glyph unicode="&#xd3;" horiz-adv-x="1560" d="M90 616q0 215 65 390.5t178.5 290t263 176t321.5 61.5q288 0 451 -163.5t163 -467.5q0 -146 -35 -282t-105.5 -252t-168.5 -202t-232 -134.5t-289 -48.5q-285 0 -448.5 165t-163.5 467zM522 614q0 -159 57.5 -239t168.5 -80q75 0 136 40.5t100 104.5t65.5 146t37.5 160.5 t11 152.5q0 160 -58.5 241t-169.5 81q-149 0 -248.5 -165t-99.5 -442zM752 1673q0 60 57 99l143 100h443l-385 -232q-76 -47 -156 -47q-53 0 -77.5 23t-24.5 57z" />
<glyph unicode="&#xd4;" horiz-adv-x="1560" d="M90 616q0 215 65 390.5t178.5 290t263 176t321.5 61.5q288 0 451 -163.5t163 -467.5q0 -146 -35 -282t-105.5 -252t-168.5 -202t-232 -134.5t-289 -48.5q-285 0 -448.5 165t-163.5 467zM502 1602l268 217q69 59 195 59q121 0 180 -59l211 -217h-340l-72 92l-90 -92h-352z M522 614q0 -159 57.5 -239t168.5 -80q75 0 136 40.5t100 104.5t65.5 146t37.5 160.5t11 152.5q0 160 -58.5 241t-169.5 81q-149 0 -248.5 -165t-99.5 -442z" />
<glyph unicode="&#xd5;" horiz-adv-x="1560" d="M90 616q0 215 65 390.5t178.5 290t263 176t321.5 61.5q288 0 451 -163.5t163 -467.5q0 -146 -35 -282t-105.5 -252t-168.5 -202t-232 -134.5t-289 -48.5q-285 0 -448.5 165t-163.5 467zM522 614q0 -159 57.5 -239t168.5 -80q75 0 136 40.5t100 104.5t65.5 146t37.5 160.5 t11 152.5q0 160 -58.5 241t-169.5 81q-149 0 -248.5 -165t-99.5 -442zM524 1686q122 206 324 206q89 0 162 -45l55 -32q25 -19 74 -19q68 0 127 94l155 -90q-123 -207 -323 -207q-94 0 -162 45l-55 33q-34 21 -74 21q-36 0 -65 -21.5t-62 -73.5z" />
<glyph unicode="&#xd6;" horiz-adv-x="1560" d="M90 616q0 215 65 390.5t178.5 290t263 176t321.5 61.5q288 0 451 -163.5t163 -467.5q0 -146 -35 -282t-105.5 -252t-168.5 -202t-232 -134.5t-289 -48.5q-285 0 -448.5 165t-163.5 467zM522 614q0 -159 57.5 -239t168.5 -80q75 0 136 40.5t100 104.5t65.5 146t37.5 160.5 t11 152.5q0 160 -58.5 241t-169.5 81q-149 0 -248.5 -165t-99.5 -442zM567 1720q0 82 54.5 131.5t146.5 49.5q76 0 119 -35t43 -97q0 -78 -59 -127t-144 -49q-77 0 -118.5 33.5t-41.5 93.5zM999 1720q0 82 55 131.5t148 49.5q76 0 118 -35t42 -97q0 -78 -59 -127t-144 -49 q-76 0 -118 33.5t-42 93.5z" />
<glyph unicode="&#xd7;" d="M76 297l282 285l-282 284l211 211l284 -280l285 280l211 -211l-283 -284l283 -285l-211 -211l-285 283l-284 -283z" />
<glyph unicode="&#xd8;" horiz-adv-x="1560" d="M90 616q0 215 65 390.5t178.5 290t263 176t321.5 61.5q128 0 235 -35l80 123h264l-149 -231q184 -164 184 -488q0 -146 -35 -282t-105.5 -252t-168.5 -202t-232 -134.5t-289 -48.5q-131 0 -237 34l-80 -124h-264l151 235q-182 170 -182 487zM522 614q0 -32 4 -90l437 678 q-51 19 -93 19q-149 0 -248.5 -165t-99.5 -442zM655 313q41 -18 93 -18q75 0 136 40.5t100 104.5t65.5 146t37.5 160.5t11 152.5q0 48 -6 92z" />
<glyph unicode="&#xd9;" horiz-adv-x="1411" d="M86 578l135 946h428l-133 -955q-15 -118 25 -174.5t137 -56.5q96 0 149 57t70 174l133 955h432l-135 -961q-40 -282 -220 -435t-480 -153t-440 159t-101 444zM465 1872h442l125 -96q45 -36 45 -82q0 -41 -34 -71t-91 -30q-75 0 -143 47z" />
<glyph unicode="&#xda;" horiz-adv-x="1411" d="M86 578l135 946h428l-133 -955q-15 -118 25 -174.5t137 -56.5q96 0 149 57t70 174l133 955h432l-135 -961q-40 -282 -220 -435t-480 -153t-440 159t-101 444zM717 1673q0 60 57 99l144 100h442l-385 -232q-76 -47 -156 -47q-53 0 -77.5 23t-24.5 57z" />
<glyph unicode="&#xdb;" horiz-adv-x="1411" d="M86 578l135 946h428l-133 -955q-15 -118 25 -174.5t137 -56.5q96 0 149 57t70 174l133 955h432l-135 -961q-40 -282 -220 -435t-480 -153t-440 159t-101 444zM420 1602l268 217q69 59 195 59q121 0 180 -59l211 -217h-340l-72 92l-90 -92h-352z" />
<glyph unicode="&#xdc;" horiz-adv-x="1411" d="M86 578l135 946h428l-133 -955q-15 -118 25 -174.5t137 -56.5q96 0 149 57t70 174l133 955h432l-135 -961q-40 -282 -220 -435t-480 -153t-440 159t-101 444zM471 1720q0 82 54.5 131.5t146.5 49.5q76 0 119 -35t43 -97q0 -78 -59 -127t-144 -49q-77 0 -118.5 33.5 t-41.5 93.5zM903 1720q0 82 55 131.5t148 49.5q76 0 118 -35t42 -97q0 -78 -59 -127t-144 -49q-76 0 -118 33.5t-42 93.5z" />
<glyph unicode="&#xdd;" horiz-adv-x="1452" d="M160 1524h452l174 -529l312 529h463l-615 -910l-84 -614h-430l86 612zM707 1673q0 60 57 99l143 100h443l-385 -232q-76 -47 -156 -47q-53 0 -77.5 23t-24.5 57z" />
<glyph unicode="&#xde;" horiz-adv-x="1292" d="M16 0l215 1524h420l-35 -234h222q202 0 315 -113t113 -311q0 -134 -43.5 -244t-121.5 -184t-185 -114t-234 -41h-207l-37 -283h-422zM522 594h164q84 0 137.5 68t53.5 163q0 70 -37 112t-99 42h-166z" />
<glyph unicode="&#xdf;" horiz-adv-x="1138" d="M14 0l164 1159q16 115 60.5 201t111.5 137t147.5 75.5t176.5 24.5q184 0 295.5 -97.5t111.5 -260.5q0 -168 -118 -328l-76 -98l78 -100q94 -114 94 -260q0 -212 -135.5 -332.5t-360.5 -120.5h-114l38 283h84q74 0 115 48t41 124q0 68 -41 125l-76 118q-30 46 -30 99 q0 31 9.5 56t31.5 65l65 102q55 96 55 199q0 102 -90 102q-47 0 -80 -38t-43 -114l-163 -1169h-351z" />
<glyph unicode="&#xe0;" horiz-adv-x="1173" d="M59 444q0 303 152 480.5t403 177.5q23 0 48.5 -3t47 -7t38 -8t29.5 -7.5t14 -3.5l12 76h348l-129 -887l94 -67l-153 -228l-89 53q-63 36 -153 17l-51 -12q-147 -31 -207 -31q-192 -1 -298 121.5t-106 328.5zM403 463q0 -199 152 -199q48 0 68 4l51 11l78 528 q-67 22 -121 22q-64 0 -111 -35t-71 -92.5t-35 -117t-11 -121.5zM410 1563h417l125 -129q47 -47 47 -113q0 -42 -30.5 -72t-79.5 -30q-74 0 -141 57z" />
<glyph unicode="&#xe1;" horiz-adv-x="1173" d="M59 444q0 303 152 480.5t403 177.5q23 0 48.5 -3t47 -7t38 -8t29.5 -7.5t14 -3.5l12 76h348l-129 -887l94 -67l-153 -228l-89 53q-63 36 -153 17l-51 -12q-147 -31 -207 -31q-192 -1 -298 121.5t-106 328.5zM403 463q0 -199 152 -199q48 0 68 4l51 11l78 528 q-67 22 -121 22q-64 0 -111 -35t-71 -92.5t-35 -117t-11 -121.5zM569 1319q0 59 64 115l147 129h420l-373 -281q-82 -59 -157 -59q-49 0 -75 29t-26 67z" />
<glyph unicode="&#xe2;" horiz-adv-x="1173" d="M59 444q0 303 152 480.5t403 177.5q23 0 48.5 -3t47 -7t38 -8t29.5 -7.5t14 -3.5l12 76h348l-129 -887l94 -67l-153 -228l-89 53q-63 36 -153 17l-51 -12q-147 -31 -207 -31q-192 -1 -298 121.5t-106 328.5zM334 1239l258 260q74 74 192 74t172 -74l189 -260h-322 l-65 117l-88 -117h-336zM403 463q0 -199 152 -199q48 0 68 4l51 11l78 528q-67 22 -121 22q-64 0 -111 -35t-71 -92.5t-35 -117t-11 -121.5z" />
<glyph unicode="&#xe3;" horiz-adv-x="1173" d="M59 444q0 303 152 480.5t403 177.5q23 0 48.5 -3t47 -7t38 -8t29.5 -7.5t14 -3.5l12 76h348l-129 -887l94 -67l-153 -228l-89 53q-63 36 -153 17l-51 -12q-147 -31 -207 -31q-192 -1 -298 121.5t-106 328.5zM307 1337q58 121 141 184.5t179 63.5q52 0 86.5 -12t74.5 -43 l50 -37q33 -33 69 -33q64 0 131 125l144 -112q-61 -128 -145.5 -188t-178.5 -60q-87 0 -156 57l-47 37q-35 31 -71 31q-66 0 -131 -119zM403 463q0 -199 152 -199q48 0 68 4l51 11l78 528q-67 22 -121 22q-64 0 -111 -35t-71 -92.5t-35 -117t-11 -121.5z" />
<glyph unicode="&#xe4;" horiz-adv-x="1173" d="M59 444q0 303 152 480.5t403 177.5q23 0 48.5 -3t47 -7t38 -8t29.5 -7.5t14 -3.5l12 76h348l-129 -887l94 -67l-153 -228l-89 53q-63 36 -153 17l-51 -12q-147 -31 -207 -31q-192 -1 -298 121.5t-106 328.5zM356 1382q0 93 56.5 149t146.5 56q73 0 113.5 -36.5 t40.5 -102.5q0 -90 -56.5 -147.5t-146.5 -57.5q-73 0 -113.5 36.5t-40.5 102.5zM403 463q0 -199 152 -199q48 0 68 4l51 11l78 528q-67 22 -121 22q-64 0 -111 -35t-71 -92.5t-35 -117t-11 -121.5zM780 1382q0 93 57 149t148 56q73 0 112.5 -36.5t39.5 -102.5 q0 -91 -54.5 -148t-144.5 -57q-75 0 -116.5 36.5t-41.5 102.5z" />
<glyph unicode="&#xe5;" horiz-adv-x="1173" d="M59 444q0 303 152 480.5t403 177.5q23 0 48.5 -3t47 -7t38 -8t29.5 -7.5t14 -3.5l12 76h348l-129 -887l94 -67l-153 -228l-89 53q-63 36 -153 17l-51 -12q-147 -31 -207 -31q-192 -1 -298 121.5t-106 328.5zM403 463q0 -199 152 -199q48 0 68 4l51 11l78 528 q-67 22 -121 22q-64 0 -111 -35t-71 -92.5t-35 -117t-11 -121.5zM487 1436q0 130 92.5 211.5t215.5 81.5q103 0 169 -60.5t66 -165.5q0 -128 -92 -213.5t-215 -85.5q-102 0 -169 63t-67 169zM662 1448q0 -40 21.5 -64t59.5 -24q45 0 79 37t34 90q0 38 -22.5 63t-61.5 25 q-47 0 -78.5 -37.5t-31.5 -89.5z" />
<glyph unicode="&#xe6;" horiz-adv-x="1781" d="M47 315q0 373 537 373h153l8 45q24 131 -129 131q-131 0 -305 -55l-127 -39l-37 258l127 41q223 73 418 76q204 3 279 -119q67 58 156.5 89.5t181.5 31.5q231 0 340 -138.5t73 -412.5q-9 -74 -45 -104.5t-108 -30.5h-529q-3 -197 199 -197q149 0 289 49l104 35l29 -258 l-107 -37q-189 -65 -370 -65q-162 0 -266 59q-43 22 -125 8l-213 -45q-123 -24 -193 -24q-155 0 -247.5 89t-92.5 240zM391 332q0 -50 27.5 -75.5t75.5 -25.5q35 0 122 17l123 24q-26 57 -26 189h-162q-72 0 -116 -31t-44 -98zM1069 682h332q16 98 -17 157.5t-118 59.5 q-72 0 -124.5 -57.5t-72.5 -159.5z" />
<glyph unicode="&#xe7;" horiz-adv-x="1028" d="M59 459q0 162 47 293.5t128.5 216t189 129.5t231.5 45q164 0 297 -51l80 -31l-78 -285l-77 31q-122 45 -211 45q-66 0 -116 -33.5t-78.5 -88.5t-42 -117.5t-13.5 -129.5q0 -207 172 -207q120 0 237 46l76 28l33 -280l-92 -31q-129 -45 -275 -51l-43 -76q76 0 120 -34 t44 -103q0 -89 -67 -137t-168 -48q-89 0 -195 50l45 124q81 -45 154 -45q59 0 59 50q0 55 -151 45l-13 28l88 150q-175 22 -278 144.5t-103 322.5z" />
<glyph unicode="&#xe8;" horiz-adv-x="1134" d="M61 459q0 105 24.5 204.5t74.5 187t120 153.5t167.5 104.5t209.5 38.5q232 0 343.5 -140t74.5 -417q-7 -69 -41.5 -99t-103.5 -30h-535q-1 -99 50 -148t147 -49q151 0 291 49l104 35l29 -258l-107 -37q-189 -65 -370 -65q-227 0 -353 123t-125 348zM326 1563h417 l125 -129q47 -47 47 -113q0 -42 -30.5 -72t-79.5 -30q-74 0 -141 57zM422 682h332q16 98 -16.5 157.5t-119.5 59.5q-72 0 -124 -57t-72 -160z" />
<glyph unicode="&#xe9;" horiz-adv-x="1134" d="M61 459q0 105 24.5 204.5t74.5 187t120 153.5t167.5 104.5t209.5 38.5q232 0 343.5 -140t74.5 -417q-7 -69 -41.5 -99t-103.5 -30h-535q-1 -99 50 -148t147 -49q151 0 291 49l104 35l29 -258l-107 -37q-189 -65 -370 -65q-227 0 -353 123t-125 348zM422 682h332 q16 98 -16.5 157.5t-119.5 59.5q-72 0 -124 -57t-72 -160zM492 1319q0 60 63 115l147 129h420l-372 -281q-82 -59 -158 -59q-49 0 -74.5 29t-25.5 67z" />
<glyph unicode="&#xea;" horiz-adv-x="1134" d="M61 459q0 105 24.5 204.5t74.5 187t120 153.5t167.5 104.5t209.5 38.5q232 0 343.5 -140t74.5 -417q-7 -69 -41.5 -99t-103.5 -30h-535q-1 -99 50 -148t147 -49q151 0 291 49l104 35l29 -258l-107 -37q-189 -65 -370 -65q-227 0 -353 123t-125 348zM266 1239l258 260 q74 74 193 74q118 0 172 -74l188 -260h-321l-66 117l-88 -117h-336zM422 682h332q16 98 -16.5 157.5t-119.5 59.5q-72 0 -124 -57t-72 -160z" />
<glyph unicode="&#xeb;" horiz-adv-x="1134" d="M61 459q0 105 24.5 204.5t74.5 187t120 153.5t167.5 104.5t209.5 38.5q232 0 343.5 -140t74.5 -417q-7 -69 -41.5 -99t-103.5 -30h-535q-1 -99 50 -148t147 -49q151 0 291 49l104 35l29 -258l-107 -37q-189 -65 -370 -65q-227 0 -353 123t-125 348zM311 1382 q0 93 56.5 149t146.5 56q73 0 113.5 -36.5t40.5 -102.5q0 -90 -56.5 -147.5t-146.5 -57.5q-73 0 -113.5 36.5t-40.5 102.5zM422 682h332q16 98 -16.5 157.5t-119.5 59.5q-72 0 -124 -57t-72 -160zM735 1382q0 93 57 149t148 56q73 0 112.5 -36.5t39.5 -102.5 q0 -91 -54.5 -148t-144.5 -57q-75 0 -116.5 36.5t-41.5 102.5z" />
<glyph unicode="&#xec;" horiz-adv-x="538" d="M4 1563h418l125 -129q47 -47 47 -113q0 -41 -31 -71.5t-80 -30.5q-74 0 -141 57zM16 0l158 1130h342l-158 -1130h-342z" />
<glyph unicode="&#xed;" horiz-adv-x="538" d="M16 0l158 1130h342l-158 -1130h-342zM135 1319q0 59 64 115l147 129h420l-373 -281q-82 -59 -157 -59q-49 0 -75 29t-26 67z" />
<glyph unicode="&#xee;" horiz-adv-x="538" d="M-55 1239l258 260q74 74 192 74t172 -74l189 -260h-322l-65 117l-88 -117h-336zM16 0l158 1130h342l-158 -1130h-342z" />
<glyph unicode="&#xef;" horiz-adv-x="538" d="M-4 1382q0 93 56.5 149t146.5 56q73 0 113 -36.5t40 -102.5q0 -90 -56 -147.5t-146 -57.5q-73 0 -113.5 36.5t-40.5 102.5zM16 0l158 1130h342l-158 -1130h-342zM420 1382q0 93 57 149t148 56q73 0 112 -36.5t39 -102.5q0 -92 -54 -148.5t-144 -56.5q-75 0 -116.5 36.5 t-41.5 102.5z" />
<glyph unicode="&#xf0;" horiz-adv-x="1210" d="M61 444q0 275 148 435.5t383 160.5q36 0 69.5 -3.5t60 -10t44 -12t35.5 -12t20 -7.5l10 70q13 86 -2 149l-276 -133l22 166l177 84q-55 39 -144 39h-104l26 193h193q201 0 321 -93l238 113l-25 -164l-120 -59q68 -133 41 -338q-22 -141 -76 -522q-35 -241 -183.5 -375.5 t-400.5 -134.5q-218 0 -337.5 122.5t-119.5 331.5zM418 428q0 -180 135 -180q83 0 131 65.5t68 202.5l32 242q-81 26 -147 26q-108 0 -163.5 -98.5t-55.5 -257.5z" />
<glyph unicode="&#xf1;" horiz-adv-x="1136" d="M16 0l123 895q19 142 180 195q189 53 353 53q233 0 328.5 -106t68.5 -296l-104 -741h-349l99 709q10 64 -11 99.5t-86 35.5q-50 0 -135 -25l-112 -819h-355zM242 1337q58 121 140.5 184.5t178.5 63.5q52 0 87 -12t75 -43l49 -37q33 -33 70 -33q64 0 131 125l143 -112 q-61 -128 -145 -188t-178 -60q-87 0 -156 57l-47 37q-35 31 -72 31q-66 0 -131 -119z" />
<glyph unicode="&#xf2;" horiz-adv-x="1196" d="M59 459q0 159 48 289.5t131.5 216t197.5 132t246 46.5q216 0 336.5 -122t120.5 -341q0 -109 -25.5 -210.5t-77.5 -189t-125 -152.5t-174.5 -102.5t-220.5 -37.5q-217 0 -337 124.5t-120 346.5zM362 1563h418l125 -129q47 -47 47 -113q0 -42 -30.5 -72t-79.5 -30 q-75 0 -142 57zM414 449q0 -101 36.5 -154t106.5 -53q51 0 92 31.5t66 80t41.5 109.5t23 116t6.5 105q0 101 -37 154t-108 53q-98 0 -162.5 -120t-64.5 -322z" />
<glyph unicode="&#xf3;" horiz-adv-x="1196" d="M59 459q0 159 48 289.5t131.5 216t197.5 132t246 46.5q216 0 336.5 -122t120.5 -341q0 -109 -25.5 -210.5t-77.5 -189t-125 -152.5t-174.5 -102.5t-220.5 -37.5q-217 0 -337 124.5t-120 346.5zM414 449q0 -101 36.5 -154t106.5 -53q51 0 92 31.5t66 80t41.5 109.5t23 116 t6.5 105q0 101 -37 154t-108 53q-98 0 -162.5 -120t-64.5 -322zM510 1319q0 60 63 115l148 129h420l-373 -281q-82 -59 -158 -59q-49 0 -74.5 29t-25.5 67z" />
<glyph unicode="&#xf4;" horiz-adv-x="1196" d="M59 459q0 159 48 289.5t131.5 216t197.5 132t246 46.5q216 0 336.5 -122t120.5 -341q0 -109 -25.5 -210.5t-77.5 -189t-125 -152.5t-174.5 -102.5t-220.5 -37.5q-217 0 -337 124.5t-120 346.5zM274 1239l258 260q74 74 193 74q118 0 172 -74l188 -260h-321l-66 117 l-88 -117h-336zM414 449q0 -101 36.5 -154t106.5 -53q51 0 92 31.5t66 80t41.5 109.5t23 116t6.5 105q0 101 -37 154t-108 53q-98 0 -162.5 -120t-64.5 -322z" />
<glyph unicode="&#xf5;" horiz-adv-x="1196" d="M59 459q0 159 48 289.5t131.5 216t197.5 132t246 46.5q216 0 336.5 -122t120.5 -341q0 -109 -25.5 -210.5t-77.5 -189t-125 -152.5t-174.5 -102.5t-220.5 -37.5q-217 0 -337 124.5t-120 346.5zM266 1337q58 121 141 184.5t179 63.5q52 0 87 -12t75 -43l49 -37 q33 -33 69 -33q64 0 131 125l144 -112q-61 -128 -145.5 -188t-178.5 -60q-86 0 -155 57l-48 37q-35 31 -71 31q-66 0 -131 -119zM414 449q0 -101 36.5 -154t106.5 -53q51 0 92 31.5t66 80t41.5 109.5t23 116t6.5 105q0 101 -37 154t-108 53q-98 0 -162.5 -120t-64.5 -322z " />
<glyph unicode="&#xf6;" horiz-adv-x="1196" d="M59 459q0 159 48 289.5t131.5 216t197.5 132t246 46.5q216 0 336.5 -122t120.5 -341q0 -109 -25.5 -210.5t-77.5 -189t-125 -152.5t-174.5 -102.5t-220.5 -37.5q-217 0 -337 124.5t-120 346.5zM322 1382q0 93 56 149t146 56q73 0 113.5 -36.5t40.5 -102.5 q0 -90 -56.5 -147.5t-146.5 -57.5q-73 0 -113 36.5t-40 102.5zM414 449q0 -101 36.5 -154t106.5 -53q51 0 92 31.5t66 80t41.5 109.5t23 116t6.5 105q0 101 -37 154t-108 53q-98 0 -162.5 -120t-64.5 -322zM745 1382q0 93 57 149t148 56q73 0 112.5 -36.5t39.5 -102.5 q0 -91 -54.5 -148t-144.5 -57q-75 0 -116.5 36.5t-41.5 102.5z" />
<glyph unicode="&#xf7;" d="M84 463v274h973v-274h-973zM377 205q0 78 51 125t139 47q90 0 141.5 -47t51.5 -125t-51.5 -125t-141.5 -47q-88 0 -139 47t-51 125zM377 993q0 78 51 126t139 48q89 0 141 -48t52 -126q0 -77 -51.5 -123.5t-141.5 -46.5q-88 0 -139 46.5t-51 123.5z" />
<glyph unicode="&#xf8;" horiz-adv-x="1196" d="M47 -104l137 210q-125 122 -125 353q0 159 48 289.5t131.5 216t197.5 132t246 46.5q83 0 160 -23l67 105h236l-129 -201q123 -123 123 -344q0 -109 -25.5 -210.5t-77.5 -189t-125 -152.5t-174.5 -102.5t-220.5 -37.5q-86 0 -156 18l-71 -110h-242zM414 459l274 424 q-19 8 -47 8q-96 0 -161 -117t-66 -315zM514 246q14 -4 43 -4q61 0 107 43.5t71 113t37 137t14 132.5z" />
<glyph unicode="&#xf9;" horiz-adv-x="1136" d="M68 389l104 741h348l-98 -708q-8 -64 12.5 -98.5t83.5 -34.5q56 0 137 22l115 819h352l-127 -894q-16 -140 -174 -193q-186 -55 -352 -55q-234 0 -330.5 106t-70.5 295zM264 1563h418l125 -129q47 -47 47 -113q0 -41 -31 -71.5t-80 -30.5q-74 0 -141 57z" />
<glyph unicode="&#xfa;" horiz-adv-x="1136" d="M68 389l104 741h348l-98 -708q-8 -64 12.5 -98.5t83.5 -34.5q56 0 137 22l115 819h352l-127 -894q-16 -140 -174 -193q-186 -55 -352 -55q-234 0 -330.5 106t-70.5 295zM481 1319q0 59 64 115l147 129h420l-373 -281q-82 -59 -157 -59q-49 0 -75 29t-26 67z" />
<glyph unicode="&#xfb;" horiz-adv-x="1136" d="M68 389l104 741h348l-98 -708q-8 -64 12.5 -98.5t83.5 -34.5q56 0 137 22l115 819h352l-127 -894q-16 -140 -174 -193q-186 -55 -352 -55q-234 0 -330.5 106t-70.5 295zM250 1239l258 260q74 74 192 74t172 -74l189 -260h-322l-65 117l-88 -117h-336z" />
<glyph unicode="&#xfc;" horiz-adv-x="1136" d="M68 389l104 741h348l-98 -708q-8 -64 12.5 -98.5t83.5 -34.5q56 0 137 22l115 819h352l-127 -894q-16 -140 -174 -193q-186 -55 -352 -55q-234 0 -330.5 106t-70.5 295zM295 1382q0 93 56.5 149t146.5 56q73 0 113 -36.5t40 -102.5q0 -90 -56 -147.5t-146 -57.5 q-73 0 -113.5 36.5t-40.5 102.5zM719 1382q0 93 57 149t148 56q73 0 112 -36.5t39 -102.5q0 -92 -54 -148.5t-144 -56.5q-75 0 -116.5 36.5t-41.5 102.5z" />
<glyph unicode="&#xfd;" horiz-adv-x="1157" d="M-31 -324l74 252q96 -34 170 -34q97 0 133 98l12 35l-247 1103h378l95 -677l250 677h362l-530 -1196q-66 -150 -173 -229.5t-268 -79.5q-123 0 -256 51zM555 1319q0 60 63 115l148 129h420l-373 -281q-82 -59 -158 -59q-49 0 -74.5 29t-25.5 67z" />
<glyph unicode="&#xfe;" horiz-adv-x="1167" d="M-37 -369l268 1932h351l-62 -455q108 31 193 31q199 0 295 -120.5t96 -328.5q0 -316 -153 -506t-408 -190q-28 0 -61 4.5t-54 9.5t-41 10l-20 5l-56 -392h-348zM406 295q70 -23 122 -23q67 0 115 38.5t72 102t34.5 127t10.5 130.5q0 94 -36 139t-114 45q-49 0 -131 -23z " />
<glyph unicode="&#xff;" horiz-adv-x="1157" d="M-31 -324l74 252q96 -34 170 -34q97 0 133 98l12 35l-247 1103h378l95 -677l250 677h362l-530 -1196q-66 -150 -173 -229.5t-268 -79.5q-123 0 -256 51zM305 1382q0 93 56.5 149t146.5 56q73 0 113.5 -36.5t40.5 -102.5q0 -90 -56.5 -147.5t-146.5 -57.5 q-73 0 -113.5 36.5t-40.5 102.5zM729 1382q0 93 57 149t148 56q73 0 112 -36.5t39 -102.5q0 -92 -54 -148.5t-144 -56.5q-75 0 -116.5 36.5t-41.5 102.5z" />
<glyph unicode="&#x100;" horiz-adv-x="1421" d="M-55 0l592 1341q84 201 321 201q230 0 260 -199l197 -1343h-420l-25 236h-399l-92 -236h-434zM485 1608l29 217h758l-29 -217h-758zM584 547h264l-57 538z" />
<glyph unicode="&#x101;" horiz-adv-x="1173" d="M59 444q0 303 152 480.5t403 177.5q23 0 48.5 -3t47 -7t38 -8t29.5 -7.5t14 -3.5l12 76h348l-129 -887l94 -67l-153 -228l-89 53q-63 36 -153 17l-51 -12q-147 -31 -207 -31q-192 -1 -298 121.5t-106 328.5zM328 1264l32 256h744l-33 -256h-743zM403 463q0 -199 152 -199 q48 0 68 4l51 11l78 528q-67 22 -121 22q-64 0 -111 -35t-71 -92.5t-35 -117t-11 -121.5z" />
<glyph unicode="&#x102;" horiz-adv-x="1421" d="M-55 0l592 1341q84 201 321 201q230 0 260 -199l197 -1343h-420l-25 236h-399l-92 -236h-434zM504 1874h301q-8 -50 15.5 -79.5t70.5 -29.5t79 29.5t38 79.5h297q-12 -85 -73.5 -149.5t-155 -98t-204.5 -33.5q-174 0 -280 77t-88 204zM584 547h264l-57 538z" />
<glyph unicode="&#x103;" horiz-adv-x="1173" d="M59 444q0 303 152 480.5t403 177.5q23 0 48.5 -3t47 -7t38 -8t29.5 -7.5t14 -3.5l12 76h348l-129 -887l94 -67l-153 -228l-89 53q-63 36 -153 17l-51 -12q-147 -31 -207 -31q-192 -1 -298 121.5t-106 328.5zM350 1563h293q-9 -65 13 -102.5t67 -37.5t76.5 37.5 t40.5 102.5h293q-21 -153 -142.5 -244.5t-288.5 -91.5q-110 0 -194 40t-127.5 117.5t-30.5 178.5zM403 463q0 -199 152 -199q48 0 68 4l51 11l78 528q-67 22 -121 22q-64 0 -111 -35t-71 -92.5t-35 -117t-11 -121.5z" />
<glyph unicode="&#x104;" horiz-adv-x="1421" d="M-55 0l592 1341q84 201 321 201q230 0 260 -199l197 -1343h-4q-97 -59 -97 -119q0 -59 74 -59q93 0 205 45l29 -162q-141 -55 -275 -55q-107 0 -174 44t-67 124q0 116 129 182h-240l-25 236h-399l-92 -236h-434zM584 547h264l-57 538z" />
<glyph unicode="&#x105;" horiz-adv-x="1234" d="M57 444q0 304 152 481t405 177q28 0 60 -4.5t54 -9.5t41.5 -10t21.5 -5l10 76h348l-129 -887l94 -67l-151 -228q-95 -55 -95 -114q0 -58 72 -58q95 0 207 45l29 -164q-136 -53 -275 -53q-109 0 -175.5 46.5t-66.5 135.5q0 86 50.5 143.5t132.5 86.5q-50 16 -123 2 l-49 -12q-147 -31 -209 -31q-192 -1 -298 121.5t-106 328.5zM403 463q0 -199 150 -199q48 0 68 4l51 11l78 528q-65 22 -121 22q-64 0 -110.5 -35t-70.5 -92.5t-34.5 -117t-10.5 -121.5z" />
<glyph unicode="&#x106;" horiz-adv-x="1333" d="M90 604q0 222 63.5 401.5t173.5 294.5t255.5 176.5t312.5 61.5q191 0 385 -72l109 -41l-95 -344l-114 39q-146 51 -277 51q-166 0 -266 -138t-100 -390q0 -289 251 -289q141 0 295 54l121 45l35 -349l-121 -41q-233 -79 -436 -79q-277 0 -434.5 159.5t-157.5 460.5z M745 1673q0 59 58 99l143 100h443l-385 -232q-76 -47 -156 -47q-53 0 -78 23t-25 57z" />
<glyph unicode="&#x107;" horiz-adv-x="1028" d="M59 459q0 162 47 293.5t128.5 216t189 129.5t231.5 45q164 0 297 -51l80 -31l-78 -285l-77 31q-122 45 -211 45q-66 0 -116 -33.5t-78.5 -88.5t-42 -117.5t-13.5 -129.5q0 -207 172 -207q120 0 237 46l76 28l33 -280l-92 -31q-157 -53 -324 -53q-208 0 -333.5 125.5 t-125.5 347.5zM459 1319q0 60 63 115l148 129h420l-373 -281q-82 -59 -158 -59q-49 0 -74.5 29t-25.5 67z" />
<glyph unicode="&#x108;" horiz-adv-x="1333" d="M90 604q0 222 63.5 401.5t173.5 294.5t255.5 176.5t312.5 61.5q191 0 385 -72l109 -41l-95 -344l-114 39q-146 51 -277 51q-166 0 -266 -138t-100 -390q0 -289 251 -289q141 0 295 54l121 45l35 -349l-121 -41q-233 -79 -436 -79q-277 0 -434.5 159.5t-157.5 460.5z M494 1602l268 217q69 59 194 59q122 0 181 -59l211 -217h-340l-72 92l-90 -92h-352z" />
<glyph unicode="&#x109;" horiz-adv-x="1028" d="M59 459q0 162 47 293.5t128.5 216t189 129.5t231.5 45q164 0 297 -51l80 -31l-78 -285l-77 31q-122 45 -211 45q-66 0 -116 -33.5t-78.5 -88.5t-42 -117.5t-13.5 -129.5q0 -207 172 -207q120 0 237 46l76 28l33 -280l-92 -31q-157 -53 -324 -53q-208 0 -333.5 125.5 t-125.5 347.5zM256 1239l258 260q74 74 193 74q118 0 172 -74l188 -260h-322l-65 117l-88 -117h-336z" />
<glyph unicode="&#x10a;" horiz-adv-x="1333" d="M90 604q0 222 63.5 401.5t173.5 294.5t255.5 176.5t312.5 61.5q191 0 385 -72l109 -41l-95 -344l-114 39q-146 51 -277 51q-166 0 -266 -138t-100 -390q0 -289 251 -289q141 0 295 54l121 45l35 -349l-121 -41q-233 -79 -436 -79q-277 0 -434.5 159.5t-157.5 460.5z M766 1724q0 82 59 131.5t160 49.5q84 0 130 -35t46 -96q0 -81 -64.5 -131t-156.5 -50q-84 0 -129 35t-45 96z" />
<glyph unicode="&#x10b;" horiz-adv-x="1028" d="M59 459q0 162 47 293.5t128.5 216t189 129.5t231.5 45q164 0 297 -51l80 -31l-78 -285l-77 31q-122 45 -211 45q-66 0 -116 -33.5t-78.5 -88.5t-42 -117.5t-13.5 -129.5q0 -207 172 -207q120 0 237 46l76 28l33 -280l-92 -31q-157 -53 -324 -53q-208 0 -333.5 125.5 t-125.5 347.5zM516 1382q0 94 59.5 149.5t157.5 55.5q85 0 127.5 -38t42.5 -107q0 -92 -61.5 -147.5t-157.5 -55.5q-82 0 -125 37.5t-43 105.5z" />
<glyph unicode="&#x10c;" horiz-adv-x="1333" d="M90 604q0 222 63.5 401.5t173.5 294.5t255.5 176.5t312.5 61.5q191 0 385 -72l109 -41l-95 -344l-114 39q-146 51 -277 51q-166 0 -266 -138t-100 -390q0 -289 251 -289q141 0 295 54l121 45l35 -349l-121 -41q-233 -79 -436 -79q-277 0 -434.5 159.5t-157.5 460.5z M537 1870h342l71 -94l90 94h353l-269 -217q-70 -60 -194 -60q-123 0 -180 60z" />
<glyph unicode="&#x10d;" horiz-adv-x="1028" d="M59 459q0 162 47 293.5t128.5 216t189 129.5t231.5 45q164 0 297 -51l80 -31l-78 -285l-77 31q-122 45 -211 45q-66 0 -116 -33.5t-78.5 -88.5t-42 -117.5t-13.5 -129.5q0 -207 172 -207q120 0 237 46l76 28l33 -280l-92 -31q-157 -53 -324 -53q-208 0 -333.5 125.5 t-125.5 347.5zM303 1563h326l63 -119l90 119h330l-256 -263q-68 -71 -190 -71q-116 0 -174 71z" />
<glyph unicode="&#x10e;" horiz-adv-x="1429" d="M47 203l156 1118q13 95 76.5 149t160.5 54h367q281 0 437.5 -163t156.5 -458q0 -210 -62.5 -382t-171.5 -285t-256.5 -174.5t-318.5 -61.5h-365q-92 0 -143 53.5t-37 149.5zM440 1870h342l72 -94l90 94h352l-268 -217q-70 -60 -194 -60t-181 60zM494 330h137q73 0 133 35 t99 91t65 130t37.5 149t11.5 150q0 152 -61 231.5t-175 79.5h-127z" />
<glyph unicode="&#x10f;" horiz-adv-x="1521" d="M59 453q0 313 152.5 499.5t409.5 186.5q37 0 79.5 -7.5t65 -13.5t31.5 -10l63 455h346l-182 -1332q-17 -125 -141 -182q-138 -61 -367 -61q-218 0 -337.5 124t-119.5 341zM403 469q0 -205 160 -205q58 0 117 12l78 560q-67 22 -123 22q-65 0 -112.5 -37.5t-72 -98 t-36 -124t-11.5 -129.5zM1251 1225l103 352h321l-143 -416q-42 -117 -156 -117q-88 0 -117.5 52t-7.5 129z" />
<glyph unicode="&#x110;" horiz-adv-x="1466" d="M41 664l31 213h102l64 444q13 95 77 149t162 54h365q281 0 437.5 -163t156.5 -458q0 -210 -62.5 -382t-171.5 -285t-256.5 -174.5t-318.5 -61.5h-365q-90 0 -141.5 53.5t-38.5 149.5l63 461h-104zM528 330h140q90 0 159.5 52t108.5 136.5t58.5 177.5t19.5 189 q0 152 -61 231.5t-175 79.5h-129l-45 -319h246l-31 -213h-246z" />
<glyph unicode="&#x111;" horiz-adv-x="1167" d="M59 453q0 313 152.5 499.5t409.5 186.5q37 0 79.5 -7.5t65 -13.5t31.5 -10l14 111h-285l35 223h281l18 121h346l-16 -121h104l-34 -223h-101l-135 -988q-17 -125 -141 -182q-138 -61 -367 -61q-218 0 -337.5 124t-119.5 341zM403 469q0 -205 160 -205q58 0 117 12l78 560 q-67 22 -123 22q-65 0 -112.5 -37.5t-72 -98t-36 -124t-11.5 -129.5z" />
<glyph unicode="&#x112;" horiz-adv-x="1230" d="M47 203l156 1118q14 95 76.5 149t160.5 54h846l-43 -318h-629l-39 -278h549l-41 -305h-551l-43 -306h633l-45 -317h-852q-98 0 -145 53.5t-33 149.5zM414 1608l28 217h758l-29 -217h-757z" />
<glyph unicode="&#x113;" horiz-adv-x="1134" d="M61 459q0 105 24.5 204.5t74.5 187t120 153.5t167.5 104.5t209.5 38.5q232 0 343.5 -140t74.5 -417q-7 -69 -41.5 -99t-103.5 -30h-535q-1 -99 50 -148t147 -49q151 0 291 49l104 35l29 -258l-107 -37q-189 -65 -370 -65q-227 0 -353 123t-125 348zM303 1264l33 256h743 l-32 -256h-744zM422 682h332q16 98 -16.5 157.5t-119.5 59.5q-72 0 -124 -57t-72 -160z" />
<glyph unicode="&#x114;" horiz-adv-x="1230" d="M47 203l156 1118q14 95 76.5 149t160.5 54h846l-43 -318h-629l-39 -278h549l-41 -305h-551l-43 -306h633l-45 -317h-852q-98 0 -145 53.5t-33 149.5zM434 1874h301q-8 -50 15.5 -79.5t70.5 -29.5t79 29.5t38 79.5h297q-12 -85 -73.5 -149.5t-154.5 -98t-204 -33.5 q-174 0 -280.5 77t-88.5 204z" />
<glyph unicode="&#x115;" horiz-adv-x="1134" d="M61 459q0 105 24.5 204.5t74.5 187t120 153.5t167.5 104.5t209.5 38.5q232 0 343.5 -140t74.5 -417q-7 -69 -41.5 -99t-103.5 -30h-535q-1 -99 50 -148t147 -49q151 0 291 49l104 35l29 -258l-107 -37q-189 -65 -370 -65q-227 0 -353 123t-125 348zM317 1563h293 q-9 -65 13 -102.5t67 -37.5t76.5 37.5t40.5 102.5h293q-21 -153 -142 -244.5t-288 -91.5q-110 0 -194.5 40t-128 117.5t-30.5 178.5zM422 682h332q16 98 -16.5 157.5t-119.5 59.5q-72 0 -124 -57t-72 -160z" />
<glyph unicode="&#x116;" horiz-adv-x="1230" d="M47 203l156 1118q14 95 76.5 149t160.5 54h846l-43 -318h-629l-39 -278h549l-41 -305h-551l-43 -306h633l-45 -317h-852q-98 0 -145 53.5t-33 149.5zM621 1724q0 82 59 131.5t160 49.5q84 0 130 -35t46 -96q0 -81 -64.5 -131t-156.5 -50q-84 0 -129 35t-45 96z" />
<glyph unicode="&#x117;" horiz-adv-x="1134" d="M61 459q0 105 24.5 204.5t74.5 187t120 153.5t167.5 104.5t209.5 38.5q232 0 343.5 -140t74.5 -417q-7 -69 -41.5 -99t-103.5 -30h-535q-1 -99 50 -148t147 -49q151 0 291 49l104 35l29 -258l-107 -37q-189 -65 -370 -65q-227 0 -353 123t-125 348zM422 682h332 q16 98 -16.5 157.5t-119.5 59.5q-72 0 -124 -57t-72 -160zM506 1382q0 94 59.5 149.5t157.5 55.5q85 0 127.5 -38t42.5 -107q0 -92 -61.5 -147.5t-157.5 -55.5q-82 0 -125 37.5t-43 105.5z" />
<glyph unicode="&#x118;" horiz-adv-x="1230" d="M47 203l156 1118q14 95 76.5 149t160.5 54h846l-43 -318h-629l-39 -278h549l-41 -305h-551l-43 -306h633l-45 -317h-104q-96 -58 -96 -119q0 -59 73 -59q93 0 205 45l29 -162q-141 -55 -275 -55q-107 0 -174 44t-67 124q0 116 129 182h-572q-98 0 -145 53.5t-33 149.5z " />
<glyph unicode="&#x119;" horiz-adv-x="1134" d="M61 459q0 105 24.5 204.5t74.5 187t120 153.5t167.5 104.5t209.5 38.5q232 0 343.5 -140t74.5 -417q-7 -69 -41.5 -99t-103.5 -30h-535q-1 -99 50 -148t147 -49q151 0 291 49l104 35l29 -258l-107 -37q-56 -18 -73 -22q-84 -55 -84 -113q0 -59 73 -59q93 0 205 45 l29 -162q-141 -55 -275 -55q-107 0 -174 44t-67 124q0 81 61 135q-12 0 -33.5 -1t-31.5 -1q-227 0 -353 123t-125 348zM422 682h332q16 98 -16.5 157.5t-119.5 59.5q-72 0 -124 -57t-72 -160z" />
<glyph unicode="&#x11a;" horiz-adv-x="1230" d="M47 203l156 1118q14 95 76.5 149t160.5 54h846l-43 -318h-629l-39 -278h549l-41 -305h-551l-43 -306h633l-45 -317h-852q-98 0 -145 53.5t-33 149.5zM408 1870h342l71 -94l90 94h353l-269 -217q-70 -60 -194 -60q-123 0 -180 60z" />
<glyph unicode="&#x11b;" horiz-adv-x="1134" d="M61 459q0 105 24.5 204.5t74.5 187t120 153.5t167.5 104.5t209.5 38.5q232 0 343.5 -140t74.5 -417q-7 -69 -41.5 -99t-103.5 -30h-535q-1 -99 50 -148t147 -49q151 0 291 49l104 35l29 -258l-107 -37q-189 -65 -370 -65q-227 0 -353 123t-125 348zM301 1563h326l63 -119 l90 119h330l-256 -263q-68 -71 -190 -71q-117 0 -175 71zM422 682h332q16 98 -16.5 157.5t-119.5 59.5q-72 0 -124 -57t-72 -160z" />
<glyph unicode="&#x11c;" horiz-adv-x="1443" d="M88 608q0 146 33.5 281.5t102 253t165 204.5t231 137t291.5 50q202 0 418 -72l113 -39l-99 -350l-120 41q-157 57 -314 57q-84 0 -152.5 -31.5t-114 -85t-76.5 -125.5t-44.5 -151t-13.5 -164q0 -311 278 -311q36 0 69 3t48 6l15 3l34 234h-241l41 295h426 q105 0 149 -54.5t31 -148.5l-51 -358q-21 -155 -160 -213q-111 -43 -214 -62.5t-233 -19.5q-292 0 -452 160.5t-160 459.5zM481 1602l269 217q69 59 194 59q121 0 180 -59l211 -217h-340l-71 92l-90 -92h-353z" />
<glyph unicode="&#x11d;" horiz-adv-x="1193" d="M-10 -57q0 131 104 241l99 107q51 58 51 108q0 25 -15.5 50t-37.5 50t-44 54.5t-37.5 74.5t-15.5 99q0 79 28 145t77 112t115.5 78t143 47t160.5 15h105q29 0 56.5 2.5t46 5t43.5 8.5t35.5 9t35 11t29.5 9l211 66l51 -250l-189 -45q6 -6 15 -21.5t19.5 -51t10.5 -74.5 q0 -78 -28 -141.5t-76 -106t-114 -71t-140.5 -41.5t-157.5 -13l-84 6q11 -11 11 -53q0 -27 -12 -50t-23 -34h242q186 0 275 -76t89 -203q0 -101 -47.5 -176.5t-130 -118.5t-182.5 -63.5t-217 -20.5q-241 0 -371.5 79.5t-130.5 232.5zM244 1264l258 260q73 73 192 73t172 -73 l189 -260h-322l-65 116l-88 -116h-336zM297 -39q0 -111 211 -111q114 0 184 35t70 101q0 41 -21.5 57t-74.5 16h-332q-11 -9 -24 -36.5t-13 -61.5zM422 737q0 -116 147 -116q82 0 137.5 41.5t55.5 119.5q0 115 -154 115q-81 0 -133.5 -40t-52.5 -120z" />
<glyph unicode="&#x11e;" horiz-adv-x="1443" d="M88 608q0 146 33.5 281.5t102 253t165 204.5t231 137t291.5 50q202 0 418 -72l113 -39l-99 -350l-120 41q-157 57 -314 57q-84 0 -152.5 -31.5t-114 -85t-76.5 -125.5t-44.5 -151t-13.5 -164q0 -311 278 -311q36 0 69 3t48 6l15 3l34 234h-241l41 295h426 q105 0 149 -54.5t31 -148.5l-51 -358q-21 -155 -160 -213q-111 -43 -214 -62.5t-233 -19.5q-292 0 -452 160.5t-160 459.5zM559 1874h301q-8 -50 15.5 -79.5t70.5 -29.5t79 29.5t38 79.5h297q-12 -85 -73.5 -149.5t-154.5 -98t-204 -33.5q-174 0 -280.5 77t-88.5 204z" />
<glyph unicode="&#x11f;" horiz-adv-x="1193" d="M-10 -57q0 131 104 241l99 107q51 58 51 108q0 25 -15.5 50t-37.5 50t-44 54.5t-37.5 74.5t-15.5 99q0 79 28 145t77 112t115.5 78t143 47t160.5 15h105q29 0 56.5 2.5t46 5t43.5 8.5t35.5 9t35 11t29.5 9l211 66l51 -250l-189 -45q6 -6 15 -21.5t19.5 -51t10.5 -74.5 q0 -78 -28 -141.5t-76 -106t-114 -71t-140.5 -41.5t-157.5 -13l-84 6q11 -11 11 -53q0 -27 -12 -50t-23 -34h242q186 0 275 -76t89 -203q0 -101 -47.5 -176.5t-130 -118.5t-182.5 -63.5t-217 -20.5q-241 0 -371.5 79.5t-130.5 232.5zM297 -39q0 -111 211 -111q114 0 184 35 t70 101q0 41 -21.5 57t-74.5 16h-332q-11 -9 -24 -36.5t-13 -61.5zM303 1563h293q-9 -65 13 -102.5t67 -37.5t76.5 37.5t40.5 102.5h292q-21 -153 -142 -244.5t-288 -91.5q-110 0 -194 40t-127.5 117.5t-30.5 178.5zM422 737q0 -116 147 -116q82 0 137.5 41.5t55.5 119.5 q0 115 -154 115q-81 0 -133.5 -40t-52.5 -120z" />
<glyph unicode="&#x120;" horiz-adv-x="1443" d="M88 608q0 146 33.5 281.5t102 253t165 204.5t231 137t291.5 50q202 0 418 -72l113 -39l-99 -350l-120 41q-157 57 -314 57q-84 0 -152.5 -31.5t-114 -85t-76.5 -125.5t-44.5 -151t-13.5 -164q0 -311 278 -311q36 0 69 3t48 6l15 3l34 234h-241l41 295h426 q105 0 149 -54.5t31 -148.5l-51 -358q-21 -155 -160 -213q-111 -43 -214 -62.5t-233 -19.5q-292 0 -452 160.5t-160 459.5zM752 1724q0 82 59 131.5t160 49.5q84 0 130 -35t46 -96q0 -81 -64.5 -131t-156.5 -50q-84 0 -129 35t-45 96z" />
<glyph unicode="&#x121;" horiz-adv-x="1193" d="M-10 -57q0 131 104 241l99 107q51 58 51 108q0 25 -15.5 50t-37.5 50t-44 54.5t-37.5 74.5t-15.5 99q0 79 28 145t77 112t115.5 78t143 47t160.5 15h105q29 0 56.5 2.5t46 5t43.5 8.5t35.5 9t35 11t29.5 9l211 66l51 -250l-189 -45q6 -6 15 -21.5t19.5 -51t10.5 -74.5 q0 -78 -28 -141.5t-76 -106t-114 -71t-140.5 -41.5t-157.5 -13l-84 6q11 -11 11 -53q0 -27 -12 -50t-23 -34h242q186 0 275 -76t89 -203q0 -101 -47.5 -176.5t-130 -118.5t-182.5 -63.5t-217 -20.5q-241 0 -371.5 79.5t-130.5 232.5zM297 -39q0 -111 211 -111q114 0 184 35 t70 101q0 41 -21.5 57t-74.5 16h-332q-11 -9 -24 -36.5t-13 -61.5zM422 737q0 -116 147 -116q82 0 137.5 41.5t55.5 119.5q0 115 -154 115q-81 0 -133.5 -40t-52.5 -120zM487 1382q0 94 60 149.5t158 55.5q84 0 126.5 -38t42.5 -107q0 -92 -61.5 -147.5t-157.5 -55.5 q-82 0 -125 37.5t-43 105.5z" />
<glyph unicode="&#x122;" horiz-adv-x="1443" d="M88 608q0 146 33.5 281.5t102 253t165 204.5t231 137t291.5 50q202 0 418 -72l113 -39l-99 -350l-120 41q-157 57 -314 57q-84 0 -152.5 -31.5t-114 -85t-76.5 -125.5t-44.5 -151t-13.5 -164q0 -311 278 -311q36 0 69 3t48 6l15 3l34 234h-241l41 295h426 q105 0 149 -54.5t31 -148.5l-51 -358q-21 -155 -160 -213q-111 -43 -214 -62.5t-233 -19.5q-292 0 -452 160.5t-160 459.5zM461 -262l74 180h348l-113 -246q-25 -57 -66.5 -86.5t-113.5 -29.5q-94 0 -127 52.5t-2 129.5z" />
<glyph unicode="&#x123;" horiz-adv-x="1193" d="M-10 -57q0 131 104 241l99 107q51 58 51 108q0 25 -15.5 50t-37.5 50t-44 54.5t-37.5 74.5t-15.5 99q0 79 28 145t77 112t115.5 78t143 47t160.5 15h105q29 0 56.5 2.5t46 5t43.5 8.5t35.5 9t35 11t29.5 9l211 66l51 -250l-189 -45q6 -6 15 -21.5t19.5 -51t10.5 -74.5 q0 -78 -28 -141.5t-76 -106t-114 -71t-140.5 -41.5t-157.5 -13l-84 6q11 -11 11 -53q0 -27 -12 -50t-23 -34h242q186 0 275 -76t89 -203q0 -101 -47.5 -176.5t-130 -118.5t-182.5 -63.5t-217 -20.5q-241 0 -371.5 79.5t-130.5 232.5zM297 -39q0 -111 211 -111q114 0 184 35 t70 101q0 41 -21.5 57t-74.5 16h-332q-11 -9 -24 -36.5t-13 -61.5zM422 737q0 -116 147 -116q82 0 137.5 41.5t55.5 119.5q0 115 -154 115q-81 0 -133.5 -40t-52.5 -120zM440 1225l107 336q20 62 64.5 89t119.5 27q79 0 115 -52.5t20 -127.5l-65 -272h-361z" />
<glyph unicode="&#x124;" horiz-adv-x="1409" d="M23 0l213 1524h430l-82 -592h354l82 592h430l-213 -1524h-430l84 614h-354l-84 -614h-430zM418 1602l268 217q69 59 195 59q121 0 180 -59l211 -217h-340l-72 92l-90 -92h-352z" />
<glyph unicode="&#x125;" horiz-adv-x="1138" d="M16 0l217 1563h357l-66 -459q117 35 203 35q89 0 155.5 -19.5t105.5 -55.5t61.5 -86t24 -110.5t-6.5 -130.5l-102 -737h-347l99 707q17 131 -99 131q-50 0 -135 -27l-112 -811h-355zM307 1636l268 217q70 60 195 60q120 0 180 -60l211 -217h-340l-71 93l-91 -93h-352z " />
<glyph unicode="&#x126;" horiz-adv-x="1409" d="M23 0l151 1090h-117l31 237h119l29 197h430l-29 -197h354l29 197h430l-29 -197h119l-31 -237h-120l-152 -1090h-430l84 614h-354l-84 -614h-430zM584 932h354l20 158h-354z" />
<glyph unicode="&#x127;" horiz-adv-x="1138" d="M16 0l168 1219h-112l32 223h111l18 121h357l-19 -121h277l-33 -223h-274l-17 -115q117 35 203 35q89 0 155.5 -19.5t105.5 -55.5t61.5 -86t24 -110.5t-6.5 -130.5l-102 -737h-347l99 707q17 131 -99 131q-50 0 -135 -27l-112 -811h-355z" />
<glyph unicode="&#x128;" horiz-adv-x="626" d="M23 0l213 1524h434l-215 -1524h-432zM31 1686q122 206 323 206q89 0 162 -45l55 -32q25 -19 74 -19q68 0 127 94l156 -90q-123 -207 -324 -207q-94 0 -162 45l-55 33q-34 21 -74 21q-36 0 -65 -21.5t-62 -73.5z" />
<glyph unicode="&#x129;" horiz-adv-x="538" d="M-59 1337q58 121 140.5 184.5t178.5 63.5q52 0 87 -12t75 -43l49 -37q33 -33 70 -33q64 0 131 125l143 -112q-61 -128 -145 -188t-178 -60q-87 0 -156 57l-47 37q-35 31 -72 31q-66 0 -131 -119zM16 0l158 1130h342l-158 -1130h-342z" />
<glyph unicode="&#x12a;" horiz-adv-x="626" d="M23 0l213 1524h434l-215 -1524h-432zM84 1608l29 217h757l-28 -217h-758z" />
<glyph unicode="&#x12b;" horiz-adv-x="538" d="M-10 1264l33 256h743l-33 -256h-743zM16 0l158 1130h342l-158 -1130h-342z" />
<glyph unicode="&#x12c;" horiz-adv-x="626" d="M23 0l213 1524h434l-215 -1524h-432zM100 1874h301q-8 -50 15.5 -79.5t70.5 -29.5t79 29.5t38 79.5h297q-12 -85 -73.5 -149.5t-154.5 -98t-204 -33.5q-174 0 -280.5 77t-88.5 204z" />
<glyph unicode="&#x12d;" horiz-adv-x="538" d="M4 1563h293q-9 -65 13 -102.5t67 -37.5t76.5 37.5t40.5 102.5h292q-21 -153 -142 -244.5t-288 -91.5q-110 0 -194 40t-127.5 117.5t-30.5 178.5zM16 0l158 1130h342l-158 -1130h-342z" />
<glyph unicode="&#x12e;" horiz-adv-x="626" d="M23 0l213 1524h434l-215 -1524h-2q-97 -59 -97 -119q0 -59 74 -59q93 0 205 45l29 -162q-141 -55 -275 -55q-108 0 -175 44t-67 124q0 116 129 182h-253z" />
<glyph unicode="&#x12f;" horiz-adv-x="538" d="M16 0l158 1130h342l-158 -1130h-2q-96 -58 -96 -119q0 -59 74 -59q93 0 205 45l28 -162q-141 -55 -274 -55q-108 0 -175 44t-67 124q0 116 129 182h-164zM193 1382q0 94 60.5 149.5t158.5 55.5q85 0 127.5 -38t42.5 -107q0 -92 -62 -147.5t-158 -55.5q-82 0 -125.5 37.5 t-43.5 105.5z" />
<glyph unicode="&#x130;" horiz-adv-x="626" d="M23 0l213 1524h434l-215 -1524h-432zM287 1724q0 82 59 131.5t160 49.5q84 0 130 -35t46 -96q0 -81 -64.5 -131t-156.5 -50q-84 0 -129 35t-45 96z" />
<glyph unicode="&#x131;" horiz-adv-x="538" d="M16 0l158 1130h342l-158 -1130h-342z" />
<glyph unicode="&#x134;" horiz-adv-x="968" d="M-20 63l90 324q114 -43 198 -43q80 0 119.5 39t52.5 133l140 1008h430l-146 -1047q-35 -234 -179 -356.5t-372 -122.5q-148 0 -333 65zM369 1602l268 217q69 59 194 59q122 0 181 -59l211 -217h-340l-72 92l-90 -92h-352z" />
<glyph unicode="&#x135;" horiz-adv-x="563" d="M-152 -377l35 252q67 1 101 35.5t43 105.5l155 1114h344l-157 -1120q-28 -190 -159.5 -288.5t-361.5 -98.5zM-51 1239l258 260q74 74 192 74t172 -74l189 -260h-322l-65 117l-88 -117h-336z" />
<glyph unicode="&#x136;" horiz-adv-x="1404" d="M23 0l213 1524h421l-77 -559l452 559h465l-465 -549l246 -975h-440l-148 623l-90 -99q-53 -58 -80.5 -109.5t-38.5 -135.5l-37 -279h-421zM371 -262l73 180h349l-113 -246q-25 -57 -66.5 -86.5t-113.5 -29.5q-94 0 -127 52.5t-2 129.5z" />
<glyph unicode="&#x137;" horiz-adv-x="1155" d="M16 0l217 1563h349l-115 -818l328 385h405l-348 -399l203 -731h-371l-127 442l-74 -82q-26 -30 -36.5 -43.5t-27 -40t-25 -56t-13.5 -68.5l-21 -152h-344zM260 -262l74 180h348l-113 -246q-25 -57 -66.5 -86.5t-113.5 -29.5q-94 0 -127 52.5t-2 129.5z" />
<glyph unicode="&#x138;" horiz-adv-x="1208" d="M12 0l154 1130h354l-61 -468q39 7 78 37.5t74.5 72.5t76.5 91t92.5 96.5t112 86.5t145.5 63t183 24l-47 -340q-155 0 -283 -138l190 -655h-387l-104 393q-81 -68 -180 -86l-41 -307h-357z" />
<glyph unicode="&#x139;" horiz-adv-x="1177" d="M45 203l186 1321h433l-166 -1172h587l-47 -352h-813q-98 0 -146 54t-34 149zM524 1673q0 59 58 99l143 100h442l-385 -232q-76 -47 -155 -47q-53 0 -78 23t-25 57z" />
<glyph unicode="&#x13a;" horiz-adv-x="557" d="M20 0l218 1563h358l-217 -1563h-359zM227 1683q0 59 58 99l143 100h442l-385 -231q-76 -47 -155 -47q-53 0 -78 22.5t-25 56.5z" />
<glyph unicode="&#x13b;" horiz-adv-x="1177" d="M45 203l186 1321h433l-166 -1172h587l-47 -352h-813q-98 0 -146 54t-34 149zM283 -262l73 180h349l-113 -246q-25 -57 -66.5 -86.5t-113.5 -29.5q-94 0 -127 52.5t-2 129.5z" />
<glyph unicode="&#x13c;" horiz-adv-x="557" d="M-61 -262l73 180h348l-112 -246q-25 -57 -66.5 -86.5t-113.5 -29.5q-94 0 -127 52.5t-2 129.5zM20 0l218 1563h358l-217 -1563h-359z" />
<glyph unicode="&#x13d;" horiz-adv-x="1177" d="M45 203l186 1321h433l-166 -1172h587l-47 -352h-813q-98 0 -146 54t-34 149zM731 1192l119 371h332l-164 -428q-42 -105 -166 -105q-86 0 -115 45t-6 117z" />
<glyph unicode="&#x13e;" horiz-adv-x="923" d="M20 0l218 1563h358l-217 -1563h-359zM645 1225l103 352h321l-143 -416q-42 -117 -154 -117q-89 0 -119 51.5t-8 129.5z" />
<glyph unicode="&#x13f;" horiz-adv-x="1177" d="M45 203l186 1321h433l-166 -1172h587l-47 -352h-813q-98 0 -146 54t-34 149zM688 698q0 97 59.5 155t157.5 58q84 0 127 -40t43 -111q0 -98 -61.5 -156.5t-155.5 -58.5q-83 0 -126.5 40.5t-43.5 112.5z" />
<glyph unicode="&#x140;" horiz-adv-x="944" d="M20 0l218 1563h358l-217 -1563h-359zM571 698q0 97 59.5 155t157.5 58q84 0 127 -40t43 -111q0 -98 -61.5 -156.5t-155.5 -58.5q-83 0 -126.5 40.5t-43.5 112.5z" />
<glyph unicode="&#x141;" horiz-adv-x="1210" d="M35 610l33 238l106 39l90 637h432l-65 -467l305 114l-33 -237l-307 -115l-66 -467h584l-47 -352h-809q-99 0 -145.5 53.5t-34.5 149.5l63 446z" />
<glyph unicode="&#x142;" horiz-adv-x="622" d="M39 625l35 249l108 54l88 635h361l-64 -445l111 56l-35 -248l-111 -56l-120 -870h-359l94 678z" />
<glyph unicode="&#x143;" horiz-adv-x="1470" d="M23 0l176 1268q19 130 104 200t229 70q72 0 122 -17t81.5 -53t49.5 -76t34 -102l197 -669l127 903h366l-176 -1266q-19 -133 -103 -202.5t-231 -69.5q-71 0 -121 17.5t-81.5 53.5t-50 77t-33.5 102l-195 667l-127 -903h-368zM729 1673q0 60 57 99l144 100h442l-385 -232 q-76 -47 -156 -47q-53 0 -77.5 23t-24.5 57z" />
<glyph unicode="&#x144;" horiz-adv-x="1136" d="M16 0l123 895q19 142 180 195q189 53 353 53q233 0 328.5 -106t68.5 -296l-104 -741h-349l99 709q10 64 -11 99.5t-86 35.5q-50 0 -135 -25l-112 -819h-355zM420 1319q0 60 63 115l148 129h420l-373 -281q-82 -59 -158 -59q-49 0 -74.5 29t-25.5 67z" />
<glyph unicode="&#x145;" horiz-adv-x="1470" d="M23 0l176 1268q19 130 104 200t229 70q72 0 122 -17t81.5 -53t49.5 -76t34 -102l197 -669l127 903h366l-176 -1266q-19 -133 -103 -202.5t-231 -69.5q-71 0 -121 17.5t-81.5 53.5t-50 77t-33.5 102l-195 667l-127 -903h-368zM399 -262l74 180h348l-112 -246 q-25 -57 -67 -86.5t-114 -29.5q-94 0 -127 52.5t-2 129.5z" />
<glyph unicode="&#x146;" horiz-adv-x="1136" d="M16 0l123 895q19 142 180 195q189 53 353 53q233 0 328.5 -106t68.5 -296l-104 -741h-349l99 709q10 64 -11 99.5t-86 35.5q-50 0 -135 -25l-112 -819h-355zM238 -262l73 180h348l-112 -246q-25 -57 -66.5 -86.5t-113.5 -29.5q-94 0 -127 52.5t-2 129.5z" />
<glyph unicode="&#x147;" horiz-adv-x="1470" d="M23 0l176 1268q19 130 104 200t229 70q72 0 122 -17t81.5 -53t49.5 -76t34 -102l197 -669l127 903h366l-176 -1266q-19 -133 -103 -202.5t-231 -69.5q-71 0 -121 17.5t-81.5 53.5t-50 77t-33.5 102l-195 667l-127 -903h-368zM498 1870h342l71 -94l90 94h353l-269 -217 q-70 -60 -194 -60q-123 0 -180 60z" />
<glyph unicode="&#x148;" horiz-adv-x="1136" d="M16 0l123 895q19 142 180 195q189 53 353 53q233 0 328.5 -106t68.5 -296l-104 -741h-349l99 709q10 64 -11 99.5t-86 35.5q-50 0 -135 -25l-112 -819h-355zM279 1563h325l64 -119l90 119h329l-256 -263q-68 -71 -190 -71q-116 0 -174 71z" />
<glyph unicode="&#x14a;" horiz-adv-x="1460" d="M16 0l177 1264q19 134 101 204t220 70q133 0 198 -50.5t101 -150.5l217 -559l107 746h366l-213 -1524q-55 -377 -547 -377l35 244q70 1 102 27.5t40 85.5l4 20l-406 954l-133 -954h-369z" />
<glyph unicode="&#x14b;" horiz-adv-x="1136" d="M16 0l123 895q19 142 180 195q189 53 353 53q233 0 328.5 -106t68.5 -296l-102 -731q-28 -189 -162 -288t-365 -99l35 252q67 1 100.5 35.5t42.5 105.5l97 693q10 64 -11 99.5t-86 35.5q-50 0 -135 -25l-112 -819h-355z" />
<glyph unicode="&#x14c;" horiz-adv-x="1560" d="M90 616q0 215 65 390.5t178.5 290t263 176t321.5 61.5q288 0 451 -163.5t163 -467.5q0 -146 -35 -282t-105.5 -252t-168.5 -202t-232 -134.5t-289 -48.5q-285 0 -448.5 165t-163.5 467zM522 614q0 -159 57.5 -239t168.5 -80q75 0 136 40.5t100 104.5t65.5 146t37.5 160.5 t11 152.5q0 160 -58.5 241t-169.5 81q-149 0 -248.5 -165t-99.5 -442zM551 1608l29 217h757l-28 -217h-758z" />
<glyph unicode="&#x14d;" horiz-adv-x="1196" d="M59 459q0 159 48 289.5t131.5 216t197.5 132t246 46.5q216 0 336.5 -122t120.5 -341q0 -109 -25.5 -210.5t-77.5 -189t-125 -152.5t-174.5 -102.5t-220.5 -37.5q-217 0 -337 124.5t-120 346.5zM330 1264l32 256h744l-33 -256h-743zM414 449q0 -101 36.5 -154t106.5 -53 q51 0 92 31.5t66 80t41.5 109.5t23 116t6.5 105q0 101 -37 154t-108 53q-98 0 -162.5 -120t-64.5 -322z" />
<glyph unicode="&#x14e;" horiz-adv-x="1560" d="M90 616q0 215 65 390.5t178.5 290t263 176t321.5 61.5q288 0 451 -163.5t163 -467.5q0 -146 -35 -282t-105.5 -252t-168.5 -202t-232 -134.5t-289 -48.5q-285 0 -448.5 165t-163.5 467zM522 614q0 -159 57.5 -239t168.5 -80q75 0 136 40.5t100 104.5t65.5 146t37.5 160.5 t11 152.5q0 160 -58.5 241t-169.5 81q-149 0 -248.5 -165t-99.5 -442zM580 1874h301q-8 -50 15.5 -79.5t70.5 -29.5t78.5 29.5t37.5 79.5h297q-12 -85 -73.5 -149.5t-154.5 -98t-204 -33.5q-174 0 -280 77t-88 204z" />
<glyph unicode="&#x14f;" horiz-adv-x="1196" d="M59 459q0 159 48 289.5t131.5 216t197.5 132t246 46.5q216 0 336.5 -122t120.5 -341q0 -109 -25.5 -210.5t-77.5 -189t-125 -152.5t-174.5 -102.5t-220.5 -37.5q-217 0 -337 124.5t-120 346.5zM344 1563h293q-9 -65 13 -102.5t67 -37.5t76.5 37.5t40.5 102.5h292 q-21 -153 -142 -244.5t-288 -91.5q-110 0 -194 40t-127.5 117.5t-30.5 178.5zM414 449q0 -101 36.5 -154t106.5 -53q51 0 92 31.5t66 80t41.5 109.5t23 116t6.5 105q0 101 -37 154t-108 53q-98 0 -162.5 -120t-64.5 -322z" />
<glyph unicode="&#x150;" horiz-adv-x="1560" d="M90 616q0 215 65 390.5t178.5 290t263 176t321.5 61.5q288 0 451 -163.5t163 -467.5q0 -146 -35 -282t-105.5 -252t-168.5 -202t-232 -134.5t-289 -48.5q-285 0 -448.5 165t-163.5 467zM522 614q0 -159 57.5 -239t168.5 -80q75 0 136 40.5t100 104.5t65.5 146t37.5 160.5 t11 152.5q0 160 -58.5 241t-169.5 81q-149 0 -248.5 -165t-99.5 -442zM635 1677q0 44 43 78l147 117h346l-282 -225q-63 -54 -152 -54q-49 0 -75.5 23t-26.5 61zM1075 1677q0 42 45 78l142 117h352l-283 -225q-65 -54 -151 -54q-50 0 -77.5 22.5t-27.5 61.5z" />
<glyph unicode="&#x151;" horiz-adv-x="1196" d="M59 459q0 159 48 289.5t131.5 216t197.5 132t246 46.5q216 0 336.5 -122t120.5 -341q0 -109 -25.5 -210.5t-77.5 -189t-125 -152.5t-174.5 -102.5t-220.5 -37.5q-217 0 -337 124.5t-120 346.5zM385 1317q0 55 45 100l148 146h327l-270 -265q-68 -71 -154 -71 q-47 0 -71.5 26t-24.5 64zM414 449q0 -101 36.5 -154t106.5 -53q51 0 92 31.5t66 80t41.5 109.5t23 116t6.5 105q0 101 -37 154t-108 53q-98 0 -162.5 -120t-64.5 -322zM819 1315q0 52 45 100l144 148h331l-270 -267q-71 -71 -151 -71q-48 0 -73.5 26t-25.5 64z" />
<glyph unicode="&#x152;" horiz-adv-x="2037" d="M86 621q0 207 62 378.5t170 285.5t256 176.5t319 62.5h1200l-43 -318h-629l-41 -278h551l-43 -305h-549l-43 -306h633l-45 -317h-1204q-277 0 -435.5 164.5t-158.5 456.5zM510 633q0 -146 59 -223.5t168 -77.5h135l121 864h-125q-74 0 -136 -36t-102 -94t-68 -133 t-40 -150.5t-12 -149.5z" />
<glyph unicode="&#x153;" horiz-adv-x="1851" d="M59 459q0 159 48 289.5t131.5 216t197.5 132t246 46.5q221 0 332 -133q154 137 360 137q232 0 343.5 -140t74.5 -417q-7 -68 -42 -98.5t-103 -30.5h-537q0 -197 199 -197q147 0 290 49l105 35l29 -258l-107 -37q-189 -65 -371 -65q-236 0 -356 139q-155 -139 -383 -139 q-217 0 -337 124.5t-120 346.5zM414 449q0 -101 36.5 -154t106.5 -53q51 0 92 31.5t66 80t41.5 109.5t23 116t6.5 105q0 101 -37 154t-108 53q-98 0 -162.5 -120t-64.5 -322zM1139 682h331q16 98 -16.5 157.5t-118.5 59.5q-72 0 -124 -57t-72 -160z" />
<glyph unicode="&#x154;" horiz-adv-x="1382" d="M23 0l184 1323q12 94 75 147.5t162 53.5h508q196 0 305 -105t109 -284q0 -237 -184 -424l-84 -90l176 -621h-447l-129 526h-176l-71 -526h-428zM565 831h252l62 70q77 92 77 184q0 63 -32 97.5t-95 34.5h-211zM668 1673q0 60 57 99l143 100h443l-385 -232 q-76 -47 -156 -47q-53 0 -77.5 23t-24.5 57z" />
<glyph unicode="&#x155;" horiz-adv-x="790" d="M14 0l123 887q10 78 53 123.5t123 70.5q198 58 506 58l-39 -283q-199 0 -311 -37l-113 -819h-342zM322 1319q0 60 63 115l147 129h420l-372 -281q-82 -59 -158 -59q-49 0 -74.5 29t-25.5 67z" />
<glyph unicode="&#x156;" horiz-adv-x="1382" d="M23 0l184 1323q12 94 75 147.5t162 53.5h508q196 0 305 -105t109 -284q0 -237 -184 -424l-84 -90l176 -621h-447l-129 526h-176l-71 -526h-428zM375 -262l74 180h348l-113 -246q-25 -57 -66.5 -86.5t-113.5 -29.5q-94 0 -127 52.5t-2 129.5zM565 831h252l62 70 q77 92 77 184q0 63 -32 97.5t-95 34.5h-211z" />
<glyph unicode="&#x157;" horiz-adv-x="790" d="M-63 -262l73 180h348l-112 -246q-25 -57 -66.5 -86.5t-113.5 -29.5q-94 0 -127 52.5t-2 129.5zM14 0l123 887q10 78 53 123.5t123 70.5q198 58 506 58l-39 -283q-199 0 -311 -37l-113 -819h-342z" />
<glyph unicode="&#x158;" horiz-adv-x="1382" d="M23 0l184 1323q12 94 75 147.5t162 53.5h508q196 0 305 -105t109 -284q0 -237 -184 -424l-84 -90l176 -621h-447l-129 526h-176l-71 -526h-428zM438 1870h342l72 -94l90 94h352l-268 -217q-70 -60 -195 -60q-123 0 -180 60zM565 831h252l62 70q77 92 77 184 q0 63 -32 97.5t-95 34.5h-211z" />
<glyph unicode="&#x159;" horiz-adv-x="790" d="M14 0l123 887q10 78 53 123.5t123 70.5q198 58 506 58l-39 -283q-199 0 -311 -37l-113 -819h-342zM174 1563h326l63 -119l90 119h330l-256 -263q-68 -71 -190 -71q-117 0 -175 71z" />
<glyph unicode="&#x15a;" horiz-adv-x="1275" d="M20 102l101 357l131 -53q201 -80 379 -80q74 0 120 32t46 97q0 84 -105 116l-225 68q-328 102 -328 393q0 105 31 189.5t86 142.5t131.5 97t166 57t191.5 18q217 0 441 -76l129 -43l-105 -358l-131 51q-207 82 -370 82q-77 0 -121.5 -32.5t-44.5 -98.5q0 -86 104 -115 l223 -69q165 -51 248.5 -146.5t83.5 -247.5q0 -127 -48 -224.5t-132.5 -157t-193 -89.5t-236.5 -30q-243 0 -445 73zM618 1673q0 59 58 99l143 100h443l-385 -232q-76 -47 -156 -47q-53 0 -78 23t-25 57z" />
<glyph unicode="&#x15b;" horiz-adv-x="1064" d="M10 80l78 268l105 -41q160 -61 311 -61q57 0 90 25t33 73q0 32 -20.5 50.5t-63.5 27.5l-176 41q-136 29 -202.5 103t-66.5 198q0 97 38 171t106 118.5t154.5 67t189.5 22.5q199 0 364 -56l103 -36l-78 -267l-107 39q-173 62 -307 62q-60 0 -92.5 -26t-32.5 -71 q0 -31 20 -48.5t64 -28.5l178 -39q135 -31 201 -105.5t66 -197.5q0 -78 -25.5 -141.5t-70.5 -107.5t-107 -74t-134 -44t-153 -14q-197 0 -362 57zM438 1319q0 59 64 115l147 129h420l-373 -281q-82 -59 -157 -59q-49 0 -75 29t-26 67z" />
<glyph unicode="&#x15c;" horiz-adv-x="1275" d="M20 102l101 357l131 -53q201 -80 379 -80q74 0 120 32t46 97q0 84 -105 116l-225 68q-328 102 -328 393q0 105 31 189.5t86 142.5t131.5 97t166 57t191.5 18q217 0 441 -76l129 -43l-105 -358l-131 51q-207 82 -370 82q-77 0 -121.5 -32.5t-44.5 -98.5q0 -86 104 -115 l223 -69q165 -51 248.5 -146.5t83.5 -247.5q0 -127 -48 -224.5t-132.5 -157t-193 -89.5t-236.5 -30q-243 0 -445 73zM346 1602l268 217q69 59 195 59q121 0 180 -59l211 -217h-340l-72 92l-90 -92h-352z" />
<glyph unicode="&#x15d;" horiz-adv-x="1064" d="M10 80l78 268l105 -41q160 -61 311 -61q57 0 90 25t33 73q0 32 -20.5 50.5t-63.5 27.5l-176 41q-136 29 -202.5 103t-66.5 198q0 97 38 171t106 118.5t154.5 67t189.5 22.5q199 0 364 -56l103 -36l-78 -267l-107 39q-173 62 -307 62q-60 0 -92.5 -26t-32.5 -71 q0 -31 20 -48.5t64 -28.5l178 -39q135 -31 201 -105.5t66 -197.5q0 -78 -25.5 -141.5t-70.5 -107.5t-107 -74t-134 -44t-153 -14q-197 0 -362 57zM188 1239l258 260q74 74 193 74q118 0 172 -74l188 -260h-321l-66 117l-88 -117h-336z" />
<glyph unicode="&#x15e;" horiz-adv-x="1275" d="M20 102l101 357l131 -53q201 -80 379 -80q74 0 120 32t46 97q0 84 -105 116l-225 68q-328 102 -328 393q0 105 31 189.5t86 142.5t131.5 97t166 57t191.5 18q217 0 441 -76l129 -43l-105 -358l-131 51q-207 82 -370 82q-77 0 -121.5 -32.5t-44.5 -98.5q0 -86 104 -115 l223 -69q165 -51 248.5 -146.5t83.5 -247.5q0 -122 -44 -216.5t-122.5 -154t-179.5 -91.5t-221 -37l-41 -72q76 0 120 -34t44 -103q0 -89 -67.5 -137t-168.5 -48q-88 0 -194 50l45 124q81 -45 153 -45q60 0 60 50q0 55 -152 45l-12 28l84 142q-191 9 -359 71z" />
<glyph unicode="&#x15f;" horiz-adv-x="1064" d="M10 80l78 268l105 -41q160 -61 311 -61q57 0 90 25t33 73q0 32 -20.5 50.5t-63.5 27.5l-176 41q-136 29 -202.5 103t-66.5 198q0 97 38 171t106 118.5t154.5 67t189.5 22.5q199 0 364 -56l103 -36l-78 -267l-107 39q-173 62 -307 62q-60 0 -92.5 -26t-32.5 -71 q0 -31 20 -48.5t64 -28.5l178 -39q135 -31 201 -105.5t66 -197.5q0 -93 -36 -165.5t-99.5 -117.5t-145.5 -69t-180 -27l-43 -78q76 0 120 -34t44 -103q0 -89 -67.5 -137t-168.5 -48q-88 0 -194 50l45 124q81 -45 153 -45q60 0 60 50q0 55 -152 45l-12 28l88 150 q-140 9 -264 53z" />
<glyph unicode="&#x160;" horiz-adv-x="1275" d="M20 102l101 357l131 -53q201 -80 379 -80q74 0 120 32t46 97q0 84 -105 116l-225 68q-328 102 -328 393q0 105 31 189.5t86 142.5t131.5 97t166 57t191.5 18q217 0 441 -76l129 -43l-105 -358l-131 51q-207 82 -370 82q-77 0 -121.5 -32.5t-44.5 -98.5q0 -86 104 -115 l223 -69q165 -51 248.5 -146.5t83.5 -247.5q0 -127 -48 -224.5t-132.5 -157t-193 -89.5t-236.5 -30q-243 0 -445 73zM391 1870h342l72 -94l90 94h352l-268 -217q-70 -60 -195 -60q-123 0 -180 60z" />
<glyph unicode="&#x161;" horiz-adv-x="1064" d="M10 80l78 268l105 -41q160 -61 311 -61q57 0 90 25t33 73q0 32 -20.5 50.5t-63.5 27.5l-176 41q-136 29 -202.5 103t-66.5 198q0 97 38 171t106 118.5t154.5 67t189.5 22.5q199 0 364 -56l103 -36l-78 -267l-107 39q-173 62 -307 62q-60 0 -92.5 -26t-32.5 -71 q0 -31 20 -48.5t64 -28.5l178 -39q135 -31 201 -105.5t66 -197.5q0 -78 -25.5 -141.5t-70.5 -107.5t-107 -74t-134 -44t-153 -14q-197 0 -362 57zM242 1563h325l64 -119l90 119h330l-256 -263q-68 -71 -191 -71q-116 0 -174 71z" />
<glyph unicode="&#x162;" horiz-adv-x="1310" d="M150 1194l45 330h1179l-47 -330h-373l-168 -1194h-428l168 1194h-376zM311 -262l74 180h348l-112 -246q-25 -57 -67 -86.5t-114 -29.5q-94 0 -127 52.5t-2 129.5z" />
<glyph unicode="&#x163;" horiz-adv-x="890" d="M74 868l37 260h133l30 215l351 68l-39 -283h295l-37 -260h-295l-66 -465q-10 -77 14.5 -110t90.5 -33q73 0 176 35v-254q-164 -53 -287 -53q-190 0 -278 102t-60 297l70 481h-135zM166 -262l74 180h348l-113 -246q-25 -57 -66.5 -86.5t-113.5 -29.5q-94 0 -127 52.5 t-2 129.5z" />
<glyph unicode="&#x164;" horiz-adv-x="1310" d="M150 1194l45 330h1179l-47 -330h-373l-168 -1194h-428l168 1194h-376zM406 1870h342l71 -94l90 94h353l-269 -217q-70 -60 -194 -60t-181 60z" />
<glyph unicode="&#x165;" horiz-adv-x="890" d="M74 868l37 260h133l30 215l351 68l-39 -283h295l-37 -260h-295l-66 -465q-10 -77 14.5 -110t90.5 -33q73 0 176 35v-254q-164 -53 -287 -53q-190 0 -278 102t-60 297l70 481h-135zM671.5 1287.5q-0.5 40.5 16.5 90.5l78 199h324l-127 -264q-50 -117 -166 -117 q-61 0 -93 25.5t-32.5 66z" />
<glyph unicode="&#x166;" horiz-adv-x="1310" d="M150 1194l45 330h1179l-47 -330h-373l-43 -305h273l-37 -258h-273l-88 -631h-428l88 631h-260l37 258h260l43 305h-376z" />
<glyph unicode="&#x167;" horiz-adv-x="890" d="M18 477l39 271h133l19 120h-135l37 260h133l30 215l351 68l-39 -283h295l-37 -260h-295l-19 -120h297l-39 -271h-294l-11 -74q-10 -77 14.5 -110t90.5 -33q73 0 176 35v-254q-164 -53 -287 -53q-190 0 -278 102t-60 297l13 90h-134z" />
<glyph unicode="&#x168;" horiz-adv-x="1411" d="M86 578l135 946h428l-133 -955q-15 -118 25 -174.5t137 -56.5q96 0 149 57t70 174l133 955h432l-135 -961q-40 -282 -220 -435t-480 -153t-440 159t-101 444zM422 1686q122 206 323 206q89 0 162 -45l56 -32q25 -19 73 -19q68 0 127 94l156 -90q-123 -207 -324 -207 q-93 0 -161 45l-56 33q-34 21 -73 21q-36 0 -65 -21.5t-62 -73.5z" />
<glyph unicode="&#x169;" horiz-adv-x="1136" d="M68 389l104 741h348l-98 -708q-8 -64 12.5 -98.5t83.5 -34.5q56 0 137 22l115 819h352l-127 -894q-16 -140 -174 -193q-186 -55 -352 -55q-234 0 -330.5 106t-70.5 295zM250 1337q58 121 140.5 184.5t178.5 63.5q52 0 87 -12t75 -43l49 -37q33 -33 70 -33q64 0 131 125 l143 -112q-61 -128 -145 -188t-178 -60q-87 0 -156 57l-47 37q-35 31 -72 31q-66 0 -131 -119z" />
<glyph unicode="&#x16a;" horiz-adv-x="1411" d="M86 578l135 946h428l-133 -955q-15 -118 25 -174.5t137 -56.5q96 0 149 57t70 174l133 955h432l-135 -961q-40 -282 -220 -435t-480 -153t-440 159t-101 444zM469 1608l29 217h757l-28 -217h-758z" />
<glyph unicode="&#x16b;" horiz-adv-x="1136" d="M68 389l104 741h348l-98 -708q-8 -64 12.5 -98.5t83.5 -34.5q56 0 137 22l115 819h352l-127 -894q-16 -140 -174 -193q-186 -55 -352 -55q-234 0 -330.5 106t-70.5 295zM293 1264l33 256h743l-33 -256h-743z" />
<glyph unicode="&#x16c;" horiz-adv-x="1411" d="M86 578l135 946h428l-133 -955q-15 -118 25 -174.5t137 -56.5q96 0 149 57t70 174l133 955h432l-135 -961q-40 -282 -220 -435t-480 -153t-440 159t-101 444zM489 1874h302q-8 -50 15.5 -79.5t70.5 -29.5t78.5 29.5t37.5 79.5h297q-12 -85 -73.5 -149.5t-154.5 -98 t-204 -33.5q-174 0 -280.5 77t-88.5 204z" />
<glyph unicode="&#x16d;" horiz-adv-x="1136" d="M68 389l104 741h348l-98 -708q-8 -64 12.5 -98.5t83.5 -34.5q56 0 137 22l115 819h352l-127 -894q-16 -140 -174 -193q-186 -55 -352 -55q-234 0 -330.5 106t-70.5 295zM307 1563h293q-9 -65 13 -102.5t67 -37.5t76.5 37.5t40.5 102.5h293q-21 -153 -142.5 -244.5 t-288.5 -91.5q-110 0 -194 40t-127.5 117.5t-30.5 178.5z" />
<glyph unicode="&#x16e;" horiz-adv-x="1411" d="M86 578l135 946h428l-133 -955q-15 -118 25 -174.5t137 -56.5q96 0 149 57t70 174l133 955h432l-135 -961q-40 -282 -220 -435t-480 -153t-440 159t-101 444zM608 1782q0 108 84.5 173.5t214.5 65.5q111 0 176.5 -49.5t65.5 -136.5q0 -106 -87.5 -175t-215.5 -69 q-108 0 -173 52t-65 139zM780 1794q0 -30 23 -49t61 -19q47 0 79 26t32 63q0 32 -23 51.5t-63 19.5q-50 0 -79.5 -26.5t-29.5 -65.5z" />
<glyph unicode="&#x16f;" horiz-adv-x="1136" d="M68 389l104 741h348l-98 -708q-8 -64 12.5 -98.5t83.5 -34.5q56 0 137 22l115 819h352l-127 -894q-16 -140 -174 -193q-186 -55 -352 -55q-234 0 -330.5 106t-70.5 295zM418 1436q0 130 92 211.5t215 81.5q103 0 169.5 -60.5t66.5 -165.5q0 -128 -92.5 -213.5 t-215.5 -85.5q-102 0 -168.5 63t-66.5 169zM592 1448q0 -40 22 -64t60 -24q45 0 78.5 37t33.5 90q0 38 -22.5 63t-61.5 25q-47 0 -78.5 -37.5t-31.5 -89.5z" />
<glyph unicode="&#x170;" horiz-adv-x="1411" d="M86 578l135 946h428l-133 -955q-15 -118 25 -174.5t137 -56.5q96 0 149 57t70 174l133 955h432l-135 -961q-40 -282 -220 -435t-480 -153t-440 159t-101 444zM494 1677q0 44 43 78l147 117h346l-282 -225q-63 -54 -152 -54q-50 0 -76 23t-26 61zM934 1677q0 42 45 78 l141 117h353l-283 -225q-65 -54 -152 -54q-50 0 -77 22.5t-27 61.5z" />
<glyph unicode="&#x171;" horiz-adv-x="1136" d="M68 389l104 741h348l-98 -708q-8 -64 12.5 -98.5t83.5 -34.5q56 0 137 22l115 819h352l-127 -894q-16 -140 -174 -193q-186 -55 -352 -55q-234 0 -330.5 106t-70.5 295zM326 1317q0 55 45 100l147 146h328l-271 -265q-68 -71 -153 -71q-47 0 -71.5 26t-24.5 64zM760 1315 q0 52 45 100l143 148h332l-270 -267q-71 -71 -152 -71q-48 0 -73 26t-25 64z" />
<glyph unicode="&#x172;" horiz-adv-x="1411" d="M86 578l135 946h428l-133 -955q-15 -118 25 -174.5t137 -56.5q96 0 149 57t70 174l133 955h432l-135 -961q-56 -380 -352 -518q-82 -51 -82 -111q0 -59 74 -59q92 0 204 45l29 -162q-141 -55 -274 -55q-108 0 -175 44t-67 124q0 62 37 109q-77 -5 -94 -5q-300 0 -440 159 t-101 444z" />
<glyph unicode="&#x173;" horiz-adv-x="1136" d="M68 389l104 741h348l-98 -708q-8 -64 12.5 -98.5t83.5 -34.5q56 0 137 22l115 819h352l-127 -894q-16 -140 -174 -193l-26 -8q-86 -55 -86 -113q0 -59 73 -59q93 0 205 45l29 -162q-141 -55 -275 -55q-107 0 -174 44t-67 124q0 77 59 133q-62 -4 -90 -4 q-234 0 -330.5 106t-70.5 295z" />
<glyph unicode="&#x174;" horiz-adv-x="1927" d="M172 1524h406l-33 -1035l327 893q23 68 85 105t147 37q83 0 134.5 -37t55.5 -105l72 -890l254 1032h405l-409 -1336q-31 -100 -106.5 -153t-190.5 -53q-239 0 -254 190l-59 668l-252 -668q-69 -190 -310 -190q-116 0 -175.5 53.5t-61.5 152.5zM682 1602l268 217 q69 59 195 59q121 0 180 -59l211 -217h-340l-72 92l-90 -92h-352z" />
<glyph unicode="&#x175;" horiz-adv-x="1613" d="M115 1130h352v-716l225 602q43 121 199 121q74 0 117.5 -32.5t48.5 -88.5l57 -602l191 716h354l-330 -974q-58 -181 -260 -181q-206 0 -221 166l-43 404l-160 -404q-61 -166 -268 -166q-200 0 -209 181zM489 1239l259 260q74 74 192 74t172 -74l188 -260h-321l-66 117 l-88 -117h-336z" />
<glyph unicode="&#x176;" horiz-adv-x="1452" d="M160 1524h452l174 -529l312 529h463l-615 -910l-84 -614h-430l86 612zM428 1602l268 217q69 59 195 59q121 0 180 -59l211 -217h-340l-72 92l-90 -92h-352z" />
<glyph unicode="&#x177;" horiz-adv-x="1157" d="M-31 -324l74 252q96 -34 170 -34q97 0 133 98l12 35l-247 1103h378l95 -677l250 677h362l-530 -1196q-66 -150 -173 -229.5t-268 -79.5q-123 0 -256 51zM254 1255l258 261q73 73 193 73q119 0 172 -73l188 -261h-322l-65 117l-88 -117h-336z" />
<glyph unicode="&#x178;" horiz-adv-x="1452" d="M160 1524h452l174 -529l312 529h463l-615 -910l-84 -614h-430l86 612zM492 1720q0 82 54 131.5t146 49.5q76 0 119 -35t43 -97q0 -78 -59 -127t-144 -49q-77 0 -118 33t-41 94zM924 1720q0 82 54.5 131.5t147.5 49.5q76 0 118 -35t42 -97q0 -78 -59 -127t-144 -49 q-76 0 -117.5 33.5t-41.5 93.5z" />
<glyph unicode="&#x179;" horiz-adv-x="1308" d="M6 160q0 107 92 217l695 827h-600l45 320h944q80 0 119.5 -41t39.5 -113q0 -119 -90 -223l-688 -828h627l-45 -319h-977q-81 0 -121.5 42.5t-40.5 117.5zM651 1673q0 59 58 99l143 100h442l-385 -232q-76 -47 -155 -47q-53 0 -78 23t-25 57z" />
<glyph unicode="&#x17a;" horiz-adv-x="1091" d="M16 137q0 101 80 187l510 550h-473l35 256h768q69 0 104 -36.5t35 -100.5q0 -103 -80 -186l-503 -549h477l-37 -258h-774q-70 0 -106 36.5t-36 100.5zM449 1319q0 60 63 115l147 129h420l-372 -281q-82 -59 -158 -59q-49 0 -74.5 29t-25.5 67z" />
<glyph unicode="&#x17b;" horiz-adv-x="1308" d="M6 160q0 107 92 217l695 827h-600l45 320h944q80 0 119.5 -41t39.5 -113q0 -119 -90 -223l-688 -828h627l-45 -319h-977q-81 0 -121.5 42.5t-40.5 117.5zM623 1724q0 82 59 131.5t160 49.5q84 0 130 -35t46 -96q0 -81 -64.5 -131t-156.5 -50q-84 0 -129 35t-45 96z" />
<glyph unicode="&#x17c;" horiz-adv-x="1091" d="M16 137q0 101 80 187l510 550h-473l35 256h768q69 0 104 -36.5t35 -100.5q0 -103 -80 -186l-503 -549h477l-37 -258h-774q-70 0 -106 36.5t-36 100.5zM475 1382q0 94 59.5 149.5t157.5 55.5q85 0 127.5 -38t42.5 -107q0 -92 -61.5 -147.5t-157.5 -55.5q-82 0 -125 37.5 t-43 105.5z" />
<glyph unicode="&#x17d;" horiz-adv-x="1308" d="M6 160q0 107 92 217l695 827h-600l45 320h944q80 0 119.5 -41t39.5 -113q0 -119 -90 -223l-688 -828h627l-45 -319h-977q-81 0 -121.5 42.5t-40.5 117.5zM412 1870h342l71 -94l90 94h353l-269 -217q-70 -60 -194 -60q-123 0 -180 60z" />
<glyph unicode="&#x17e;" horiz-adv-x="1091" d="M16 137q0 101 80 187l510 550h-473l35 256h768q69 0 104 -36.5t35 -100.5q0 -103 -80 -186l-503 -549h477l-37 -258h-774q-70 0 -106 36.5t-36 100.5zM274 1563h326l64 -119l90 119h329l-256 -263q-68 -71 -190 -71q-116 0 -174 71z" />
<glyph unicode="&#x192;" d="M184 858v270h146v60q0 187 110 283t310 96q134 0 305 -51l-41 -267q-126 33 -187 33q-73 0 -103 -27t-30 -98v-29h305v-270h-305v-842q0 -387 -495 -387v265q71 1 101 32t30 97v835h-146z" />
<glyph unicode="&#x218;" horiz-adv-x="1275" d="M20 102l101 357l131 -53q201 -80 379 -80q74 0 120 32t46 97q0 84 -105 116l-225 68q-328 102 -328 393q0 105 31 189.5t86 142.5t131.5 97t166 57t191.5 18q217 0 441 -76l129 -43l-105 -358l-131 51q-207 82 -370 82q-77 0 -121.5 -32.5t-44.5 -98.5q0 -86 104 -115 l223 -69q165 -51 248.5 -146.5t83.5 -247.5q0 -127 -48 -224.5t-132.5 -157t-193 -89.5t-236.5 -30q-243 0 -445 73zM311 -262l74 180h348l-112 -246q-25 -57 -67 -86.5t-114 -29.5q-94 0 -127 52.5t-2 129.5z" />
<glyph unicode="&#x219;" horiz-adv-x="1064" d="M10 80l78 268l105 -41q160 -61 311 -61q57 0 90 25t33 73q0 32 -20.5 50.5t-63.5 27.5l-176 41q-136 29 -202.5 103t-66.5 198q0 97 38 171t106 118.5t154.5 67t189.5 22.5q199 0 364 -56l103 -36l-78 -267l-107 39q-173 62 -307 62q-60 0 -92.5 -26t-32.5 -71 q0 -31 20 -48.5t64 -28.5l178 -39q135 -31 201 -105.5t66 -197.5q0 -78 -25.5 -141.5t-70.5 -107.5t-107 -74t-134 -44t-153 -14q-197 0 -362 57zM223 -262l74 180h348l-113 -246q-25 -57 -66.5 -86.5t-113.5 -29.5q-94 0 -127 52.5t-2 129.5z" />
<glyph unicode="&#x237;" horiz-adv-x="546" d="M-152 -377l35 252q67 1 101 35.5t43 105.5l155 1114h344l-157 -1120q-28 -190 -159.5 -288.5t-361.5 -98.5z" />
<glyph unicode="&#x2c6;" horiz-adv-x="1036" d="M238 1239l258 260q74 74 192 74t172 -74l189 -260h-322l-65 117l-89 -117h-335z" />
<glyph unicode="&#x2c7;" horiz-adv-x="1036" d="M274 1563h326l64 -119l90 119h329l-256 -263q-68 -71 -190 -71q-116 0 -174 71z" />
<glyph unicode="&#x2d8;" horiz-adv-x="1036" d="M252 1563h293q-9 -65 13 -102.5t67 -37.5t76 37t40 103h293q-21 -153 -142 -244.5t-288 -91.5q-110 0 -194 40t-127.5 117.5t-30.5 178.5z" />
<glyph unicode="&#x2d9;" horiz-adv-x="1036" d="M444 1382q0 94 60 149.5t158 55.5q84 0 126.5 -38t42.5 -107q0 -92 -61.5 -147.5t-157.5 -55.5q-82 0 -125 37.5t-43 105.5z" />
<glyph unicode="&#x2da;" horiz-adv-x="1036" d="M393 1436q0 130 92 211.5t215 81.5q103 0 169.5 -60.5t66.5 -165.5q0 -128 -92 -213.5t-215 -85.5q-102 0 -169 63t-67 169zM567 1448q0 -40 22 -64t60 -24q45 0 79 37t34 90q0 38 -22.5 63t-61.5 25q-47 0 -79 -37.5t-32 -89.5z" />
<glyph unicode="&#x2db;" horiz-adv-x="1036" d="M190 -182q0 116 129 182l170 20l7 -20q-97 -59 -97 -119q0 -59 74 -59q93 0 205 45l29 -162q-141 -55 -275 -55q-108 0 -175 44t-67 124z" />
<glyph unicode="&#x2dc;" horiz-adv-x="1036" d="M197 1337q58 121 140.5 184.5t178.5 63.5q52 0 87 -12t75 -43l49 -37q33 -33 70 -33q64 0 131 125l143 -112q-61 -128 -145 -188t-178 -60q-87 0 -156 57l-47 37q-35 31 -72 31q-66 0 -131 -119z" />
<glyph unicode="&#x2dd;" horiz-adv-x="1036" d="M174 1317q0 55 45 100l148 146h327l-270 -265q-68 -71 -154 -71q-47 0 -71.5 26t-24.5 64zM608 1315q0 52 45 100l144 148h331l-270 -267q-71 -71 -151 -71q-48 0 -73.5 26t-25.5 64z" />
<glyph unicode="&#x3c0;" horiz-adv-x="1466" d="M45 860v270h1348v-270h-316v-454q0 -72 30.5 -103t102.5 -31q71 0 179 33l41 -268q-161 -49 -300 -49q-199 0 -308 99t-109 288v485h-162v-860h-367v860h-139z" />
<glyph unicode="&#x1e80;" horiz-adv-x="1927" d="M172 1524h406l-33 -1035l327 893q23 68 85 105t147 37q83 0 134.5 -37t55.5 -105l72 -890l254 1032h405l-409 -1336q-31 -100 -106.5 -153t-190.5 -53q-239 0 -254 190l-59 668l-252 -668q-69 -190 -310 -190q-116 0 -175.5 53.5t-61.5 152.5zM739 1872h443l125 -96 q45 -36 45 -82q0 -41 -34 -71t-91 -30q-76 0 -144 47z" />
<glyph unicode="&#x1e81;" horiz-adv-x="1613" d="M115 1130h352v-716l225 602q43 121 199 121q74 0 117.5 -32.5t48.5 -88.5l57 -602l191 716h354l-330 -974q-58 -181 -260 -181q-206 0 -221 166l-43 404l-160 -404q-61 -166 -268 -166q-200 0 -209 181zM485 1563h418l125 -129q47 -47 47 -113q0 -42 -30.5 -72t-79.5 -30 q-75 0 -142 57z" />
<glyph unicode="&#x1e82;" horiz-adv-x="1927" d="M172 1524h406l-33 -1035l327 893q23 68 85 105t147 37q83 0 134.5 -37t55.5 -105l72 -890l254 1032h405l-409 -1336q-31 -100 -106.5 -153t-190.5 -53q-239 0 -254 190l-59 668l-252 -668q-69 -190 -310 -190q-116 0 -175.5 53.5t-61.5 152.5zM926 1673q0 60 57 99 l143 100h443l-385 -232q-76 -47 -156 -47q-53 0 -77.5 23t-24.5 57z" />
<glyph unicode="&#x1e83;" horiz-adv-x="1613" d="M115 1130h352v-716l225 602q43 121 199 121q74 0 117.5 -32.5t48.5 -88.5l57 -602l191 716h354l-330 -974q-58 -181 -260 -181q-206 0 -221 166l-43 404l-160 -404q-61 -166 -268 -166q-200 0 -209 181zM690 1319q0 59 64 115l147 129h420l-373 -281q-82 -59 -157 -59 q-49 0 -75 29t-26 67z" />
<glyph unicode="&#x1e84;" horiz-adv-x="1927" d="M172 1524h406l-33 -1035l327 893q23 68 85 105t147 37q83 0 134.5 -37t55.5 -105l72 -890l254 1032h405l-409 -1336q-31 -100 -106.5 -153t-190.5 -53q-239 0 -254 190l-59 668l-252 -668q-69 -190 -310 -190q-116 0 -175.5 53.5t-61.5 152.5zM756 1720q0 82 54 131.5 t146 49.5q76 0 119 -35t43 -97q0 -78 -59 -127t-144 -49q-77 0 -118 33t-41 94zM1188 1720q0 82 55 131.5t148 49.5q76 0 117.5 -35t41.5 -97q0 -78 -58.5 -127t-143.5 -49q-76 0 -118 33.5t-42 93.5z" />
<glyph unicode="&#x1e85;" horiz-adv-x="1613" d="M115 1130h352v-716l225 602q43 121 199 121q74 0 117.5 -32.5t48.5 -88.5l57 -602l191 716h354l-330 -974q-58 -181 -260 -181q-206 0 -221 166l-43 404l-160 -404q-61 -166 -268 -166q-200 0 -209 181zM543 1382q0 93 56 149t146 56q73 0 113.5 -36.5t40.5 -102.5 q0 -90 -56.5 -147.5t-146.5 -57.5q-73 0 -113 36.5t-40 102.5zM967 1382q0 93 56.5 149t147.5 56q73 0 112.5 -36.5t39.5 -102.5q0 -91 -54.5 -148t-144.5 -57q-75 0 -116 36.5t-41 102.5z" />
<glyph unicode="&#x1ef2;" horiz-adv-x="1538" d="M160 1524h452l174 -529l312 529h463l-615 -910l-84 -614h-430l86 612zM459 1872h442l125 -96q45 -36 45 -82q0 -41 -34 -71t-91 -30q-75 0 -143 47z" />
<glyph unicode="&#x1ef3;" horiz-adv-x="1218" d="M-31 -324l74 252q96 -34 170 -34q97 0 133 98l12 35l-247 1103h378l95 -677l250 677h362l-530 -1196q-66 -150 -173 -229.5t-268 -79.5q-123 0 -256 51zM223 1563h418l125 -129q47 -47 47 -113q0 -41 -31 -71.5t-80 -30.5q-74 0 -141 57z" />
<glyph unicode="&#x2000;" horiz-adv-x="1010" />
<glyph unicode="&#x2001;" horiz-adv-x="2021" />
<glyph unicode="&#x2002;" horiz-adv-x="1010" />
<glyph unicode="&#x2003;" horiz-adv-x="2021" />
<glyph unicode="&#x2004;" horiz-adv-x="673" />
<glyph unicode="&#x2005;" horiz-adv-x="505" />
<glyph unicode="&#x2006;" horiz-adv-x="336" />
<glyph unicode="&#x2007;" horiz-adv-x="336" />
<glyph unicode="&#x2008;" horiz-adv-x="252" />
<glyph unicode="&#x2009;" horiz-adv-x="404" />
<glyph unicode="&#x200a;" horiz-adv-x="112" />
<glyph unicode="&#x2010;" horiz-adv-x="847" d="M70 508l36 268h705l-39 -268h-702z" />
<glyph unicode="&#x2011;" horiz-adv-x="847" d="M70 508l36 268h705l-39 -268h-702z" />
<glyph unicode="&#x2012;" horiz-adv-x="1128" d="M68 506l36 266h994l-37 -266h-993z" />
<glyph unicode="&#x2013;" horiz-adv-x="1128" d="M68 506l36 266h994l-37 -266h-993z" />
<glyph unicode="&#x2014;" horiz-adv-x="1902" d="M113 508l39 264h1677l-39 -264h-1677z" />
<glyph unicode="&#x2018;" horiz-adv-x="534" d="M102 975l183 475q21 53 67 83t113 30q87 0 118.5 -51.5t6.5 -122.5l-135 -414h-353z" />
<glyph unicode="&#x2019;" horiz-adv-x="534" d="M111 1149l153 414h354l-200 -478q-21 -52 -67.5 -82t-114.5 -30q-86 0 -117 51.5t-8 124.5z" />
<glyph unicode="&#x201a;" horiz-adv-x="534" d="M-37 -76l129 412h352l-176 -473q-19 -53 -65 -83t-113 -30q-86 0 -117.5 50.5t-9.5 123.5z" />
<glyph unicode="&#x201c;" horiz-adv-x="899" d="M76 969l188 481q22 54 65.5 84.5t100.5 30.5q83 0 111.5 -50.5t-4.5 -123.5l-142 -422h-319zM485 969l187 481q24 56 62.5 85.5t103.5 29.5q57 0 87.5 -23t33 -61.5t-12.5 -89.5l-141 -422h-320z" />
<glyph unicode="&#x201d;" horiz-adv-x="899" d="M117 1017q-27 48 2 126l143 420h320l-189 -482q-46 -112 -166 -112q-83 0 -110 48zM526 1143l144 420h319l-188 -482q-20 -51 -64.5 -81.5t-101.5 -30.5q-166 0 -109 174z" />
<glyph unicode="&#x201e;" horiz-adv-x="899" d="M-37 -82l125 418h320l-172 -479q-45 -113 -164 -113q-161 0 -109 174zM368.5 -209q-24.5 47 2.5 127l127 418h319l-174 -479q-22 -53 -65 -83t-101 -30q-84 0 -108.5 47z" />
<glyph unicode="&#x2020;" d="M104 760l52 366l338 -28l28 426h373l-90 -426l340 26l-51 -364l-338 35l-135 -1176h-363l201 1176z" />
<glyph unicode="&#x2021;" d="M2 20l49 367l348 -35l-12 221l70 218l-355 -35l52 366l340 -30l26 432h373l-92 -432l342 28l-51 -364l-344 35l18 -218l-78 -221l352 35l-49 -364l-334 28l-30 -432h-371l92 432z" />
<glyph unicode="&#x2022;" horiz-adv-x="948" d="M137 678q0 171 91.5 267.5t250.5 96.5q160 0 252 -96.5t92 -267.5q0 -173 -92 -270t-252 -97q-159 0 -250.5 97.5t-91.5 269.5z" />
<glyph unicode="&#x2026;" horiz-adv-x="1576" d="M18 133q0 99 60 156t158 57q85 0 127.5 -39.5t42.5 -111.5q0 -98 -62 -156.5t-156 -58.5q-83 0 -126.5 40.5t-43.5 112.5zM543 133q0 98 60 155.5t157 57.5q86 0 129 -39.5t43 -111.5q0 -98 -61.5 -156.5t-155.5 -58.5q-83 0 -127.5 40.5t-44.5 112.5zM1069 133 q0 99 59.5 156t157.5 57q86 0 129 -39.5t43 -111.5q0 -97 -62 -156t-155 -59q-83 0 -127.5 40.5t-44.5 112.5z" />
<glyph unicode="&#x202f;" horiz-adv-x="404" />
<glyph unicode="&#x2030;" horiz-adv-x="2244" d="M111 973l39 293q20 132 101.5 201t217.5 69q139 0 204.5 -72.5t45.5 -203.5l-39 -291q-19 -132 -99.5 -201.5t-218.5 -69.5q-139 0 -205 73t-46 202zM227 0l895 1524h242l-893 -1524h-244zM326 965q-10 -91 55 -91q67 0 80 91l43 305q13 88 -55 88q-64 0 -80 -88z M870 264l41 293q19 132 100 201t218 69q139 0 206 -73t48 -205l-41 -289q-19 -132 -99.5 -201t-218.5 -69q-139 0 -206 72.5t-48 201.5zM1087 256q-13 -90 56 -90q67 0 80 90l43 305q10 88 -56 88q-67 0 -80 -88zM1530 264l41 293q19 132 100 201t217 69q139 0 206 -73 t48 -205l-41 -289q-19 -132 -99 -201t-218 -69q-139 0 -206 72.5t-48 201.5zM1749 256q-16 -90 53 -90q67 0 80 90l43 305q10 88 -55 88q-68 0 -78 -88z" />
<glyph unicode="&#x2039;" horiz-adv-x="751" d="M53 555q0 82 72 154l274 274h361l-400 -414l291 -395h-350l-209 272q-39 51 -39 109z" />
<glyph unicode="&#x203a;" horiz-adv-x="751" d="M-4 174l399 414l-291 395h351l209 -272q38 -52 38 -111q0 -80 -71 -151l-275 -275h-360z" />
<glyph unicode="&#x2044;" horiz-adv-x="40" d="M-547 0l893 1524h242l-891 -1524h-244z" />
<glyph unicode="&#x205f;" horiz-adv-x="505" />
<glyph unicode="&#x2070;" horiz-adv-x="655" d="M133 1171l41 293q19 132 100.5 201.5t217.5 69.5q139 0 204.5 -73t48.5 -206l-40 -289q-19 -132 -99.5 -201t-218.5 -69q-139 0 -205 72t-49 202zM352 1163q-16 -90 54 -90q66 0 79 90l41 305q13 88 -53 88q-67 0 -80 -88z" />
<glyph unicode="&#x2074;" horiz-adv-x="655" d="M90 1110q0 43 39 107l320 436q55 82 153 82q132 0 117 -123l-60 -416h70l-22 -164h-70l-16 -125h-213l16 125h-250q-42 0 -63 21t-21 57zM334 1196h112l29 201z" />
<glyph unicode="&#x2075;" horiz-adv-x="655" d="M98 958l39 170l62 -20q112 -35 170 -35t88 33t30 94q0 86 -92 86q-64 0 -162 -26l-69 -21l67 485h525l-27 -178h-342l-14 -106q42 14 108 14q119 0 174.5 -57t55.5 -172q0 -159 -89.5 -242.5t-248.5 -83.5q-113 0 -217 37z" />
<glyph unicode="&#x2076;" horiz-adv-x="655" d="M123 1188l41 285q17 124 107 192t225 68q93 0 200 -35l62 -23l-49 -172l-58 21q-86 28 -155 28q-103 0 -115 -82l-4 -30q56 14 106 14q236 0 236 -211q0 -141 -97 -241.5t-245 -100.5q-136 0 -203.5 78t-50.5 209zM342 1184q-15 -107 61 -107q43 0 68 36.5t25 90.5 q0 39 -16 57.5t-56 18.5q-20 0 -70 -10z" />
<glyph unicode="&#x2077;" horiz-adv-x="655" d="M162 907l360 639h-344l25 178h479q94 0 94 -86q0 -40 -39 -116l-336 -615h-239z" />
<glyph unicode="&#x2078;" horiz-adv-x="655" d="M111 1110q0 60 21 103.5t71 89.5l24 20l-16 27q-34 51 -37 123q0 123 83 192.5t222 69.5q121 0 190.5 -55t69.5 -158q0 -92 -75 -174l-23 -25l18 -20q50 -67 50 -142q0 -124 -89 -194t-233 -70q-130 0 -203 56t-73 157zM324 1133q0 -30 20 -49t57 -19q44 0 69.5 25 t25.5 67q0 29 -21 53l-16 25h-78l-23 -25q-34 -39 -34 -77zM377 1477q0 -31 16 -60l15 -20h73l19 20q30 43 30 80q0 64 -67 64q-39 0 -62.5 -24t-23.5 -60z" />
<glyph unicode="&#x2079;" horiz-adv-x="655" d="M109 958l47 172l57 -20q97 -32 158 -29q103 0 112 80l4 33q-56 -14 -106 -14q-119 0 -176.5 52.5t-57.5 158.5q0 141 96.5 241.5t245.5 100.5q137 0 204 -78.5t48 -208.5l-39 -285q-18 -124 -107.5 -192t-225.5 -68q-96 0 -199 35zM371 1430q0 -40 15.5 -59t55.5 -19 q20 0 68 12l12 86q18 106 -59 106q-44 0 -68 -35.5t-24 -90.5z" />
<glyph unicode="&#x207a;" horiz-adv-x="655" d="M150 1157v156h186v209h180v-209h193v-156h-193v-205h-180v205h-186z" />
<glyph unicode="&#x207b;" horiz-adv-x="655" d="M150 1157v158h559v-158h-559z" />
<glyph unicode="&#x207c;" horiz-adv-x="655" d="M150 1061v149h559v-149h-559zM150 1268v151h559v-151h-559z" />
<glyph unicode="&#x207d;" horiz-adv-x="436" d="M139 1161q0 111 23 208t70.5 178.5t131.5 129t195 47.5l-20 -151q-17 -1 -37 -8.5t-48.5 -34.5t-50.5 -69t-37.5 -121.5t-15.5 -182.5q0 -56 10 -94t28 -54.5t32.5 -22t34.5 -7.5l-21 -154q-43 0 -80.5 7.5t-78.5 29.5t-70 58t-47.5 98t-18.5 143z" />
<glyph unicode="&#x207e;" horiz-adv-x="436" d="M82 825l22 152q18 2 37.5 9.5t48 35t50.5 69.5t37.5 120.5t15.5 181.5q0 57 -10 95t-29 55t-33.5 22.5t-34.5 7.5l23 151q43 0 80.5 -7t78 -29t69 -57.5t47 -97t18.5 -142.5q0 -89 -13.5 -169t-45.5 -153.5t-79.5 -126.5t-119.5 -85t-162 -32z" />
<glyph unicode="&#x207f;" horiz-adv-x="778" d="M133 844l74 530q14 100 117 123q129 33 223 33q151 0 213.5 -65t46.5 -179l-62 -442h-239l59 424q10 63 -53 63q-30 0 -72 -12l-67 -475h-240z" />
<glyph unicode="&#x2080;" horiz-adv-x="655" d="M-23 59l41 293q19 132 100.5 201.5t217.5 69.5q139 0 205 -73.5t49 -205.5l-41 -289q-19 -132 -99.5 -201t-218.5 -69q-139 0 -205 72t-49 202zM197 51q-16 -90 53 -90q67 0 80 90l41 305q13 88 -54 88q-66 0 -79 -88z" />
<glyph unicode="&#x2081;" horiz-adv-x="655" d="M-63 -205l22 170h203l65 471h-14q-24 0 -64 -9.5t-67 -25.5l-8 170q90 41 205 41h73q60 0 88.5 -30t22.5 -84l-76 -533h164l-25 -170h-589z" />
<glyph unicode="&#x2082;" horiz-adv-x="655" d="M-57 -125q0 68 49 109l250 202q68 54 96 89t29 85q0 40 -24.5 61t-70.5 21q-69 0 -159 -32l-60 -21l-26 172l65 23q105 34 219 37q129 0 204 -57.5t75 -170.5q0 -87 -42 -154t-147 -153l-155 -125h282l-24 -166h-477q-41 0 -62.5 22t-21.5 58z" />
<glyph unicode="&#x2083;" horiz-adv-x="655" d="M-61 -156l47 174l63 -20q115 -39 176 -37q55 0 85 22.5t30 61.5q0 27 -21 55l-14 25h-166l21 160h159l21 20q26 30 31 64q0 73 -97 73q-78 0 -165 -32l-60 -21l-18 174l65 21q109 37 217 37q131 0 203 -52t72 -159q0 -52 -19 -93t-57 -84l-23 -26l17 -21q53 -62 53 -139 q0 -124 -95.5 -192t-240.5 -68q-104 0 -223 39z" />
<glyph unicode="&#x2084;" horiz-adv-x="655" d="M-57 -2q0 42 39 106l319 437q55 82 154 82q131 0 116 -123l-59 -416h70l-23 -164h-70l-16 -125h-213l16 125h-249q-42 0 -63 21t-21 57zM186 84h113l29 201z" />
<glyph unicode="&#x2085;" horiz-adv-x="655" d="M-49 -154l39 170l61 -20q112 -35 170 -35t88.5 33t30.5 94q0 86 -92 86q-60 0 -162 -27l-70 -20l68 485h524l-26 -178h-342l-15 -106q42 14 109 14q119 0 174 -56.5t55 -172.5q0 -159 -89.5 -242.5t-248.5 -83.5q-113 0 -217 37z" />
<glyph unicode="&#x2086;" horiz-adv-x="655" d="M-25 76l41 284q17 124 107 192.5t225 68.5q94 0 201 -35l61 -23l-49 -172l-57 21q-86 28 -156 28q-103 0 -115 -82l-4 -30q56 14 107 14q235 0 235 -211q0 -141 -97 -241.5t-245 -100.5q-136 0 -203.5 78t-50.5 209zM195 72q-15 -107 61 -107q43 0 67.5 36t24.5 91 q0 39 -16 57.5t-56 18.5q-19 0 -69 -10z" />
<glyph unicode="&#x2087;" horiz-adv-x="655" d="M14 -205l361 639h-344l24 178h480q94 0 94 -86q0 -40 -39 -116l-336 -615h-240z" />
<glyph unicode="&#x2088;" horiz-adv-x="655" d="M-37 -2q0 59 21 102.5t71 89.5l25 21l-17 27q-33 50 -36 122q0 123 83.5 193t221.5 70q121 0 190.5 -55t69.5 -158q0 -91 -76 -174l-22 -25l18 -21q49 -66 49 -141q0 -124 -88.5 -194t-232.5 -70q-130 0 -203.5 56t-73.5 157zM176 20q0 -30 20.5 -48.5t57.5 -18.5 q44 0 69 25t25 67q0 30 -20 53l-17 25h-78l-22 -25q-35 -40 -35 -78zM229 365q0 -29 17 -60l14 -20h74l18 20q31 45 31 80q0 30 -17.5 47t-50.5 17q-39 0 -62.5 -24t-23.5 -60z" />
<glyph unicode="&#x2089;" horiz-adv-x="655" d="M-39 -154l47 172l58 -20q97 -32 157 -29q104 0 113 80l4 33q-56 -14 -107 -14q-119 0 -176 52.5t-57 158.5q0 141 96.5 241.5t245.5 100.5q137 0 204 -78.5t48 -208.5l-39 -285q-18 -124 -108 -192t-226 -68q-95 0 -198 35zM223 317q0 -39 15.5 -58t56.5 -19q19 0 67 12 l13 86q18 106 -60 106q-44 0 -68 -36t-24 -91z" />
<glyph unicode="&#x208d;" horiz-adv-x="436" d="M-8 49q0 111 23 208t70.5 178.5t131.5 129t195 47.5l-21 -151q-17 -1 -37 -8.5t-48.5 -34.5t-50 -69t-37 -121.5t-15.5 -182.5q0 -46 7.5 -79.5t17 -51.5t25.5 -28.5t27 -13.5t27 -5l-20 -154q-43 0 -80.5 7.5t-78.5 29.5t-70 58t-47.5 98t-18.5 143z" />
<glyph unicode="&#x208e;" horiz-adv-x="436" d="M-66 -287l23 152q18 2 37.5 9.5t48 35t50 69.5t37 120.5t15.5 181.5q0 57 -10 95t-28.5 55t-33 22.5t-34.5 7.5l22 151q43 0 80.5 -7t78 -29t69 -57.5t47 -97t18.5 -142.5q0 -89 -13.5 -169t-45.5 -153.5t-79.5 -126.5t-119.5 -85t-162 -32z" />
<glyph unicode="&#x20ac;" d="M43 494l31 211h119l20 129h-121l29 210h125q23 129 76 226t129 155.5t167.5 87.5t198.5 29q134 0 297 -55l84 -27l-70 -284l-79 28q-128 47 -226 47q-187 0 -219 -207h318l-29 -210h-326l-20 -129h327l-28 -211h-320q-25 -213 164 -213q105 0 230 41l90 28l39 -280 l-95 -31q-163 -55 -325 -55q-241 0 -363.5 128t-95.5 382h-127z" />
<glyph unicode="&#x2113;" horiz-adv-x="800" d="M31 434l151 115v244q0 127 16 234t49 192.5t88.5 133.5t129.5 48q91 0 138.5 -75t47.5 -181q0 -108 -41.5 -210.5t-105 -184t-160.5 -172.5v-168q0 -185 46.5 -257.5t141.5 -72.5q130 0 230 149l39 -34q-128 -220 -342 -220q-70 0 -118.5 16t-85.5 55.5t-55 110 t-18 175.5v147l-125 -92zM344 662q91 106 146 229t55 248q0 86 -26 143t-73 57q-57 0 -79.5 -98t-22.5 -330v-249z" />
<glyph unicode="&#x2122;" horiz-adv-x="1910" d="M154 1327v197h712v-197h-223v-663h-266v663h-223zM940 664v710q0 77 52 118.5t143 41.5q172 0 202 -141l84 -332l88 332q33 141 207 141q86 0 134 -41t48 -113v-716h-235v524l-117 -443q-21 -88 -131 -88q-112 0 -133 88l-115 443v-524h-227z" />
<glyph unicode="&#x2126;" horiz-adv-x="1560" d="M8 0l35 270h301q-103 67 -170.5 186.5t-67.5 284.5q0 241 101.5 423.5t279 278t404.5 95.5q298 0 469.5 -158t171.5 -442q0 -103 -21.5 -196t-57.5 -163.5t-86 -131.5t-102.5 -103t-111.5 -74h303l-35 -270h-522q-131 0 -131 135q0 52 22.5 109.5t65.5 87.5 q244 163 244 581q0 153 -60 233.5t-176 80.5q-150 0 -247 -158t-97 -414q0 -70 9.5 -122t29 -89t39.5 -60.5t51 -49.5q51 -45 51 -125q0 -93 -49.5 -151t-138.5 -58h-504z" />
<glyph unicode="&#x212e;" horiz-adv-x="1560" d="M59 627q0 175 96.5 324t262.5 236t360 87q149 0 283.5 -53t230 -142.5t151.5 -212.5t56 -258h-1165q-10 0 -10 -8v-352q0 -23 16 -39q156 -162 440 -162q304 0 463 184h105q-98 -116 -248.5 -182.5t-321.5 -66.5q-194 0 -360 86.5t-262.5 235t-96.5 323.5zM324 686 q0 -12 10 -12h893q8 0 8 12v324q0 23 -18 41q-166 163 -437 163t-438 -170q-18 -15 -18 -43v-315z" />
<glyph unicode="&#x2153;" horiz-adv-x="1591" d="M63 707l23 170h203l65 471h-14q-24 0 -64 -9.5t-67 -25.5l-8 170q90 41 205 41h73q60 0 88.5 -30.5t22.5 -84.5l-76 -532h164l-25 -170h-590zM260 0l893 1524h242l-891 -1524h-244zM885 49l47 174l63 -20q115 -39 176 -37q55 0 85 22.5t30 61.5q0 28 -20 55l-15 25h-166 l21 159h160l20 21q26 30 31 63q0 74 -96 74q-76 0 -166 -33l-60 -20l-18 174l65 20q109 37 218 37q130 0 202 -52t72 -159q0 -52 -19 -92.5t-57 -83.5l-22 -26l16 -21q53 -62 53 -139q0 -124 -95.5 -192t-240.5 -68q-104 0 -223 39z" />
<glyph unicode="&#x2154;" horiz-adv-x="1591" d="M70 786q0 68 49 109l250 203q68 54 96 89t29 85q0 40 -24.5 61t-70.5 21q-66 0 -159 -33l-60 -21l-26 173l65 22q105 34 219 37q129 0 204 -57t75 -170q0 -87 -42 -155t-147 -153l-155 -125h282l-24 -165h-477q-41 0 -62.5 22t-21.5 57zM252 0l893 1524h241l-890 -1524 h-244zM885 49l47 174l63 -20q115 -39 176 -37q55 0 85 22.5t30 61.5q0 28 -20 55l-15 25h-166l21 159h160l20 21q26 30 31 63q0 74 -96 74q-76 0 -166 -33l-60 -20l-18 174l65 20q109 37 218 37q130 0 202 -52t72 -159q0 -52 -19 -92.5t-57 -83.5l-22 -26l16 -21 q53 -62 53 -139q0 -124 -95.5 -192t-240.5 -68q-104 0 -223 39z" />
<glyph unicode="&#x2155;" horiz-adv-x="1591" d="M63 707l23 170h203l65 471h-14q-24 0 -64 -9.5t-67 -25.5l-8 170q90 41 205 41h73q60 0 88.5 -30.5t22.5 -84.5l-76 -532h164l-25 -170h-590zM272 0l893 1524h242l-891 -1524h-244zM897 51l39 170l61 -20q112 -35 170 -35t88.5 33t30.5 94q0 86 -92 86q-60 0 -162 -27 l-69 -20l67 485h524l-26 -178h-342l-15 -107q45 15 109 15q118 0 173.5 -57t55.5 -173q0 -159 -89.5 -242t-248.5 -83q-113 0 -217 37z" />
<glyph unicode="&#x2156;" horiz-adv-x="1591" d="M70 786q0 68 49 109l250 203q68 54 96 89t29 85q0 40 -24.5 61t-70.5 21q-66 0 -159 -33l-60 -21l-26 173l65 22q105 34 219 37q129 0 204 -57t75 -170q0 -87 -42 -155t-147 -153l-155 -125h282l-24 -165h-477q-41 0 -62.5 22t-21.5 57zM260 0l893 1524h242l-891 -1524 h-244zM897 51l39 170l61 -20q112 -35 170 -35t88.5 33t30.5 94q0 86 -92 86q-60 0 -162 -27l-69 -20l67 485h524l-26 -178h-342l-15 -107q45 15 109 15q118 0 173.5 -57t55.5 -173q0 -159 -89.5 -242t-248.5 -83q-113 0 -217 37z" />
<glyph unicode="&#x2157;" horiz-adv-x="1591" d="M66 756l47 174l63 -21q115 -39 176 -37q55 0 85 22.5t30 61.5q0 28 -21 56l-14 24h-166l21 160h159l21 21q26 30 31 63q0 74 -97 74q-75 0 -165 -33l-60 -21l-18 175l65 20q109 37 217 37q131 0 203 -52t72 -159q0 -52 -19 -92.5t-57 -83.5l-23 -27l17 -20 q53 -62 53 -140q0 -124 -95.5 -192t-240.5 -68q-104 0 -223 39zM244 0l893 1524h241l-891 -1524h-243zM897 51l39 170l61 -20q112 -35 170 -35t88.5 33t30.5 94q0 86 -92 86q-60 0 -162 -27l-69 -20l67 485h524l-26 -178h-342l-15 -107q45 15 109 15q118 0 173.5 -57 t55.5 -173q0 -159 -89.5 -242t-248.5 -83q-113 0 -217 37z" />
<glyph unicode="&#x2158;" horiz-adv-x="1591" d="M70 909q0 43 39 107l319 436q55 82 154 82q131 0 116 -123l-59 -416h70l-23 -164h-70l-16 -124h-213l16 124h-249q-42 0 -63 21t-21 57zM260 0l893 1524h242l-891 -1524h-244zM313 995h113l29 201zM897 51l39 170l61 -20q112 -35 170 -35t88.5 33t30.5 94q0 86 -92 86 q-60 0 -162 -27l-69 -20l67 485h524l-26 -178h-342l-15 -107q45 15 109 15q118 0 173.5 -57t55.5 -173q0 -159 -89.5 -242t-248.5 -83q-113 0 -217 37z" />
<glyph unicode="&#x2159;" horiz-adv-x="1591" d="M63 707l23 170h203l65 471h-14q-24 0 -64 -9.5t-67 -25.5l-8 170q90 41 205 41h73q60 0 88.5 -30.5t22.5 -84.5l-76 -532h164l-25 -170h-590zM285 0l893 1524h241l-891 -1524h-243zM922 281l41 284q17 124 106.5 192t224.5 68q97 0 201 -34l61 -23l-49 -172l-57 20 q-89 29 -156 29q-102 0 -114 -82l-4 -31q60 15 106 15q236 0 236 -211q0 -141 -97 -241.5t-245 -100.5q-136 0 -203.5 78t-50.5 209zM1141 276q-15 -106 61 -106q43 0 67.5 36t24.5 91q0 39 -15.5 57.5t-55.5 18.5q-15 0 -70 -11z" />
<glyph unicode="&#x215a;" horiz-adv-x="1591" d="M78 758l39 170l61 -21q112 -35 170 -35t88.5 33t30.5 94q0 86 -92 86q-64 0 -162 -26l-70 -21l68 486h524l-26 -178h-342l-15 -107q42 14 109 14q119 0 174 -56.5t55 -172.5q0 -159 -89.5 -242.5t-248.5 -83.5q-113 0 -217 37zM256 0l893 1524h242l-891 -1524h-244z M922 281l41 284q17 124 106.5 192t224.5 68q97 0 201 -34l61 -23l-49 -172l-57 20q-89 29 -156 29q-102 0 -114 -82l-4 -31q60 15 106 15q236 0 236 -211q0 -141 -97 -241.5t-245 -100.5q-136 0 -203.5 78t-50.5 209zM1141 276q-15 -106 61 -106q43 0 67.5 36t24.5 91 q0 39 -15.5 57.5t-55.5 18.5q-15 0 -70 -11z" />
<glyph unicode="&#x215b;" horiz-adv-x="1591" d="M63 707l23 170h203l65 471h-14q-24 0 -64 -9.5t-67 -25.5l-8 170q90 41 205 41h73q60 0 88.5 -30.5t22.5 -84.5l-76 -532h164l-25 -170h-590zM272 0l893 1524h242l-891 -1524h-244zM909 203q0 59 21 102.5t71 89.5l25 21l-16 26q-34 51 -37 123q0 123 83 192.5t222 69.5 q121 0 190.5 -55t69.5 -158q0 -91 -76 -174l-22 -24l18 -21q49 -66 49 -141q0 -124 -88.5 -194t-232.5 -70q-130 0 -203.5 56t-73.5 157zM1122 225q0 -30 20.5 -48.5t57.5 -18.5q44 0 69 25t25 67q0 30 -20 53l-17 25h-77l-23 -25q-35 -40 -35 -78zM1176 569q0 -30 16 -59 l14 -21h74l18 21q31 45 31 80q0 63 -67 63q-39 0 -62.5 -24t-23.5 -60z" />
<glyph unicode="&#x215c;" horiz-adv-x="1591" d="M66 760l47 174l63 -21q113 -38 176 -36q55 0 85 22.5t30 61.5q0 27 -21 55l-14 24h-166l21 160h159l21 21q26 30 31 63q0 74 -97 74q-75 0 -165 -33l-60 -20l-18 174l65 20q109 37 217 37q131 0 203 -52t72 -159q0 -52 -19 -92.5t-57 -83.5l-23 -27l17 -20 q53 -62 53 -139q0 -124 -95.5 -192.5t-240.5 -68.5q-104 0 -223 39zM258 0l893 1524h242l-891 -1524h-244zM909 203q0 59 21 102.5t71 89.5l25 21l-16 26q-34 51 -37 123q0 123 83 192.5t222 69.5q121 0 190.5 -55t69.5 -158q0 -91 -76 -174l-22 -24l18 -21q49 -66 49 -141 q0 -124 -88.5 -194t-232.5 -70q-130 0 -203.5 56t-73.5 157zM1122 225q0 -30 20.5 -48.5t57.5 -18.5q44 0 69 25t25 67q0 30 -20 53l-17 25h-77l-23 -25q-35 -40 -35 -78zM1176 569q0 -30 16 -59l14 -21h74l18 21q31 45 31 80q0 63 -67 63q-39 0 -62.5 -24t-23.5 -60z" />
<glyph unicode="&#x215d;" horiz-adv-x="1591" d="M78 758l39 170l61 -21q112 -35 170 -35t88.5 33t30.5 94q0 86 -92 86q-64 0 -162 -26l-70 -21l68 486h524l-26 -178h-342l-15 -107q42 14 109 14q119 0 174 -56.5t55 -172.5q0 -159 -89.5 -242.5t-248.5 -83.5q-113 0 -217 37zM254 0l893 1524h242l-891 -1524h-244z M909 203q0 59 21 102.5t71 89.5l25 21l-16 26q-34 51 -37 123q0 123 83 192.5t222 69.5q121 0 190.5 -55t69.5 -158q0 -91 -76 -174l-22 -24l18 -21q49 -66 49 -141q0 -124 -88.5 -194t-232.5 -70q-130 0 -203.5 56t-73.5 157zM1122 225q0 -30 20.5 -48.5t57.5 -18.5 q44 0 69 25t25 67q0 30 -20 53l-17 25h-77l-23 -25q-35 -40 -35 -78zM1176 569q0 -30 16 -59l14 -21h74l18 21q31 45 31 80q0 63 -67 63q-39 0 -62.5 -24t-23.5 -60z" />
<glyph unicode="&#x215e;" horiz-adv-x="1591" d="M141 707l361 639h-344l24 178h480q94 0 94 -86q0 -41 -39 -117l-336 -614h-240zM227 0l893 1524h242l-891 -1524h-244zM909 203q0 59 21 102.5t71 89.5l25 21l-16 26q-34 51 -37 123q0 123 83 192.5t222 69.5q121 0 190.5 -55t69.5 -158q0 -91 -76 -174l-22 -24l18 -21 q49 -66 49 -141q0 -124 -88.5 -194t-232.5 -70q-130 0 -203.5 56t-73.5 157zM1122 225q0 -30 20.5 -48.5t57.5 -18.5q44 0 69 25t25 67q0 30 -20 53l-17 25h-77l-23 -25q-35 -40 -35 -78zM1176 569q0 -30 16 -59l14 -21h74l18 21q31 45 31 80q0 63 -67 63q-39 0 -62.5 -24 t-23.5 -60z" />
<glyph unicode="&#x215f;" horiz-adv-x="794" d="M63 707l23 170h203l65 471h-14q-24 0 -64 -9.5t-67 -25.5l-8 170q90 41 205 41h73q60 0 88.5 -30.5t22.5 -84.5l-76 -532h164l-25 -170h-590zM272 0l893 1524h242l-891 -1524h-244z" />
<glyph unicode="&#x2202;" horiz-adv-x="1202" d="M59 506q0 245 123.5 376.5t364.5 131.5q108 0 203 -33v72q0 168 -195 168q-123 0 -305 -60l-103 -35l-53 308l109 36q198 66 381 66q248 0 400.5 -129t152.5 -356v-535q0 -244 -142.5 -385t-396.5 -141q-255 0 -397 140t-142 376zM451 500q0 -98 38.5 -149.5t108.5 -51.5 q152 0 152 213v172q-96 23 -134 23q-90 0 -127.5 -53t-37.5 -154z" />
<glyph unicode="&#x2206;" d="M39 0l270 1343q18 96 92.5 145.5t186.5 49.5q108 0 182 -50t92 -145l262 -1343h-1085zM444 326h275l-139 718z" />
<glyph unicode="&#x220f;" horiz-adv-x="1476" d="M61 1214v310h1356v-310h-162v-1214h-411v1214h-205v-1214h-412v1214h-166z" />
<glyph unicode="&#x2211;" d="M43 -166q0 77 55 178l332 570l-332 561q-55 98 -55 180q0 90 50.5 145.5t146.5 55.5h839v-500h-317v195h-326l369 -637l-369 -643h346v196h318v-502h-860q-96 0 -146.5 55.5t-50.5 145.5z" />
<glyph unicode="&#x2212;" d="M88 465v278h965v-278h-965z" />
<glyph unicode="&#x2215;" horiz-adv-x="40" d="M-547 0l893 1524h242l-891 -1524h-244z" />
<glyph unicode="&#x2219;" horiz-adv-x="739" d="M201 698q0 97 59.5 155t157.5 58q84 0 127 -40t43 -111q0 -98 -61.5 -156.5t-155.5 -58.5q-83 0 -126.5 40.5t-43.5 112.5z" />
<glyph unicode="&#x221a;" d="M23 862v268h417l125 -712l183 1106h397v-271h-92l-232 -1108q-21 -83 -90 -126.5t-172 -43.5q-101 0 -169 43.5t-91 126.5l-170 717h-106z" />
<glyph unicode="&#x221e;" horiz-adv-x="1638" d="M74 612q0 210 104.5 333.5t310.5 123.5q124 0 254 -70l78 -38l78 38q133 70 254 70q207 0 312.5 -124t105.5 -333q0 -210 -105.5 -333t-312.5 -123q-122 0 -254 69l-78 39l-78 -39q-132 -69 -254 -69q-207 0 -311 122.5t-104 333.5zM389 612q0 -95 32.5 -141.5 t90.5 -46.5q49 0 102 27l33 16v291l-33 16q-53 27 -102 27q-58 0 -90.5 -47t-32.5 -142zM995 467l35 -16q50 -27 100 -27q58 0 90.5 46.5t32.5 141.5t-32.5 142t-90.5 47q-50 0 -100 -27l-35 -16v-291z" />
<glyph unicode="&#x222b;" d="M199 -106q71 1 101 32t30 97v1157q0 188 110.5 287.5t309.5 99.5q134 0 305 -51l-43 -267q-122 33 -185 33q-73 0 -103 -30.5t-30 -102.5v-1133q0 -387 -495 -387v265z" />
<glyph unicode="&#x2248;" d="M29 326q139 272 379 272q55 0 96 -15.5t88 -47.5l70 -48q41 -32 90 -32q90 0 159 137l172 -135q-139 -264 -381 -264q-102 -3 -188 63l-63 47q-19 12 -26.5 16.5t-26.5 10.5t-40 6q-82 0 -153 -133zM66 758q142 270 378 270q96 0 187 -61l67 -47q49 -35 88 -35 q92 0 162 137l176 -133q-80 -142 -174.5 -204t-210.5 -62q-94 0 -186 63l-68 47q-1 1 -11.5 8t-13 8t-12 6t-15.5 6.5t-16 3t-20 1.5q-85 0 -153 -131z" />
<glyph unicode="&#x2260;" d="M84 291v256h315l60 129h-375v256h496l116 250h267l-115 -250h209v-256h-330l-57 -129h387v-256h-508l-100 -215h-271l101 215h-195z" />
<glyph unicode="&#x2264;" d="M86 0v262h971v-262h-971zM86 727q0 86 37.5 135t112.5 70l821 227v-291l-604 -141l604 -143v-283l-815 221q-78 21 -117 70t-39 135z" />
<glyph unicode="&#x2265;" d="M84 0v262h971v-262h-971zM84 301v283l606 143l-606 141v291l819 -227q77 -21 114.5 -70t37.5 -135t-39 -135t-117 -70z" />
<glyph unicode="&#x25ca;" d="M23 760l356 696q47 90 194 90q142 0 191 -90l354 -696l-356 -697q-47 -86 -193 -86q-142 0 -190 91zM389 762l184 -393l187 393l-187 393z" />
<glyph unicode="&#xe000;" horiz-adv-x="1126" d="M0 0v1126h1126v-1126h-1126z" />
<glyph unicode="&#xf6c3;" horiz-adv-x="1042" d="M303 -262l74 180h348l-113 -246q-25 -57 -66.5 -86.5t-113.5 -29.5q-94 0 -127 52.5t-2 129.5z" />
<glyph unicode="&#xfb04;" horiz-adv-x="2125" d="M-80 -377l35 252q67 1 100.5 35.5t42.5 105.5l119 854h-135l35 258h137l10 68q52 383 510 383q233 0 440 -68q115 68 281 68q154 0 305 -51l367 67l-223 -1595h-357l178 1274q-116 33 -225 33q-89 0 -130 -31.5t-54 -112.5l-6 -35h286l-37 -258h-284l-121 -860 q-26 -190 -157 -288.5t-363 -98.5l35 252q69 1 102 35.5t41 105.5l119 854h-412l-119 -860q-26 -190 -157.5 -288.5t-362.5 -98.5zM596 1128h412l10 68q5 46 22 98q-109 25 -223 25q-191 0 -217 -156z" />
<glyph horiz-adv-x="655" d="M20 264l41 293q19 132 100 201t218 69q139 0 205 -73t49 -205l-41 -289q-19 -132 -99.5 -201t-218.5 -69q-139 0 -205 72t-49 202zM240 256q-16 -90 53 -90q67 0 80 90l41 305q13 88 -54 88q-66 0 -79 -88z" />
<glyph horiz-adv-x="655" d="M-20 0l22 170h203l65 471h-14q-24 0 -64 -9.5t-67 -25.5l-8 170q90 41 205 41h73q60 0 88.5 -30.5t22.5 -84.5l-76 -532h164l-25 -170h-589z" />
<glyph horiz-adv-x="655" d="M-14 80q0 67 49 108l250 203q68 54 96 89t29 85q0 40 -24.5 61t-70.5 21q-66 0 -159 -33l-60 -20l-26 172l65 22q105 34 219 37q129 0 204 -57t75 -170q0 -87 -42 -154t-147 -153l-155 -125h282l-24 -166h-477q-41 0 -62.5 22t-21.5 58z" />
<glyph horiz-adv-x="655" d="M-18 49l47 174l63 -20q115 -39 176 -37q55 0 85 22.5t30 61.5q0 27 -21 55l-14 25h-166l21 159h159l21 21q26 30 31 63q0 74 -97 74q-75 0 -165 -33l-60 -20l-18 174l65 20q109 37 217 37q131 0 203 -52t72 -159q0 -52 -19 -92.5t-57 -83.5l-23 -26l17 -21 q53 -62 53 -139q0 -124 -95.5 -192t-240.5 -68q-104 0 -223 39z" />
<glyph horiz-adv-x="655" d="M-14 203q0 42 39 106l319 436q55 82 154 82q66 0 94.5 -29.5t21.5 -92.5l-59 -416h70l-23 -164h-70l-16 -125h-213l16 125h-249q-42 0 -63 21t-21 57zM229 289h113l29 200z" />
<glyph horiz-adv-x="655" d="M-6 51l39 170l61 -20q112 -35 170 -35t88.5 33t30.5 94q0 86 -92 86q-60 0 -162 -27l-70 -20l68 485h524l-26 -178h-342l-15 -107q45 15 109 15q118 0 173.5 -57t55.5 -173q0 -159 -89.5 -242t-248.5 -83q-113 0 -217 37z" />
<glyph horiz-adv-x="655" d="M18 281l41 284q17 124 107 192t225 68q97 0 201 -34l61 -23l-49 -172l-57 20q-89 29 -156 29q-103 0 -115 -82l-4 -31q60 15 107 15q235 0 235 -211q0 -141 -97 -241.5t-245 -100.5q-136 0 -203.5 78t-50.5 209zM238 276q-15 -106 61 -106q43 0 67.5 36t24.5 91 q0 39 -16 57.5t-56 18.5q-14 0 -69 -11z" />
<glyph horiz-adv-x="655" d="M57 0l361 639h-344l24 178h480q94 0 94 -86q0 -41 -39 -117l-336 -614h-240z" />
<glyph horiz-adv-x="655" d="M6 203q0 59 21 102.5t71 89.5l25 21l-17 26q-33 50 -36 123q0 123 83 192.5t222 69.5q121 0 190.5 -55t69.5 -158q0 -91 -76 -174l-22 -24l18 -21q49 -66 49 -141q0 -124 -88.5 -194t-232.5 -70q-130 0 -203.5 56t-73.5 157zM219 225q0 -30 20.5 -48.5t57.5 -18.5 q44 0 69 25t25 67q0 30 -20 53l-17 25h-78l-22 -25q-35 -40 -35 -78zM272 569q0 -28 17 -59l14 -21h74l18 21q31 45 31 80q0 63 -68 63q-39 0 -62.5 -24t-23.5 -60z" />
<glyph horiz-adv-x="655" d="M4 51l47 172l58 -20q97 -32 157 -29q104 0 113 80l4 33q-60 -15 -107 -15q-119 0 -176 52.5t-57 158.5q0 141 96.5 241.5t245.5 100.5q137 0 204 -78t48 -208l-39 -285q-18 -124 -108 -192t-226 -68q-95 0 -198 35zM266 522q0 -39 15.5 -58.5t56.5 -19.5q16 0 68 13 l12 86q18 106 -60 106q-44 0 -68 -36t-24 -91z" />
<glyph horiz-adv-x="655" d="M47 242q0 144 71 239.5t185 122.5l21 148h170l-21 -144q43 -6 94 -22l51 -17l-51 -163l-49 14q-88 26 -123 24q-64 0 -97.5 -51t-33.5 -131q0 -98 92 -98q33 0 131 24l64 17l2 -162l-55 -18q-47 -15 -111 -27l-20 -143h-170l20 149q-79 21 -124.5 82.5t-45.5 155.5z" />
<glyph horiz-adv-x="655" d="M-10 47l59 195l72 -25q82 -31 176 -31q37 0 58.5 16.5t21.5 49.5q0 37 -47 49l-99 29q-91 27 -134.5 76t-43.5 133q0 119 70.5 189.5t177.5 86.5l21 137h167l-20 -135q55 -3 127 -26l72 -21l-56 -197l-75 25q-95 31 -177 31q-34 0 -54.5 -15.5t-20.5 -42.5q0 -43 49 -57 l98 -29q89 -28 131.5 -71t42.5 -121q0 -125 -70.5 -200t-181.5 -95l-18 -139h-168l20 137q-73 9 -131 31z" />
<glyph horiz-adv-x="655" d="M4 258l19 125h69l8 57h-69l18 125h70q27 127 111 193.5t210 66.5q94 0 174 -24l52 -19l-45 -170l-52 19q-68 22 -120 22q-93 0 -113 -88h182l-18 -125h-187l-8 -57h187l-19 -125h-180q-1 -46 23.5 -70t68.5 -24q57 0 131 24l55 19l17 -166l-56 -18q-102 -31 -188 -31 q-130 0 -204 69t-64 197h-72z" />
<glyph horiz-adv-x="491" d="M25 264l22 158h414l-21 -158h-415z" />
<glyph horiz-adv-x="655" d="M45 250v156h186v208h181v-208h192v-156h-192v-205h-181v205h-186z" />
<glyph horiz-adv-x="655" d="M45 250v158h559v-158h-559z" />
<glyph horiz-adv-x="655" d="M45 154v149h559v-149h-559zM45 360v152h559v-152h-559z" />
<glyph horiz-adv-x="436" d="M35 254q0 111 23 208t70.5 178.5t131.5 129t195 47.5l-21 -151q-17 -1 -37 -8.5t-48.5 -34.5t-50 -69t-37 -121.5t-15.5 -182.5q0 -46 7.5 -79.5t17 -51.5t25.5 -28.5t27 -13.5t27 -5l-20 -154q-43 0 -80.5 7.5t-78.5 29.5t-70 58t-47.5 98t-18.5 143z" />
<glyph horiz-adv-x="436" d="M-23 -82l23 152q18 2 37.5 9.5t48 34.5t50 69t37 120.5t15.5 181.5q0 57 -10 95.5t-28.5 55t-33 22.5t-34.5 8l22 151q43 0 80.5 -7t78 -29t69 -57.5t47 -97.5t18.5 -143q0 -89 -13.5 -168.5t-45.5 -153t-79.5 -127t-119.5 -85t-162 -31.5z" />
<glyph horiz-adv-x="303" d="M6 -35l80 223h213l-106 -260q-29 -67 -109 -67q-56 0 -75 29.5t-3 74.5z" />
<glyph horiz-adv-x="303" d="M29 76q0 55 35.5 90t95.5 35q49 0 74.5 -24t25.5 -66q0 -53 -36.5 -88t-94.5 -35q-47 0 -73.5 24t-26.5 64z" />
<glyph horiz-adv-x="655" d="M20 264l41 293q19 132 100 201t218 69q139 0 205 -73t49 -205l-41 -289q-19 -132 -99.5 -201t-218.5 -69q-139 0 -205 72t-49 202zM248 328l153 305q-13 16 -41 16q-66 0 -79 -88zM264 170q16 -4 29 -4q67 0 80 90l24 180z" />
<glyph horiz-adv-x="655" d="M96 971l41 293q19 132 100 201t218 69q139 0 205 -73.5t49 -205.5l-41 -288q-19 -132 -99.5 -201.5t-218.5 -69.5q-139 0 -205 72.5t-49 202.5zM315 963q-8 -42 6 -66.5t48 -24.5q67 0 80 91l40 305q13 88 -53 88q-67 0 -80 -88z" />
<glyph horiz-adv-x="655" d="M41 707l22 170h203l66 471h-15q-24 0 -64 -9.5t-67 -25.5l-8 170q90 41 205 41h74q59 0 87.5 -30t22.5 -85l-75 -532h163l-24 -170h-590z" />
<glyph horiz-adv-x="655" d="M61 786q0 68 50 109l249 203q68 54 96 89t29 85q0 82 -94 82q-67 0 -160 -33l-59 -21l-27 173l66 22q105 34 219 37q129 0 204 -57t75 -170q0 -87 -42 -155t-147 -153l-155 -125h282l-24 -165h-478q-41 0 -62.5 22t-21.5 57z" />
<glyph horiz-adv-x="655" d="M57 756l47 174l64 -21q115 -39 176 -37q55 0 85 22.5t30 61.5q0 28 -21 56l-14 24h-166l21 160h159l21 21q25 28 30 63q0 74 -96 74q-76 0 -166 -33l-59 -21l-18 175l65 20q109 37 217 37q131 0 203 -52t72 -159q0 -52 -19 -92.5t-57 -83.5l-23 -27l17 -20 q53 -62 53 -140q0 -124 -95.5 -192t-240.5 -68q-104 0 -223 39z" />
<glyph horiz-adv-x="655" d="M47 909q0 43 39 107l320 436q55 82 153 82q132 0 117 -123l-60 -416h70l-22 -164h-70l-16 -124h-213l16 124h-250q-42 0 -63 21t-21 57zM291 995h112l29 201z" />
<glyph horiz-adv-x="655" d="M70 758l39 170l61 -21q112 -35 170 -35t88.5 33t30.5 94q0 86 -92 86q-64 0 -162 -26l-70 -21l68 486h524l-27 -178h-342l-14 -107q42 14 109 14q119 0 174 -56.5t55 -172.5q0 -159 -89.5 -242.5t-248.5 -83.5q-113 0 -217 37z" />
<glyph horiz-adv-x="655" d="M94 987l41 285q17 124 107 192t225 68q94 0 201 -35l61 -22l-49 -172l-57 20q-89 29 -156 29q-103 0 -115 -82l-4 -31q56 14 107 14q235 0 235 -211q0 -141 -97 -241.5t-245 -100.5q-136 0 -203.5 78t-50.5 209zM313 983q-15 -106 62 -106q43 0 67.5 36t24.5 91 q0 38 -16 56.5t-56 18.5q-19 0 -69 -10z" />
<glyph horiz-adv-x="655" d="M133 707l361 639h-344l24 178h479q95 0 95 -86q0 -41 -39 -117l-336 -614h-240z" />
<glyph horiz-adv-x="655" d="M82 909q0 60 21 103.5t71 89.5l25 20l-17 27q-34 51 -37 123q0 123 83.5 192.5t222.5 69.5q121 0 190.5 -55t69.5 -158q0 -91 -76 -174l-23 -25l19 -20q49 -66 49 -141q0 -124 -89 -194.5t-233 -70.5q-130 0 -203 56t-73 157zM295 932q0 -30 20.5 -49t57.5 -19 q44 0 69 25t25 67q0 30 -21 54l-16 24h-78l-22 -24q-35 -40 -35 -78zM348 1276q0 -28 17 -59l14 -21h74l18 21q31 45 31 79q0 30 -17.5 47t-50.5 17q-39 0 -62.5 -24t-23.5 -60z" />
<glyph horiz-adv-x="655" d="M80 758l47 172l57 -21q94 -31 158 -28q104 0 113 80l4 32q-56 -14 -107 -14q-119 0 -176 52.5t-57 158.5q0 141 96.5 241.5t245.5 100.5q137 0 204 -78.5t48 -208.5l-39 -284q-18 -124 -108 -192.5t-226 -68.5q-96 0 -199 35zM342 1229q0 -39 15.5 -58.5t56.5 -19.5 q19 0 67 12l13 86q18 107 -60 107q-44 0 -68 -36t-24 -91z" />
<glyph horiz-adv-x="655" d="M123 948q0 144 71 240t185 123l20 147h170l-20 -143q38 -5 94 -23l51 -16l-51 -164l-49 14q-91 27 -123 25q-64 0 -97.5 -51t-33.5 -131q0 -99 92 -99q28 0 131 25l64 16l2 -161l-56 -19q-42 -14 -110 -26l-21 -144h-170l21 150q-79 21 -124.5 82t-45.5 155z" />
<glyph horiz-adv-x="655" d="M66 754l59 194l72 -24q82 -31 176 -31q80 0 80 65q0 38 -47 50l-99 28q-91 27 -134.5 76t-43.5 133q0 119 70.5 190t177.5 87l20 137h168l-20 -135q51 -2 127 -27l71 -20l-55 -197l-76 25q-92 30 -176 30q-35 0 -55.5 -15t-20.5 -42q0 -43 50 -57l98 -29 q89 -28 131.5 -71.5t42.5 -121.5q0 -125 -70.5 -199.5t-181.5 -94.5l-18 -140h-168l20 137q-73 9 -131 31z" />
<glyph horiz-adv-x="655" d="M80 965l18 125h70l8 57h-70l19 125h70q27 127 111 193.5t210 66.5q91 0 174 -25l51 -18l-45 -170l-51 18q-71 23 -121 23q-92 0 -112 -88h182l-19 -125h-186l-8 -57h186l-18 -125h-180q-1 -46 23.5 -70.5t68.5 -24.5q54 0 131 25l55 18l17 -165l-56 -19 q-102 -31 -188 -31q-130 0 -204 69.5t-64 197.5h-72z" />
<glyph horiz-adv-x="491" d="M100 971l23 157h414l-21 -157h-416z" />
<glyph horiz-adv-x="655" d="M121 956v156h186v209h180v-209h193v-156h-193v-204h-180v204h-186z" />
<glyph horiz-adv-x="655" d="M121 956v158h559v-158h-559z" />
<glyph horiz-adv-x="655" d="M121 860v150h559v-150h-559zM121 1067v152h559v-152h-559z" />
<glyph horiz-adv-x="436" d="M111 961q0 88 13.5 167.5t45 152.5t79 126.5t119.5 85t162 31.5l-20 -152q-17 -1 -37 -8.5t-48.5 -34.5t-50 -69t-37 -121.5t-15.5 -182.5q0 -46 7.5 -79.5t17 -51.5t25.5 -28.5t27 -13.5t27 -5l-20 -153q-43 0 -80.5 7.5t-78.5 29.5t-70 58t-47.5 98t-18.5 143z" />
<glyph horiz-adv-x="436" d="M53 625l23 151q18 2 37.5 9.5t48 35t50 69.5t37 120.5t15.5 181.5q0 57 -10 95t-28.5 55t-33 22.5t-34.5 7.5l22 152q43 0 80.5 -7t78 -29t69 -57.5t47 -97.5t18.5 -143q0 -89 -13.5 -168.5t-45.5 -153t-79.5 -127t-119.5 -85t-162 -31.5z" />
<glyph horiz-adv-x="303" d="M82 672l80 223h213l-107 -260q-30 -68 -108 -68q-56 0 -75 30t-3 75z" />
<glyph horiz-adv-x="303" d="M104 782q0 55 36 90t96 35q49 0 74.5 -24t25.5 -66q0 -53 -36.5 -88t-94.5 -35q-47 0 -74 24t-27 64z" />
<glyph horiz-adv-x="655" d="M96 971l41 293q19 132 100 201t218 69q139 0 205 -73.5t49 -205.5l-41 -288q-19 -132 -99.5 -201.5t-218.5 -69.5q-139 0 -205 72.5t-49 202.5zM326 1038l147 308q-17 10 -37 10q-67 0 -80 -88zM342 877q15 -5 27 -5q67 0 80 91l24 192z" />
<glyph horiz-adv-x="655" d="M152 1149q0 144 71 239.5t185 122.5l20 148h170l-20 -143q38 -5 94 -23l51 -16l-51 -164l-49 14q-91 27 -123 25q-64 0 -97.5 -51.5t-33.5 -131.5q0 -98 92 -98q28 0 131 25l63 16l2 -162l-55 -18q-49 -16 -110 -27l-21 -143h-170l21 149q-79 21 -124.5 82.5t-45.5 155.5 z" />
<glyph horiz-adv-x="655" d="M94 954l60 195l71 -25q80 -30 176 -30q80 0 80 65q0 37 -47 49l-98 29q-91 27 -134.5 76t-43.5 133q0 119 70.5 189.5t177.5 86.5l20 138h168l-21 -136q55 -3 127 -26l72 -21l-55 -196l-76 24q-95 31 -176 31q-35 0 -55.5 -15t-20.5 -42q0 -44 49 -58l99 -28 q89 -28 131.5 -71.5t42.5 -121.5q0 -125 -70.5 -200t-181.5 -95l-19 -139h-168l21 137q-73 9 -131 31z" />
<glyph horiz-adv-x="655" d="M109 1165l18 125h70l8 58h-70l19 125h69q27 127 111.5 193.5t210.5 66.5q91 0 174 -25l51 -18l-45 -170l-51 18q-71 23 -121 23q-93 0 -113 -88h183l-19 -125h-186l-8 -58h186l-18 -125h-181q-1 -46 23.5 -70t68.5 -24q55 0 132 25l55 18l16 -166l-55 -18 q-102 -31 -188 -31q-130 0 -204.5 69t-64.5 197h-71z" />
<glyph horiz-adv-x="491" d="M129 1171l23 158h413l-20 -158h-416z" />
<glyph horiz-adv-x="303" d="M111 872l79 224h213l-106 -260q-30 -68 -109 -68q-56 0 -74.5 29t-2.5 75z" />
<glyph horiz-adv-x="303" d="M133 983q0 55 35.5 90t95.5 35q49 0 75 -24t26 -66q0 -53 -37 -88t-95 -35q-47 0 -73.5 24t-26.5 64z" />
<glyph horiz-adv-x="655" d="M125 1171l41 293q19 132 100 201.5t217 69.5q139 0 205 -73.5t49 -205.5l-41 -289q-19 -132 -99 -201t-218 -69q-139 0 -205 72t-49 202zM352 1233l152 311q-15 12 -39 12q-67 0 -80 -88zM373 1077q6 -4 24 -4q67 0 80 90l25 187z" />
<glyph horiz-adv-x="655" d="M4 37q0 144 71 239.5t185 122.5l21 148h170l-21 -144q43 -6 94 -22l51 -16l-51 -164l-49 14q-91 27 -123 25q-64 0 -97.5 -51.5t-33.5 -131.5q0 -98 92 -98q29 0 131 25l64 16l2 -162l-55 -18q-47 -15 -111 -27l-20 -143h-170l20 149q-79 21 -124.5 82.5t-45.5 155.5z " />
<glyph horiz-adv-x="655" d="M-53 -158l59 195l72 -25q80 -30 176 -30q80 0 80 65q0 37 -47 49l-99 29q-91 27 -134.5 76t-43.5 133q0 119 70.5 189.5t177.5 86.5l21 138h167l-20 -136q55 -3 127 -26l72 -21l-56 -196l-75 24q-95 31 -177 31q-34 0 -54.5 -15t-20.5 -42q0 -44 49 -58l98 -28 q89 -28 131.5 -71.5t42.5 -121.5q0 -125 -70.5 -200t-181.5 -95l-18 -139h-168l20 137q-73 9 -131 31z" />
<glyph horiz-adv-x="655" d="M-39 53l19 125h69l8 58h-69l18 124h70q27 127 111 194t210 67q91 0 174 -25l52 -18l-45 -170l-52 18q-71 23 -120 23q-93 0 -113 -89h182l-18 -124h-187l-8 -58h187l-19 -125h-180q-1 -46 23.5 -70t68.5 -24q54 0 131 25l55 18l17 -166l-56 -18q-102 -31 -188 -31 q-130 0 -204 69t-64 197h-72z" />
<glyph horiz-adv-x="491" d="M-18 59l22 158h414l-21 -158h-415z" />
<glyph horiz-adv-x="655" d="M2 45v156h186v209h181v-209h192v-156h-192v-205h-181v205h-186z" />
<glyph horiz-adv-x="655" d="M2 45v158h559v-158h-559z" />
<glyph horiz-adv-x="655" d="M2 -51v149h559v-149h-559zM2 156v151h559v-151h-559z" />
<glyph horiz-adv-x="303" d="M-37 -240l80 224h213l-106 -260q-30 -68 -109 -68q-56 0 -75 29.5t-3 74.5z" />
<glyph horiz-adv-x="303" d="M-14 -129q0 55 35.5 90t95.5 35q49 0 74.5 -24t25.5 -66q0 -53 -36.5 -88t-94.5 -35q-47 0 -73.5 24t-26.5 64z" />
<glyph horiz-adv-x="655" d="M-23 59l41 293q19 132 100.5 201.5t217.5 69.5q139 0 205 -73.5t49 -205.5l-41 -289q-19 -132 -99.5 -201t-218.5 -69q-139 0 -205 72t-49 202zM207 127l147 307q-17 10 -37 10q-66 0 -79 -88zM223 -33q9 -6 27 -6q67 0 80 90l24 193z" />
<glyph horiz-adv-x="1144" d="M74 489l78 558q34 241 176 369t377 128q238 0 346.5 -133t74.5 -377l-75 -553q-34 -244 -173 -371.5t-376 -127.5q-241 0 -351.5 132.5t-76.5 374.5zM430 473q-25 -190 107 -190q67 0 103 47t50 143l80 580q28 192 -102 192q-131 0 -156 -192z" />
<glyph horiz-adv-x="1144" d="M-4 0l39 287h354l131 934h-31q-43 0 -113 -17.5t-116 -46.5l-8 291q76 38 170.5 57t175.5 19h129q99 0 145.5 -54.5t34.5 -150.5l-145 -1032h289l-39 -287h-1016z" />
<glyph d="M8 139q0 117 82 187l445 393q81 73 122.5 118.5t70.5 110t28 139.5q0 148 -162 148q-110 0 -281 -59l-98 -35l-45 289l104 36q221 76 410 76q215 0 330.5 -101.5t115.5 -297.5q0 -160 -72.5 -291.5t-256.5 -300.5l-299 -270h512l-39 -281h-828q-69 0 -104 36.5t-35 102.5 z" />
<glyph d="M-12 96l90 291l102 -39q185 -65 303 -65q109 0 165.5 49.5t56.5 138.5q0 51 -29 104l-33 52h-287l37 270h269l47 47q61 61 61 162q0 62 -43 94.5t-123 32.5q-111 0 -278 -59l-99 -33l-45 286l107 37q221 76 407 76q215 0 330 -93.5t115 -272.5q0 -107 -36.5 -190 t-109.5 -165l-57 -61l41 -51q88 -107 88 -246q0 -153 -75.5 -261.5t-206 -161t-304.5 -52.5q-216 0 -393 71z" />
<glyph d="M6 369q0 88 70 196l571 828q96 143 258 143q110 0 159 -51.5t34 -161.5l-117 -803h125l-39 -282h-125l-33 -238h-350l33 238h-449q-68 0 -102.5 35t-34.5 96zM403 520h228l63 428z" />
<glyph d="M10 94l88 291l103 -37q175 -63 299 -63q109 0 165 70.5t56 203.5q0 162 -170 162q-129 0 -287 -45l-112 -33l122 881h897l-43 -307h-600l-32 -242q93 31 192 31q198 0 300 -99.5t102 -294.5q0 -307 -158.5 -466.5t-435.5 -159.5q-211 0 -387 69z" />
<glyph d="M72 522l75 541q33 228 187.5 350.5t388.5 122.5q158 0 348 -68l96 -34l-80 -297l-90 32q-63 25 -140.5 42.5t-137.5 17.5q-97 0 -149 -41.5t-62 -128.5l-10 -80q95 33 196 33q196 0 297 -103.5t101 -294.5q0 -103 -24 -196t-73 -171.5t-118.5 -135.5t-165 -89t-207.5 -32 q-241 0 -354 145t-78 387zM432 512q-33 -225 113 -225q76 0 126 73.5t50 208.5q0 72 -30.5 110t-102.5 38q-35 0 -131 -23z" />
<glyph d="M35 367q0 108 39.5 191t126.5 175l49 53l-29 60q-57 109 -57 221q0 151 70 260t190 163t276 54q205 0 323 -94.5t118 -269.5q0 -199 -135 -353l-52 -65l39 -49q79 -102 82 -238q0 -232 -157 -361.5t-414 -129.5q-219 0 -344 98.5t-125 284.5zM393 399q0 -61 37 -98 t105 -37q85 0 135.5 56.5t50.5 146.5q0 57 -31 108l-33 52h-147l-45 -54q-75 -81 -72 -174zM500 1063q0 -53 28 -111l25 -51h137l41 51q70 86 70 168q0 62 -33.5 97.5t-99.5 35.5q-76 0 -122 -53.5t-46 -136.5z" />
<glyph d="M141 0l643 1217h-608l41 307h832q153 0 153 -146q0 -52 -16.5 -101.5t-50.5 -115.5l-594 -1161h-400z" />
<glyph horiz-adv-x="1144" d="M37 92l80 297l90 -33q61 -24 140 -41.5t138 -17.5q98 0 149.5 41t61.5 129l11 80q-95 -33 -197 -33q-196 0 -296.5 102.5t-100.5 296.5q0 128 38.5 240t110.5 198t185 135.5t253 49.5q240 0 353.5 -145.5t79.5 -386.5l-76 -543q-32 -228 -186.5 -349.5t-389.5 -121.5 q-161 0 -348 67zM483 956q0 -149 133 -149q18 0 40 3t36 6.5t33.5 8.5t22.5 6l26 181q7 33 5 72.5t-10 74t-35.5 57.5t-71.5 23q-76 0 -127.5 -74t-51.5 -209z" />
<glyph d="M100 459q0 273 126 446.5t329 218.5l37 271h276l-37 -265q86 -10 162 -38l80 -33l-78 -283l-77 29q-118 47 -211 47q-66 0 -116 -33.5t-78.5 -88.5t-42 -117.5t-13.5 -129.5q0 -207 172 -207q111 0 237 46l76 28l33 -280l-92 -31q-126 -38 -213 -43l-37 -266h-277l41 280 q-139 40 -218 156.5t-79 292.5z" />
<glyph d="M8 88l101 336l116 -43q174 -62 324 -62q74 0 119 35t45 101q0 47 -25 75.5t-80 47.5l-162 59q-317 112 -317 397q0 109 34.5 197.5t95.5 148t140.5 95.5t173.5 47l39 254h275l-37 -252q146 -18 235 -47l121 -37l-98 -344l-119 43q-177 60 -330 63q-70 0 -111.5 -33 t-41.5 -98q0 -86 102 -125l191 -76q158 -64 223 -154t65 -216q0 -215 -116.5 -345.5t-333.5 -156.5l-39 -262h-274l38 262q-138 10 -239 51z" />
<glyph d="M43 494l31 211h119l20 129h-121l29 210h125q23 129 76 226t129 155.5t167.5 87.5t198.5 29q134 0 297 -55l84 -27l-70 -284l-79 28q-128 47 -226 47q-187 0 -219 -207h318l-29 -210h-326l-20 -129h327l-28 -211h-320q-25 -213 164 -213q105 0 230 41l90 28l39 -280 l-95 -31q-163 -55 -325 -55q-241 0 -363.5 128t-95.5 382h-127z" />
<glyph d="M66 489l20 164q32 244 173.5 373t379.5 129q242 0 351.5 -132.5t78.5 -377.5l-20 -162q-32 -243 -173.5 -372t-377.5 -129q-241 0 -353.5 132t-78.5 375zM424 473q-20 -180 106 -180q132 0 154 180l29 199q11 80 -15.5 126t-93.5 46t-103.5 -41.5t-47.5 -128.5z" />
<glyph horiz-adv-x="1144" d="M74 489l78 558q34 241 176 369t377 128q238 0 346.5 -133t74.5 -377l-75 -553q-34 -244 -173 -371.5t-376 -127.5q-241 0 -351.5 132.5t-76.5 374.5zM451 322q26 -39 86 -39q67 0 103 47t50 143l49 365zM459 672l297 530q-24 43 -88 43q-131 0 -156 -192z" />
<glyph d="M-10 0l35 299h358l70 520h-33q-44 0 -113.5 -16t-113.5 -45l-9 299q147 73 348 73h127q100 0 148 -54.5t33 -151.5l-82 -625h289l-39 -299h-1018z" />
<glyph d="M4 137q0 145 111 209l360 197q93 49 136.5 92t43.5 104q0 113 -139 113q-119 0 -272 -55l-97 -33l-49 287l111 36q208 66 416 66q210 0 330 -87t120 -249q0 -118 -62 -212t-210 -177l-240 -135h455l-39 -293h-836q-70 0 -104.5 36.5t-34.5 100.5z" />
<glyph d="M-82 -268l88 291l105 -37q183 -69 303 -66q107 0 163 48.5t56 137.5q0 44 -31 101l-33 49h-286l36 270h271l47 47q59 59 59 148q0 123 -166 123q-108 0 -278 -60l-98 -32l-45 288l106 35q221 76 408 76q216 0 331 -91.5t115 -268.5q0 -101 -37 -181t-110 -161l-56 -62 l39 -49q90 -109 90 -242q0 -153 -75 -261.5t-205 -161t-303 -52.5q-209 0 -396 72z" />
<glyph d="M-20 131q0 110 69 195l539 682q114 143 266 143q109 0 157 -51t33 -162l-90 -657h125l-39 -281h-125l-51 -365h-350l51 365h-448q-68 0 -102.5 35t-34.5 96zM369 281h235l58 395z" />
<glyph d="M-49 -262l90 291l102 -37q172 -66 297 -66q224 0 224 264q0 79 -42.5 115.5t-129.5 36.5q-134 0 -289 -45l-111 -33l117 866h899l-43 -307h-600l-29 -225q2 0 17 4t31.5 8t39.5 8t50.5 6.5t54.5 2.5q401 0 401 -383q0 -306 -157 -461.5t-435 -155.5q-205 0 -389 72z" />
<glyph d="M72 522l75 541q33 228 187.5 350.5t388.5 122.5q158 0 348 -68l96 -34l-80 -297l-90 32q-63 25 -140.5 42.5t-137.5 17.5q-97 0 -149 -41.5t-62 -128.5l-10 -80q95 33 196 33q196 0 297 -103.5t101 -294.5q0 -103 -24 -196t-73 -171.5t-118.5 -135.5t-165 -89t-207.5 -32 q-241 0 -354 145t-78 387zM432 512q-33 -225 113 -225q76 0 126 73.5t50 208.5q0 72 -30.5 110t-102.5 38q-35 0 -131 -23z" />
<glyph d="M84 -365l633 1190h-608l43 305h829q154 0 154 -143q0 -54 -17 -103t-51 -116l-584 -1133h-399z" />
<glyph d="M35 367q0 108 39.5 191t126.5 175l49 53l-29 60q-57 109 -57 221q0 151 70 260t190 163t276 54q205 0 323 -94.5t118 -269.5q0 -199 -135 -353l-52 -65l39 -49q79 -102 82 -238q0 -232 -157 -361.5t-414 -129.5q-219 0 -344 98.5t-125 284.5zM393 399q0 -61 37 -98 t105 -37q85 0 135.5 56.5t50.5 146.5q0 57 -31 108l-33 52h-147l-45 -54q-75 -81 -72 -174zM500 1063q0 -53 28 -111l25 -51h137l41 51q70 86 70 168q0 62 -33.5 97.5t-99.5 35.5q-76 0 -122 -53.5t-46 -136.5z" />
<glyph d="M-4 -276l80 296l90 -32q155 -60 280 -60q98 0 150.5 40t62.5 128l7 74q-95 -33 -197 -33q-197 0 -297 101.5t-100 296.5q0 128 38.5 239t111 195.5t185 133t252.5 48.5q240 0 353 -143.5t80 -384.5l-72 -533q-31 -227 -187.5 -348t-390.5 -121q-160 0 -350 68zM442 575 q0 -71 30.5 -108t102.5 -37q18 0 39.5 3.5t36 7t33.5 8.5t23 6l24 176q8 33 6 72t-10.5 72.5t-36.5 56t-72 22.5q-76 0 -126 -72t-50 -207z" />
<glyph d="M100 459q0 273 126 446.5t329 218.5l37 271h276l-37 -265q86 -10 162 -38l80 -33l-78 -283l-77 29q-118 47 -211 47q-66 0 -116 -33.5t-78.5 -88.5t-42 -117.5t-13.5 -129.5q0 -207 172 -207q111 0 237 46l76 28l33 -280l-92 -31q-126 -38 -213 -43l-37 -266h-277l41 280 q-139 40 -218 156.5t-79 292.5z" />
<glyph d="M49 80l80 268l80 -31q192 -71 326 -71q133 0 133 98q0 61 -84 78l-193 43q-122 28 -187 103.5t-65 193.5q0 88 32 158t86 114t118 69t135 32l37 260h276l-37 -260q99 -15 236 -60l72 -24l-78 -267l-76 29q-188 72 -336 72q-127 0 -127 -97q0 -31 20 -48.5t64 -28.5 l195 -43q122 -28 186 -104.5t64 -194.5q0 -69 -21 -128t-56.5 -100.5t-83 -72.5t-100 -47.5t-108.5 -22.5l-37 -268h-276l38 268q-106 10 -241 57z" />
<glyph d="M25 371l22 153h113q4 48 8 76h-113l23 154h127q66 187 214 288t337 101q164 0 297 -51l80 -31l-78 -285l-80 31q-119 45 -211 45q-115 0 -180 -98h276l-20 -154h-314q-6 -28 -10 -76h313l-20 -153h-274q38 -95 153 -95q122 0 236 46l77 28l31 -280l-92 -31 q-157 -53 -322 -53q-188 0 -309 101t-147 284h-137z" />
<glyph d="M66 489l20 164q32 244 173.5 373t379.5 129q242 0 351.5 -132.5t78.5 -377.5l-20 -162q-32 -243 -173.5 -372t-377.5 -129q-241 0 -353.5 132t-78.5 375zM420 430l213 410q-16 4 -29 4q-67 0 -103.5 -41.5t-47.5 -128.5l-29 -201q-4 -28 -4 -43zM516 293h14 q132 0 154 180l29 199v2z" />
<glyph d="M66 489l20 164q32 244 173.5 373t379.5 129q242 0 351.5 -132.5t78.5 -377.5l-20 -162q-32 -243 -173.5 -372t-377.5 -129q-241 0 -353.5 132t-78.5 375zM424 473q-20 -180 106 -180q132 0 154 180l29 199q11 80 -15.5 126t-93.5 46t-103.5 -41.5t-47.5 -128.5z" />
<glyph d="M-10 0l35 299h358l70 520h-33q-44 0 -113.5 -16t-113.5 -45l-9 299q147 73 348 73h127q100 0 148 -54.5t33 -151.5l-82 -625h289l-39 -299h-1018z" />
<glyph d="M4 137q0 145 111 209l360 197q93 49 136.5 92t43.5 104q0 113 -139 113q-119 0 -272 -55l-97 -33l-49 287l111 36q208 66 416 66q210 0 330 -87t120 -249q0 -118 -62 -212t-210 -177l-240 -135h455l-39 -293h-836q-70 0 -104.5 36.5t-34.5 100.5z" />
<glyph d="M-82 -268l88 291l105 -37q183 -69 303 -66q107 0 163 48.5t56 137.5q0 44 -31 101l-33 49h-286l36 270h271l47 47q59 59 59 148q0 123 -166 123q-108 0 -278 -60l-98 -32l-45 288l106 35q221 76 408 76q216 0 331 -91.5t115 -268.5q0 -101 -37 -181t-110 -161l-56 -62 l39 -49q90 -109 90 -242q0 -153 -75 -261.5t-205 -161t-303 -52.5q-209 0 -396 72z" />
<glyph d="M-20 131q0 110 69 195l539 682q114 143 266 143q109 0 157 -51t33 -162l-90 -657h125l-39 -281h-125l-51 -365h-350l51 365h-448q-68 0 -102.5 35t-34.5 96zM369 281h235l58 395z" />
<glyph d="M-49 -262l90 291l102 -37q172 -66 297 -66q224 0 224 264q0 79 -42.5 115.5t-129.5 36.5q-134 0 -289 -45l-111 -33l117 866h899l-43 -307h-600l-29 -225q2 0 17 4t31.5 8t39.5 8t50.5 6.5t54.5 2.5q401 0 401 -383q0 -306 -157 -461.5t-435 -155.5q-205 0 -389 72z" />
<glyph d="M72 522l75 541q33 228 187.5 350.5t388.5 122.5q158 0 348 -68l96 -34l-80 -297l-90 32q-63 25 -140.5 42.5t-137.5 17.5q-97 0 -149 -41.5t-62 -128.5l-10 -80q95 33 196 33q196 0 297 -103.5t101 -294.5q0 -103 -24 -196t-73 -171.5t-118.5 -135.5t-165 -89t-207.5 -32 q-241 0 -354 145t-78 387zM432 512q-33 -225 113 -225q76 0 126 73.5t50 208.5q0 72 -30.5 110t-102.5 38q-35 0 -131 -23z" />
<glyph d="M84 -365l633 1190h-608l43 305h829q154 0 154 -143q0 -54 -17 -103t-51 -116l-584 -1133h-399z" />
<glyph d="M35 367q0 108 39.5 191t126.5 175l49 53l-29 60q-57 109 -57 221q0 151 70 260t190 163t276 54q205 0 323 -94.5t118 -269.5q0 -199 -135 -353l-52 -65l39 -49q79 -102 82 -238q0 -232 -157 -361.5t-414 -129.5q-219 0 -344 98.5t-125 284.5zM393 399q0 -61 37 -98 t105 -37q85 0 135.5 56.5t50.5 146.5q0 57 -31 108l-33 52h-147l-45 -54q-75 -81 -72 -174zM500 1063q0 -53 28 -111l25 -51h137l41 51q70 86 70 168q0 62 -33.5 97.5t-99.5 35.5q-76 0 -122 -53.5t-46 -136.5z" />
<glyph d="M-4 -276l80 296l90 -32q155 -60 280 -60q98 0 150.5 40t62.5 128l7 74q-95 -33 -197 -33q-197 0 -297 101.5t-100 296.5q0 128 38.5 239t111 195.5t185 133t252.5 48.5q240 0 353 -143.5t80 -384.5l-72 -533q-31 -227 -187.5 -348t-390.5 -121q-160 0 -350 68zM442 575 q0 -71 30.5 -108t102.5 -37q18 0 39.5 3.5t36 7t33.5 8.5t23 6l24 176q8 33 6 72t-10.5 72.5t-36.5 56t-72 22.5q-76 0 -126 -72t-50 -207z" />
<glyph d="M100 459q0 273 126 446.5t329 218.5l37 271h276l-37 -265q86 -10 162 -38l80 -33l-78 -283l-77 29q-118 47 -211 47q-66 0 -116 -33.5t-78.5 -88.5t-42 -117.5t-13.5 -129.5q0 -207 172 -207q111 0 237 46l76 28l33 -280l-92 -31q-126 -38 -213 -43l-37 -266h-277l41 280 q-139 40 -218 156.5t-79 292.5z" />
<glyph d="M49 80l80 268l80 -31q192 -71 326 -71q133 0 133 98q0 61 -84 78l-193 43q-122 28 -187 103.5t-65 193.5q0 88 32 158t86 114t118 69t135 32l37 260h276l-37 -260q99 -15 236 -60l72 -24l-78 -267l-76 29q-188 72 -336 72q-127 0 -127 -97q0 -31 20 -48.5t64 -28.5 l195 -43q122 -28 186 -104.5t64 -194.5q0 -69 -21 -128t-56.5 -100.5t-83 -72.5t-100 -47.5t-108.5 -22.5l-37 -268h-276l38 268q-106 10 -241 57z" />
<glyph d="M25 371l22 153h113q4 48 8 76h-113l23 154h127q66 187 214 288t337 101q164 0 297 -51l80 -31l-78 -285l-80 31q-119 45 -211 45q-115 0 -180 -98h276l-20 -154h-314q-6 -28 -10 -76h313l-20 -153h-274q38 -95 153 -95q122 0 236 46l77 28l31 -280l-92 -31 q-157 -53 -322 -53q-188 0 -309 101t-147 284h-137z" />
<glyph horiz-adv-x="1042" d="M82 383l55 410q25 189 145 290t320 101q203 0 296 -103.5t67 -292.5l-56 -409q-26 -191 -143.5 -292t-316.5 -101q-203 0 -298 103.5t-69 293.5zM403 371q-16 -121 76 -121q93 0 109 121l59 430q15 117 -78 117q-90 0 -106 -117z" />
<glyph horiz-adv-x="1042" d="M20 0l35 256h291l88 651h-18q-35 0 -90.5 -14t-98.5 -41l-24 256q139 63 301 63h114q89 0 132 -45t34 -127l-102 -743h233l-32 -256h-863z" />
<glyph horiz-adv-x="1042" d="M31 121q0 41 18 85.5t55 74.5l363 288q89 73 126.5 123t37.5 119q0 49 -33.5 74.5t-95.5 25.5q-95 0 -230 -43l-98 -32l-27 264l99 30q158 52 319 52q185 0 292.5 -83.5t107.5 -246.5q0 -120 -61.5 -222t-207.5 -218l-204 -160h395l-33 -252h-694q-64 0 -96.5 32 t-32.5 89z" />
<glyph horiz-adv-x="1042" d="M23 74l69 262l101 -35q131 -49 249 -49q77 0 116.5 29.5t39.5 80.5q0 32 -27 72l-20 33h-242l31 242h233l33 34q35 38 37 86q0 82 -127 82q-106 0 -237 -43l-99 -32l-24 264l96 33q158 49 321 49q188 0 293 -72.5t105 -220.5q0 -156 -119 -266l-27 -25l21 -25 q80 -83 80 -200q0 -127 -66.5 -215.5t-173.5 -128t-244 -39.5q-168 0 -323 51z" />
<glyph horiz-adv-x="1042" d="M29 295q0 72 59 154l455 620q81 115 221 115q90 0 137 -45.5t37 -132.5l-78 -578h101l-33 -252h-103l-22 -176h-305l24 176h-366q-64 0 -95.5 31.5t-31.5 87.5zM385 428h170l37 272z" />
<glyph horiz-adv-x="1042" d="M43 72l68 258l96 -31q169 -47 242 -47q77 0 119 43.5t42 122.5q0 119 -131 119q-79 0 -227 -41l-115 -29l96 704h762l-34 -268h-490l-18 -129q77 14 145 14q340 0 340 -323q0 -235 -128 -355t-361 -120q-180 0 -314 49z" />
<glyph horiz-adv-x="1042" d="M76 397l53 402q25 181 151.5 281t323.5 100q163 0 299 -47l94 -33l-75 -264l-88 32q-123 43 -228 43q-131 0 -149 -106l-4 -35q67 18 151 18q171 0 255.5 -81t84.5 -236q0 -100 -36 -188.5t-100 -152.5t-157 -101t-202 -37q-201 0 -301 108.5t-72 296.5zM401 399 q-19 -143 86 -143q59 0 91 51.5t32 116.5q0 53 -22 79.5t-78 26.5q-22 0 -92 -14z" />
<glyph horiz-adv-x="1042" d="M127 0l512 903h-489l34 268h695q73 0 108 -32t33 -92q0 -69 -57 -170l-478 -877h-358z" />
<glyph horiz-adv-x="1042" d="M55 293q0 83 32 146t101 132l29 27l-16 29q-56 96 -56 174q0 184 120.5 283.5t324.5 99.5q175 0 277 -77.5t102 -221.5q0 -132 -115 -260l-27 -29l23 -27q41 -49 60.5 -94t19.5 -100q0 -187 -125.5 -286t-341.5 -99q-192 0 -300 77.5t-108 225.5zM373 328q0 -40 28 -64 t82 -24q62 0 96.5 31t34.5 83q0 43 -26 76l-27 33h-112l-31 -31q-45 -48 -45 -104zM446 811q0 -37 23 -74l18 -28h107l24 28q46 50 46 99q0 41 -27 64.5t-74 23.5q-56 0 -86.5 -31.5t-30.5 -81.5z" />
<glyph horiz-adv-x="1042" d="M49 70l78 264l86 -31q123 -43 227 -43q132 0 150 107l6 32q-88 -18 -152 -18q-170 0 -255 82t-85 235q0 207 138 344.5t356 137.5q202 0 301.5 -109t73.5 -299l-55 -399q-23 -182 -149.5 -281.5t-324.5 -99.5q-162 0 -301 47zM438 748q0 -53 22.5 -80t76.5 -27 q22 0 92 14l16 117q22 143 -86 143q-59 0 -90 -50.5t-31 -116.5z" />
<glyph horiz-adv-x="1081" d="M70 461q0 274 129 465t342 237l30 213h252l-26 -207q58 -8 188 -49l84 -30l-70 -295l-88 28q-135 47 -229 47q-84 0 -140.5 -52t-81 -137.5t-24.5 -201.5q0 -190 166 -190q92 0 246 47l90 31l14 -291l-98 -31q-113 -36 -217 -49l-29 -211h-254l29 215q-148 36 -230.5 155 t-82.5 306z" />
<glyph horiz-adv-x="1042" d="M33 59l80 303l110 -36q146 -47 264 -47q46 0 77.5 19.5t31.5 59.5q0 47 -70 66l-139 43q-129 37 -196.5 110t-67.5 199q0 165 98 266t256 127l29 207h252l-27 -205q71 -2 178 -34l107 -33l-82 -299l-109 37q-152 49 -262 49q-50 0 -79 -23t-29 -63q0 -47 67 -66l137 -39 q133 -36 201 -111t68 -200q0 -162 -100.5 -262.5t-254.5 -128.5l-30 -213h-254l26 211q-72 5 -176 33z" />
<glyph horiz-adv-x="1042" d="M57 365l25 192h100l8 66h-98l25 190h106q36 181 162 277t305 96q127 0 252 -39l82 -27l-61 -256l-84 27q-111 35 -189 35q-130 0 -147 -113h262l-27 -190h-268l-10 -66h270l-25 -192h-264q-8 -55 24.5 -86t100.5 -31q74 0 189 35l92 26l16 -250l-90 -26 q-144 -45 -272 -45q-178 0 -283.5 99t-95.5 278h-105z" />
<glyph horiz-adv-x="884" d="M61 442l37 281h729l-36 -281h-730z" />
<glyph horiz-adv-x="1183" d="M88 434v275h340v372h317v-372h351v-275h-351v-371h-317v371h-340z" />
<glyph horiz-adv-x="1183" d="M88 426v279h1008v-279h-1008z" />
<glyph horiz-adv-x="1183" d="M88 250v264h1008v-264h-1008zM88 618v265h1008v-265h-1008z" />
<glyph horiz-adv-x="702" d="M80 367q0 135 21 252t68 219.5t117 175.5t173.5 115t232.5 42l-30 -229q-57 0 -104.5 -38t-77.5 -98t-50.5 -137t-29.5 -151t-9 -143q0 -80 15 -134t42 -78.5t49.5 -33t51.5 -10.5l-31 -232q-63 0 -119 10.5t-116.5 42t-103.5 82.5t-71 139.5t-28 205.5z" />
<glyph horiz-adv-x="702" d="M2 -113l31 230q57 0 104 38t76.5 98t50 137t29 150.5t8.5 143.5q0 65 -11 113t-26.5 74t-38.5 42t-40.5 21t-39.5 6l31 231q44 0 84 -5t85 -19t82.5 -36.5t73 -60t60 -86t39 -118.5t14.5 -154q0 -135 -21 -252.5t-68 -220t-117 -175.5t-173.5 -115t-232.5 -42z" />
<glyph horiz-adv-x="544" d="M-35 -72l141 408h363l-188 -473q-50 -117 -187 -117q-95 0 -126.5 52t-2.5 130z" />
<glyph horiz-adv-x="544" d="M18 137q0 98 63 158.5t163 60.5q84 0 129 -41.5t45 -115.5q0 -91 -63 -155t-160 -64q-85 0 -131 42t-46 115z" />
<glyph horiz-adv-x="1042" d="M82 383l55 410q25 189 145 290t320 101q203 0 296 -103.5t67 -292.5l-56 -409q-26 -191 -143.5 -292t-316.5 -101q-203 0 -298 103.5t-69 293.5zM424 518l188 389q-18 11 -43 11q-90 0 -106 -117zM442 256q15 -6 37 -6q93 0 109 121l37 264z" />
<glyph horiz-adv-x="1042" d="M82 383l55 410q25 189 145 290t320 101q203 0 296 -103.5t67 -292.5l-56 -409q-26 -191 -143.5 -292t-316.5 -101q-203 0 -298 103.5t-69 293.5zM403 371q-16 -121 76 -121q93 0 109 121l59 430q15 117 -78 117q-90 0 -106 -117z" />
<glyph horiz-adv-x="1042" d="M20 0l35 256h291l88 651h-18q-35 0 -90.5 -14t-98.5 -41l-24 256q139 63 301 63h114q89 0 132 -45t34 -127l-102 -743h233l-32 -256h-863z" />
<glyph horiz-adv-x="1042" d="M31 121q0 41 18 85.5t55 74.5l363 288q89 73 126.5 123t37.5 119q0 49 -33.5 74.5t-95.5 25.5q-95 0 -230 -43l-98 -32l-27 264l99 30q158 52 319 52q185 0 292.5 -83.5t107.5 -246.5q0 -120 -61.5 -222t-207.5 -218l-204 -160h395l-33 -252h-694q-64 0 -96.5 32 t-32.5 89z" />
<glyph horiz-adv-x="1042" d="M23 74l69 262l101 -35q131 -49 249 -49q77 0 116.5 29.5t39.5 80.5q0 32 -27 72l-20 33h-242l31 242h233l33 34q35 38 37 86q0 82 -127 82q-106 0 -237 -43l-99 -32l-24 264l96 33q158 49 321 49q188 0 293 -72.5t105 -220.5q0 -156 -119 -266l-27 -25l21 -25 q80 -83 80 -200q0 -127 -66.5 -215.5t-173.5 -128t-244 -39.5q-168 0 -323 51z" />
<glyph horiz-adv-x="1042" d="M29 295q0 72 59 154l455 620q81 115 221 115q90 0 137 -45.5t37 -132.5l-78 -578h101l-33 -252h-103l-22 -176h-305l24 176h-366q-64 0 -95.5 31.5t-31.5 87.5zM385 428h170l37 272z" />
<glyph horiz-adv-x="1042" d="M43 72l68 258l96 -31q169 -47 242 -47q77 0 119 43.5t42 122.5q0 119 -131 119q-79 0 -227 -41l-115 -29l96 704h762l-34 -268h-490l-18 -129q77 14 145 14q340 0 340 -323q0 -235 -128 -355t-361 -120q-180 0 -314 49z" />
<glyph horiz-adv-x="1042" d="M76 397l53 402q25 181 151.5 281t323.5 100q163 0 299 -47l94 -33l-75 -264l-88 32q-123 43 -228 43q-131 0 -149 -106l-4 -35q67 18 151 18q171 0 255.5 -81t84.5 -236q0 -100 -36 -188.5t-100 -152.5t-157 -101t-202 -37q-201 0 -301 108.5t-72 296.5zM401 399 q-19 -143 86 -143q59 0 91 51.5t32 116.5q0 53 -22 79.5t-78 26.5q-22 0 -92 -14z" />
<glyph horiz-adv-x="1042" d="M127 0l512 903h-489l34 268h695q73 0 108 -32t33 -92q0 -69 -57 -170l-478 -877h-358z" />
<glyph horiz-adv-x="1042" d="M55 293q0 83 32 146t101 132l29 27l-16 29q-56 96 -56 174q0 184 120.5 283.5t324.5 99.5q175 0 277 -77.5t102 -221.5q0 -132 -115 -260l-27 -29l23 -27q41 -49 60.5 -94t19.5 -100q0 -187 -125.5 -286t-341.5 -99q-192 0 -300 77.5t-108 225.5zM373 328q0 -40 28 -64 t82 -24q62 0 96.5 31t34.5 83q0 43 -26 76l-27 33h-112l-31 -31q-45 -48 -45 -104zM446 811q0 -37 23 -74l18 -28h107l24 28q46 50 46 99q0 41 -27 64.5t-74 23.5q-56 0 -86.5 -31.5t-30.5 -81.5z" />
<glyph horiz-adv-x="1042" d="M49 70l78 264l86 -31q123 -43 227 -43q132 0 150 107l6 32q-88 -18 -152 -18q-170 0 -255 82t-85 235q0 207 138 344.5t356 137.5q202 0 301.5 -109t73.5 -299l-55 -399q-23 -182 -149.5 -281.5t-324.5 -99.5q-162 0 -301 47zM438 748q0 -53 22.5 -80t76.5 -27 q22 0 92 14l16 117q22 143 -86 143q-59 0 -90 -50.5t-31 -116.5z" />
<glyph horiz-adv-x="1081" d="M70 461q0 274 129 465t342 237l30 213h252l-26 -207q58 -8 188 -49l84 -30l-70 -295l-88 28q-135 47 -229 47q-84 0 -140.5 -52t-81 -137.5t-24.5 -201.5q0 -190 166 -190q92 0 246 47l90 31l14 -291l-98 -31q-113 -36 -217 -49l-29 -211h-254l29 215q-148 36 -230.5 155 t-82.5 306z" />
<glyph horiz-adv-x="1042" d="M33 59l80 303l110 -36q146 -47 264 -47q46 0 77.5 19.5t31.5 59.5q0 47 -70 66l-139 43q-129 37 -196.5 110t-67.5 199q0 165 98 266t256 127l29 207h252l-27 -205q71 -2 178 -34l107 -33l-82 -299l-109 37q-152 49 -262 49q-50 0 -79 -23t-29 -63q0 -47 67 -66l137 -39 q133 -36 201 -111t68 -200q0 -162 -100.5 -262.5t-254.5 -128.5l-30 -213h-254l26 211q-72 5 -176 33z" />
<glyph horiz-adv-x="1042" d="M57 365l25 192h100l8 66h-98l25 190h106q36 181 162 277t305 96q127 0 252 -39l82 -27l-61 -256l-84 27q-111 35 -189 35q-130 0 -147 -113h262l-27 -190h-268l-10 -66h270l-25 -192h-264q-8 -55 24.5 -86t100.5 -31q74 0 189 35l92 26l16 -250l-90 -26 q-144 -45 -272 -45q-178 0 -283.5 99t-95.5 278h-105z" />
<glyph horiz-adv-x="1105" d="M528 1673q0 59 58 99l143 100h442l-385 -232q-76 -47 -155 -47q-53 0 -78 23t-25 57z" />
<glyph horiz-adv-x="1087" d="M399 1874h301q-8 -50 15.5 -79.5t70.5 -29.5t79 29.5t38 79.5h297q-12 -85 -73.5 -149.5t-154.5 -98t-204 -33.5q-174 0 -280.5 77t-88.5 204z" />
<glyph horiz-adv-x="1087" d="M375 1870h342l71 -94l91 94h352l-268 -217q-70 -60 -195 -60q-123 0 -180 60z" />
<glyph horiz-adv-x="1087" d="M342 1602l268 217q69 59 195 59q121 0 180 -59l211 -217h-340l-72 92l-90 -92h-352z" />
<glyph horiz-adv-x="1159" d="M401 1720q0 82 54.5 131.5t146.5 49.5q76 0 119 -35t43 -97q0 -78 -59 -127t-144 -49q-77 0 -118.5 33.5t-41.5 93.5zM834 1720q0 82 54.5 131.5t147.5 49.5q76 0 118 -35t42 -97q0 -78 -59 -127t-144 -49q-76 0 -117.5 33.5t-41.5 93.5z" />
<glyph horiz-adv-x="1087" d="M557 1724q0 82 59 131.5t160 49.5q84 0 130 -35t46 -96q0 -81 -64.5 -131t-156.5 -50q-84 0 -129 35t-45 96z" />
<glyph horiz-adv-x="1105" d="M438 1872h443l125 -96q45 -36 45 -82q0 -41 -34 -71t-91 -30q-76 0 -144 47z" />
<glyph horiz-adv-x="1087" d="M342 1677q0 44 43 78l147 117h347l-283 -225q-63 -54 -152 -54q-50 0 -76 23t-26 61zM782 1677q0 42 45 78l142 117h352l-283 -225q-65 -54 -151 -54q-50 0 -77.5 22.5t-27.5 61.5z" />
<glyph horiz-adv-x="1087" d="M358 1608l29 217h758l-29 -217h-758z" />
<glyph horiz-adv-x="1087" d="M512 1782q0 108 84.5 173.5t214.5 65.5q111 0 176.5 -49.5t65.5 -136.5q0 -106 -87.5 -175t-215.5 -69q-108 0 -173 52t-65 139zM684 1794q0 -30 23 -49t61 -19q47 0 79 26t32 63q0 32 -23 51.5t-63 19.5q-50 0 -79.5 -26.5t-29.5 -65.5z" />
<glyph horiz-adv-x="1087" d="M307 1686q122 206 324 206q89 0 162 -45l55 -32q25 -19 74 -19q68 0 127 94l155 -90q-123 -207 -323 -207q-94 0 -162 45l-55 33q-34 21 -74 21q-36 0 -65 -21.5t-62 -73.5z" />
<glyph horiz-adv-x="1445" d="M12 0l142 1016q16 114 66.5 207t137 164t218 110t298.5 39q122 0 220.5 -21.5t159.5 -54t105 -77t64 -85t29 -84.5l-375 -370q155 -27 225 -113t70 -229q0 -226 -145 -372t-396 -146q-138 0 -241 34l-53 17l102 321l41 -12q55 -14 115 -14q81 0 132.5 47t51.5 125 q0 52 -37 82t-102 30h-29q-139 0 -139 121q0 49 15.5 84t51.5 74l238 254q-9 28 -51 47.5t-101 19.5q-101 0 -154.5 -50.5t-64.5 -137.5l-145 -1026h-449z" />
<glyph horiz-adv-x="800" d="M139 1090q0 186 99 304.5t262 118.5q32 0 60 -4.5t40 -8.5l12 -5l11 61h219l-76 -534l63 -45l-108 -152l-62 37q-30 18 -77 8l-54 -14q-78 -20 -149 -20q-111 0 -175.5 65t-64.5 189zM375 1104q0 -98 74 -98q31 0 65 10l31 10l41 291q-50 12 -68 12q-46 0 -80 -39 t-48.5 -88.5t-14.5 -97.5z" />
<glyph horiz-adv-x="794" d="M139 995l105 758l241 41l-39 -283q53 17 103 17q262 0 262 -260q0 -197 -99.5 -312.5t-277.5 -115.5q-129 0 -221 32q-48 19 -64.5 46.5t-9.5 76.5zM379 1034q33 -8 63 -8q69 0 103.5 62t34.5 147q0 104 -86 104q-20 0 -72 -12z" />
<glyph horiz-adv-x="710" d="M162 1118q0 194 102.5 303t267.5 109q84 0 191 -29l63 -18l-53 -193l-61 19q-93 26 -129 26q-69 0 -105.5 -55t-36.5 -143q0 -105 99 -105q31 0 137 27l65 18l19 -188l-68 -21q-108 -32 -198 -32q-135 0 -214 72.5t-79 209.5z" />
<glyph horiz-adv-x="794" d="M145 1122q0 190 92 298t255 108q26 0 62.5 -6.5t49.5 -10.5l33 242l242 41l-113 -799q-6 -46 -34 -78.5t-73 -44.5q-105 -32 -215 -32q-144 0 -221.5 73.5t-77.5 208.5zM379 1137q0 -111 94 -111q23 0 64 8l41 293q-44 12 -70 12q-47 0 -77.5 -33t-41 -76t-10.5 -93z" />
<glyph horiz-adv-x="774" d="M160 1141q0 167 105.5 280t266.5 113q150 0 226 -85t53 -249q-6 -47 -30.5 -68.5t-73.5 -21.5h-322q6 -84 119 -84q85 0 170 25l76 22l28 -174l-78 -22q-135 -41 -229 -41q-150 0 -230.5 77.5t-80.5 227.5zM403 1266h189q3 42 -16.5 69t-63.5 27q-38 0 -66.5 -25.5 t-42.5 -70.5z" />
<glyph horiz-adv-x="587" d="M152 1346l24 174h84l4 41q33 227 279 227q93 0 186 -35l-45 -172q-66 25 -111 25q-39 0 -56 -14t-21 -50l-2 -22h176l-25 -174h-178l-70 -502h-233l72 502h-84z" />
<glyph horiz-adv-x="808" d="M133 813q0 82 57 145l60 68q29 32 29 57q0 18 -14 36.5t-30.5 34t-30.5 48t-14 74.5q0 123 86 184.5t236 61.5h63q73 0 111 10l180 47l33 -166l-102 -29q3 -1 8 -9t10.5 -26t5.5 -38q0 -74 -45 -125.5t-118 -75t-169 -23.5h-34q4 -10 4 -22q0 -18 -15 -33h146 q115 0 170 -42.5t55 -119.5q0 -115 -93 -178t-265 -65q-47 0 -70 2q-254 16 -254 184zM346 831q0 -29 28 -40t91 -11q141 0 141 64q0 13 -11 19.5t-25 7.5t-42 1h-170q-12 -12 -12 -41zM408 1286q0 -28 24 -42.5t64 -14.5q42 0 71 17.5t29 51.5q0 62 -88 62q-100 0 -100 -74 z" />
<glyph horiz-adv-x="776" d="M117 844l127 911l245 41l-38 -283q62 17 114 17q140 0 189.5 -65t33.5 -179l-61 -442h-238l62 424q7 61 -53 61q-29 0 -76 -12l-66 -473h-239z" />
<glyph horiz-adv-x="393" d="M115 844l96 680h233l-96 -680h-233zM219 1657q0 60 40 96.5t106 36.5q54 0 84 -25.5t30 -70.5q0 -55 -42.5 -93t-102.5 -38q-55 0 -85 25.5t-30 68.5z" />
<glyph horiz-adv-x="399" d="M31 627l22 172q72 0 84 65l92 660h234l-94 -664q-30 -233 -338 -233zM238 1657q0 60 39.5 96.5t105.5 36.5q55 0 85 -25.5t30 -70.5q0 -55 -43 -93t-103 -38q-54 0 -84 26t-30 68z" />
<glyph horiz-adv-x="786" d="M117 844l127 911l239 41l-65 -481l186 209h281l-228 -238l129 -442h-262l-67 248l-31 -29q-27 -26 -41 -51t-18 -66l-17 -102h-233z" />
<glyph horiz-adv-x="399" d="M115 844l127 911l247 41l-133 -952h-241z" />
<glyph horiz-adv-x="1126" d="M135 844l74 530q13 86 84 113q105 43 246 43q120 0 174 -41q100 41 205 41q266 0 233 -242l-61 -444h-234l62 426q7 61 -54 61q-22 0 -41 -3t-27 -6l-8 -3q4 -23 0 -41l-61 -434h-231l59 426q10 61 -53 61q-26 0 -66 -12l-67 -475h-234z" />
<glyph horiz-adv-x="817" d="M162 1120q0 192 106 302t279 110q143 0 222 -74.5t79 -210.5q0 -192 -105.5 -301.5t-277.5 -109.5q-143 0 -223 74t-80 210zM399 1118q0 -106 84 -106q57 0 93 63t36 174q0 107 -84 107q-57 0 -93 -63.5t-36 -174.5z" />
<glyph horiz-adv-x="794" d="M115 616l106 758q8 53 32.5 82.5t76.5 46.5q88 27 213 27q140 0 218.5 -74.5t78.5 -208.5q0 -191 -92 -298t-254 -107q-69 0 -111 14l-29 -199zM410 1044q42 -14 71 -14q45 0 75 33.5t41 77.5t11 94q0 108 -92 108q-13 0 -29 -2t-26 -4l-10 -2z" />
<glyph horiz-adv-x="794" d="M172 1102q0 193 101 310.5t282 117.5q121 0 209 -27q98 -28 86 -129l-102 -719l-242 -43l35 244q-72 -14 -107 -14q-262 0 -262 260zM408 1133q0 -54 21 -78.5t65 -24.5q28 0 73 14l41 293q-42 6 -63 6q-47 0 -79.5 -34.5t-45 -80t-12.5 -95.5z" />
<glyph horiz-adv-x="550" d="M133 844l74 528q7 54 35.5 83.5t81.5 41.5q121 33 327 33l-26 -189q-121 0 -195 -18l-68 -479h-229z" />
<glyph horiz-adv-x="733" d="M127 899l53 182l78 -28q95 -36 193 -39q63 0 63 39q0 29 -43 37l-113 18q-176 30 -176 178q0 119 82 182.5t219 63.5q125 0 238 -35l78 -24l-56 -183l-75 29q-122 37 -193 37q-65 0 -65 -41q0 -16 10 -24.5t35 -12.5l110 -18q176 -30 176 -179q0 -117 -81.5 -180 t-219.5 -63q-130 0 -237 36z" />
<glyph horiz-adv-x="616" d="M152 1343l24 175h84l19 139l239 41l-26 -180h184l-25 -175h-184l-35 -253q-5 -37 8.5 -52.5t51.5 -15.5q53 0 112 20l4 -174q-109 -32 -188 -32q-121 0 -180.5 60t-42.5 175l39 272h-84z" />
<glyph horiz-adv-x="778" d="M168 1083l61 441h234l-60 -422q-7 -62 58 -62q20 0 71 11l68 473h242l-76 -527q-7 -53 -36 -82t-83 -43q-109 -32 -221 -32q-152 0 -213 64t-45 179z" />
<glyph horiz-adv-x="778" d="M178 1524h248l47 -389l160 389h256l-279 -588q-48 -105 -178 -105t-149 105z" />
<glyph horiz-adv-x="1079" d="M190 1524h242v-375l121 299q15 37 50.5 57.5t82.5 20.5q48 0 79.5 -20.5t35.5 -57.5l30 -295l107 371h240l-203 -580q-40 -113 -172 -113q-65 0 -103.5 27t-44.5 78l-26 194l-84 -194q-45 -105 -174 -105q-135 0 -144 113z" />
<glyph horiz-adv-x="802" d="M88 844l260 344l-162 336h269l67 -164l103 164h274l-246 -334l162 -346h-268l-70 172l-119 -172h-270z" />
<glyph horiz-adv-x="786" d="M119 657l47 172q78 -24 119 -24q46 0 69 47l6 16l-163 656h256l57 -363l145 363h252l-334 -711q-87 -186 -276 -186q-83 0 -178 30z" />
<glyph horiz-adv-x="745" d="M131 934q0 65 53 121l287 295h-270l24 174h488q98 0 98 -90q0 -69 -53 -119l-285 -295h277l-27 -176h-498q-47 0 -70.5 24.5t-23.5 65.5z" />
<glyph horiz-adv-x="1036" d="M385 1319q0 59 64 115l147 129h420l-373 -281q-82 -59 -158 -59q-49 0 -74.5 29t-25.5 67z" />
<glyph horiz-adv-x="1036" d="M252 1563h293q-9 -65 13 -102.5t67 -37.5t76 37t40 103h293q-21 -153 -142 -244.5t-288 -91.5q-110 0 -194 40t-127.5 117.5t-30.5 178.5z" />
<glyph horiz-adv-x="1036" d="M279 1571h323l62 -119l92 119h331l-256 -262q-68 -72 -192 -72q-116 0 -172 72z" />
<glyph horiz-adv-x="1036" d="M176 -360l45 124q81 -45 154 -45q59 0 59 50q0 55 -151 45l-13 28l95 158h129l-52 -88q76 0 120 -34t44 -103q0 -89 -67 -137t-168 -48q-89 0 -195 50z" />
<glyph horiz-adv-x="1036" d="M242 1249l256 260q74 74 194 74q118 0 172 -74l187 -260h-320l-63 117l-88 -117h-338z" />
<glyph horiz-adv-x="1042" d="M303 -262l74 180h348l-113 -246q-25 -57 -66.5 -86.5t-113.5 -29.5q-94 0 -127 52.5t-2 129.5z" />
<glyph horiz-adv-x="1036" d="M289 1382q0 93 56.5 149t146.5 56q73 0 113 -36.5t40 -102.5q0 -90 -56.5 -147.5t-146.5 -57.5q-73 0 -113 36.5t-40 102.5zM713 1382q0 93 57 149t148 56q73 0 112 -36.5t39 -102.5q0 -91 -54.5 -148t-144.5 -57q-75 0 -116 36.5t-41 102.5z" />
<glyph horiz-adv-x="1036" d="M444 1382q0 94 60 149.5t158 55.5q84 0 126.5 -38t42.5 -107q0 -92 -61.5 -147.5t-157.5 -55.5q-82 0 -125 37.5t-43 105.5z" />
<glyph horiz-adv-x="1036" d="M279 1563h417l125 -129q47 -47 47 -113q0 -42 -30.5 -72t-79.5 -30q-75 0 -142 57z" />
<glyph horiz-adv-x="1036" d="M174 1317q0 55 45 100l148 146h327l-270 -265q-68 -71 -154 -71q-47 0 -71.5 26t-24.5 64zM608 1315q0 52 45 100l144 148h331l-270 -267q-71 -71 -151 -71q-48 0 -73.5 26t-25.5 64z" />
<glyph horiz-adv-x="1036" d="M244 1264l32 256h744l-33 -256h-743z" />
<glyph horiz-adv-x="1036" d="M190 -182q0 116 129 182l170 20l7 -20q-97 -59 -97 -119q0 -59 74 -59q93 0 205 45l29 -162q-141 -55 -275 -55q-108 0 -175 44t-67 124z" />
<glyph horiz-adv-x="1036" d="M399 1464q0 130 92 211.5t216 81.5q103 0 168 -60t65 -165q0 -129 -91.5 -214t-215.5 -85q-101 0 -167.5 62.5t-66.5 168.5zM571 1477q0 -40 22.5 -64t59.5 -24q46 0 80.5 37t34.5 90q0 38 -23 63t-61 25q-47 0 -80 -38t-33 -89z" />
<glyph horiz-adv-x="1036" d="M197 1337q119 248 321 248q53 0 87 -12t73 -43l49 -37q33 -33 70 -33q64 0 131 125l143 -112q-61 -128 -145 -188t-178 -60q-87 0 -156 57l-47 37q-35 31 -72 31q-66 0 -131 -119z" />
<glyph horiz-adv-x="1253" d="M-41 0l481 1022q35 79 107 121.5t172 42.5q98 0 157.5 -41.5t73.5 -118.5l180 -1026h-370l-25 176h-311l-74 -176h-391zM526 449h179l-41 329z" />
<glyph horiz-adv-x="1198" d="M49 139q0 29 2 43l113 819q9 80 63 125t142 45h411q163 0 251.5 -69t88.5 -199q0 -160 -119 -285l-26 -26l20 -25q86 -89 86 -202q0 -178 -115.5 -271.5t-332.5 -93.5h-424q-81 0 -121.5 36t-38.5 103zM432 262h176q52 0 79.5 28t27.5 70q0 30 -21 58l-35 45h-198z M496 715h192l35 41q35 45 35 90q0 67 -86 67h-150z" />
<glyph horiz-adv-x="1177" d="M78 485q0 167 51 301t139.5 219.5t205 131t251.5 45.5q160 0 326 -56l102 -30l-70 -303l-110 38q-107 37 -232 37q-123 0 -197.5 -90t-74.5 -266q0 -104 50 -156.5t145 -52.5q101 0 241 43l131 35l2 -303l-110 -35q-170 -53 -342 -53q-236 0 -372 126.5t-136 368.5z" />
<glyph horiz-adv-x="1251" d="M49 168l113 833q11 79 63.5 124.5t139.5 45.5h286q244 0 382 -131t138 -366q0 -155 -48.5 -282t-135 -213t-206 -132.5t-261.5 -46.5h-315q-82 0 -124 45t-32 123zM440 287h97q67 0 119 34.5t82 91t45.5 120.5t15.5 131q0 107 -48 165t-137 58h-90z" />
<glyph horiz-adv-x="1087" d="M49 168l115 833q9 79 62.5 124.5t140.5 45.5h708l-37 -276h-512l-20 -164h446l-39 -268h-446l-25 -187h514l-36 -276h-715q-85 0 -126 44.5t-30 123.5z" />
<glyph horiz-adv-x="1062" d="M27 0l137 1001q9 79 62.5 124.5t140.5 45.5h696l-39 -280h-496l-26 -193h450l-37 -270h-448l-59 -428h-381z" />
<glyph horiz-adv-x="1249" d="M76 489q0 164 50.5 296t139.5 218.5t209.5 132.5t261.5 46q168 0 346 -56l109 -32l-72 -306l-116 37q-140 43 -254 43q-139 0 -220 -97t-81 -277q0 -228 219 -228q50 0 92 6l18 134h-198l34 262h369q86 0 127.5 -45t30.5 -125l-35 -267q-9 -71 -44 -114t-95 -68 q-77 -34 -161 -47.5t-202 -13.5q-247 0 -387.5 129.5t-140.5 371.5z" />
<glyph horiz-adv-x="1230" d="M27 0l159 1171h379l-57 -438h258l59 438h381l-162 -1171h-378l61 457h-258l-61 -457h-381z" />
<glyph horiz-adv-x="598" d="M27 0l159 1171h383l-157 -1171h-385z" />
<glyph horiz-adv-x="878" d="M4 51l72 285q129 -41 174 -41q56 0 85 25.5t36 82.5l106 768h377l-109 -796q-26 -183 -142 -279t-308 -96q-143 0 -291 51z" />
<glyph horiz-adv-x="1226" d="M27 0l159 1171h375l-55 -387l338 387h422l-381 -417l205 -754h-400l-117 453l-55 -58q-31 -35 -43.5 -51t-26.5 -47.5t-18 -69.5l-29 -227h-374z" />
<glyph horiz-adv-x="1042" d="M49 168l137 1003h383l-118 -868h473l-39 -303h-680q-85 0 -126 44.5t-30 123.5z" />
<glyph horiz-adv-x="1507" d="M27 0l133 961q13 106 89 163.5t200 57.5q126 0 181.5 -49t65.5 -146l56 -407l170 407q73 195 313 195q119 0 177.5 -55.5t45.5 -159.5l-133 -967h-332l82 618l-207 -495q-51 -129 -198 -129q-153 0 -168 129l-70 495l-82 -618h-323z" />
<glyph horiz-adv-x="1284" d="M27 0l133 963q13 106 87 162.5t199 56.5q60 0 101.5 -13t68.5 -41.5t42 -60.5t30 -82l154 -432l86 618h329l-133 -960q-13 -107 -87.5 -164t-198.5 -57q-59 0 -100.5 13.5t-69 42t-43 60t-31.5 80.5l-154 432l-84 -618h-329z" />
<glyph horiz-adv-x="1349" d="M76 487q0 161 50.5 292.5t140 219t212 134.5t266.5 47q247 0 388 -130.5t141 -367.5q0 -161 -51 -292.5t-140.5 -218.5t-212 -134t-266.5 -47q-247 0 -387.5 130t-140.5 367zM457 489q0 -110 46 -168.5t132 -58.5q113 0 185.5 112t72.5 304q0 112 -45.5 170.5 t-130.5 60.5q-115 0 -187.5 -113.5t-72.5 -306.5z" />
<glyph horiz-adv-x="1142" d="M27 0l137 1001q9 79 62.5 124.5t140.5 45.5h356q174 0 271.5 -89.5t97.5 -245.5q0 -207 -132 -333t-348 -126h-161l-52 -377h-372zM487 651h121q62 0 99.5 42t37.5 106q0 48 -26.5 74t-71.5 26h-127z" />
<glyph horiz-adv-x="1353" d="M76 483q0 160 50 292t138.5 220.5t211 136.5t265.5 48q251 0 391 -130t140 -370q0 -163 -68 -306.5t-194 -217.5q69 -19 129 -19h67l-41 -268h-94q-75 0 -140 20.5t-105 45t-97 45t-117 20.5q-245 0 -390.5 123t-145.5 360zM457 489q0 -110 46 -168.5t132 -58.5 q123 0 192.5 114.5t69.5 303.5q0 109 -46.5 169t-133.5 60q-115 0 -187.5 -113.5t-72.5 -306.5z" />
<glyph horiz-adv-x="1210" d="M27 0l137 1001q9 80 62.5 125t140.5 45h405q176 0 270.5 -82t94.5 -229q0 -91 -39.5 -171.5t-108.5 -141.5l-53 -51l149 -496h-395l-104 391h-129l-51 -391h-379zM494 655h182l43 45q55 59 55 125q0 36 -23 56t-67 20h-156z" />
<glyph horiz-adv-x="1122" d="M23 80l88 311l125 -45q180 -63 309 -63q49 0 77.5 19t28.5 56q0 52 -71 68l-185 43q-142 34 -209 107.5t-67 201.5q0 198 130.5 300t350.5 102q200 0 377 -56l123 -39l-86 -313l-123 47q-163 63 -307 66q-105 0 -105 -80q0 -51 72 -66l182 -43q143 -33 211 -102.5 t68 -192.5q0 -135 -66 -230.5t-174.5 -140t-247.5 -44.5q-198 0 -381 57z" />
<glyph horiz-adv-x="1142" d="M117 887l39 284h991l-39 -284h-303l-123 -887h-379l119 887h-305z" />
<glyph horiz-adv-x="1247" d="M84 442l100 729h377l-100 -727q-18 -153 123 -153q139 0 157 153l101 727h381l-101 -729q-30 -220 -178 -342.5t-399 -122.5t-371.5 122.5t-89.5 342.5z" />
<glyph horiz-adv-x="1230" d="M123 1171h377l84 -749l301 749h387l-473 -1028q-69 -153 -273 -153q-98 0 -155.5 39t-69.5 114z" />
<glyph horiz-adv-x="1634" d="M135 1171h357l-9 -692l222 572q20 55 74 87.5t124 32.5q74 0 116 -30t46 -88l57 -574l187 692h356l-334 -1017q-25 -81 -89 -125.5t-163 -44.5q-198 0 -213 159l-47 430l-172 -430q-61 -159 -258 -159q-96 0 -147 44.5t-56 125.5z" />
<glyph horiz-adv-x="1263" d="M-35 0l443 590l-273 581h414l121 -315l200 315h420l-420 -573l277 -598h-414l-127 338l-219 -338h-422z" />
<glyph horiz-adv-x="1286" d="M123 1171h412l139 -372l233 372h422l-510 -702l-61 -469h-381l63 467z" />
<glyph horiz-adv-x="1157" d="M27 164q9 82 73 149l516 580h-456l39 278h784q83 0 119.5 -44t27.5 -119q-12 -81 -75 -150l-510 -577h473l-37 -281h-811q-80 0 -116 45t-27 119z" />
<glyph horiz-adv-x="1253" d="M-41 0l481 1022q35 79 107 121.5t172 42.5q98 0 157.5 -41.5t73.5 -118.5l180 -1026h-370l-25 176h-311l-74 -176h-391zM383 1563h418l125 -129q47 -47 47 -113q0 -41 -31 -71.5t-80 -30.5q-74 0 -141 57zM526 449h179l-41 329z" />
<glyph horiz-adv-x="1253" d="M-41 0l481 1022q35 79 107 121.5t172 42.5q98 0 157.5 -41.5t73.5 -118.5l180 -1026h-370l-25 176h-311l-74 -176h-391zM461 1319q0 60 63 115l148 129h420l-373 -281q-82 -59 -158 -59q-49 0 -74.5 29t-25.5 67zM526 449h179l-41 329z" />
<glyph horiz-adv-x="1253" d="M-41 0l481 1022q35 79 107 121.5t172 42.5q98 0 157.5 -41.5t73.5 -118.5l180 -1026h-370l-25 176h-311l-74 -176h-391zM313 1249l256 260q74 74 195 74q118 0 172 -74l186 -260h-319l-64 117l-88 -117h-338zM526 449h179l-41 329z" />
<glyph horiz-adv-x="1253" d="M-41 0l481 1022q35 79 107 121.5t172 42.5q98 0 157.5 -41.5t73.5 -118.5l180 -1026h-370l-25 176h-311l-74 -176h-391zM305 1337q59 122 140.5 185t181.5 63q53 0 86.5 -12t72.5 -43l50 -37q33 -33 69 -33q64 0 131 125l144 -112q-61 -128 -145.5 -188t-178.5 -60 q-87 0 -156 57l-47 37q-35 31 -71 31q-66 0 -131 -119zM526 449h179l-41 329z" />
<glyph horiz-adv-x="1253" d="M-41 0l481 1022q35 79 107 121.5t172 42.5q98 0 157.5 -41.5t73.5 -118.5l180 -1026h-370l-25 176h-311l-74 -176h-391zM352 1382q0 93 56.5 149t146.5 56q73 0 113.5 -36.5t40.5 -102.5q0 -90 -56.5 -147.5t-146.5 -57.5q-73 0 -113.5 36.5t-40.5 102.5zM526 449h179 l-41 329zM776 1382q0 93 57 149t148 56q73 0 112.5 -36.5t39.5 -102.5q0 -91 -54.5 -148t-144.5 -57q-75 0 -116.5 36.5t-41.5 102.5z" />
<glyph horiz-adv-x="1253" d="M-41 0l481 1022q35 79 107 121.5t172 42.5q98 0 157.5 -41.5t73.5 -118.5l180 -1026h-370l-25 176h-311l-74 -176h-391zM500 1464q0 130 91.5 211.5t215.5 81.5q103 0 168 -60t65 -165q0 -129 -91.5 -214t-215.5 -85q-101 0 -167 62.5t-66 168.5zM526 449h179l-41 329z M672 1477q0 -40 22.5 -64t59.5 -24q46 0 80 37t34 90q0 38 -23 63t-61 25q-47 0 -79.5 -37.5t-32.5 -89.5z" />
<glyph horiz-adv-x="1775" d="M-41 0l551 1018q45 82 113 117.5t174 35.5h966l-39 -274h-512l-22 -166h450l-38 -268h-449l-25 -187h514l-36 -276h-709q-85 0 -128.5 37.5t-33.5 105.5l4 35h-307l-88 -178h-385zM557 449h219l62 446h-62z" />
<glyph horiz-adv-x="1253" d="M-41 0l481 1022q35 79 107 121.5t172 42.5q98 0 157.5 -41.5t73.5 -118.5l180 -1026h-370l-25 176h-311l-74 -176h-391zM360 1264l33 256h744l-33 -256h-744zM526 449h179l-41 329z" />
<glyph horiz-adv-x="1253" d="M-41 0l481 1022q35 79 107 121.5t172 42.5q98 0 157.5 -41.5t73.5 -118.5l180 -1026h-370l-25 176h-311l-74 -176h-391zM375 1563h293q-9 -65 13 -102.5t67 -37.5t76 37t40 103h293q-21 -153 -142 -244.5t-288 -91.5q-110 0 -194 40t-127.5 117.5t-30.5 178.5zM526 449 h179l-41 329z" />
<glyph horiz-adv-x="1253" d="M-41 0l481 1022q35 79 107 121.5t172 42.5q98 0 157.5 -41.5t73.5 -118.5l180 -1026q-96 -58 -96 -119q0 -59 74 -59q93 0 205 45l28 -162q-141 -55 -274 -55q-108 0 -175 44t-67 124q0 116 129 182h-194l-25 176h-311l-74 -176h-391zM526 449h179l-41 329z" />
<glyph horiz-adv-x="1177" d="M78 485q0 167 51 301t139.5 219.5t205 131t251.5 45.5q160 0 326 -56l102 -30l-70 -303l-110 38q-107 37 -232 37q-123 0 -197.5 -90t-74.5 -266q0 -104 50 -156.5t145 -52.5q101 0 241 43l131 35l2 -303l-110 -35q-137 -42 -283 -51l-45 -80q76 0 120 -34t44 -103 q0 -89 -67.5 -137t-168.5 -48q-88 0 -194 50l45 124q81 -45 153 -45q60 0 60 50q0 55 -152 45l-12 28l90 152q-207 15 -323.5 141t-116.5 350z" />
<glyph horiz-adv-x="1177" d="M78 485q0 167 51 301t139.5 219.5t205 131t251.5 45.5q160 0 326 -56l102 -30l-70 -303l-110 38q-107 37 -232 37q-123 0 -197.5 -90t-74.5 -266q0 -104 50 -156.5t145 -52.5q101 0 241 43l131 35l2 -303l-110 -35q-170 -53 -342 -53q-236 0 -372 126.5t-136 368.5z M551 1319q0 60 63 115l148 129h420l-373 -281q-82 -59 -158 -59q-49 0 -74.5 29t-25.5 67z" />
<glyph horiz-adv-x="1177" d="M78 485q0 167 51 301t139.5 219.5t205 131t251.5 45.5q160 0 326 -56l102 -30l-70 -303l-110 38q-107 37 -232 37q-123 0 -197.5 -90t-74.5 -266q0 -104 50 -156.5t145 -52.5q101 0 241 43l131 35l2 -303l-110 -35q-170 -53 -342 -53q-236 0 -372 126.5t-136 368.5z M328 1249l256 260q74 74 194 74q118 0 172 -74l187 -260h-320l-63 117l-88 -117h-338z" />
<glyph horiz-adv-x="1177" d="M78 485q0 167 51 301t139.5 219.5t205 131t251.5 45.5q160 0 326 -56l102 -30l-70 -303l-110 38q-107 37 -232 37q-123 0 -197.5 -90t-74.5 -266q0 -104 50 -156.5t145 -52.5q101 0 241 43l131 35l2 -303l-110 -35q-170 -53 -342 -53q-236 0 -372 126.5t-136 368.5z M567 1382q0 94 59.5 149.5t157.5 55.5q85 0 127.5 -38t42.5 -107q0 -92 -61.5 -147.5t-157.5 -55.5q-82 0 -125 37.5t-43 105.5z" />
<glyph horiz-adv-x="1177" d="M78 485q0 167 51 301t139.5 219.5t205 131t251.5 45.5q160 0 326 -56l102 -30l-70 -303l-110 38q-107 37 -232 37q-123 0 -197.5 -90t-74.5 -266q0 -104 50 -156.5t145 -52.5q101 0 241 43l131 35l2 -303l-110 -35q-170 -53 -342 -53q-236 0 -372 126.5t-136 368.5z M375 1571h323l62 -119l92 119h332l-256 -262q-68 -72 -193 -72q-116 0 -172 72z" />
<glyph horiz-adv-x="1253" d="M51 168l113 833q11 79 63.5 124.5t139.5 45.5h286q244 0 382.5 -131t138.5 -366q0 -155 -48.5 -282t-135 -213t-206.5 -132.5t-262 -46.5h-315q-82 0 -124 45t-32 123zM315 1571h324l61 -119l93 119h331l-256 -262q-68 -72 -192 -72q-116 0 -172 72zM442 287h97 q67 0 119 34.5t82 91t45.5 120.5t15.5 131q0 107 -48 165t-137 58h-90z" />
<glyph horiz-adv-x="1249" d="M37 494l24 196h86l43 309q9 79 62 125.5t139 46.5h287q245 0 383.5 -131t138.5 -366q0 -155 -48.5 -282t-135 -213t-206 -132.5t-261.5 -46.5h-318q-90 0 -127.5 49t-27.5 123l45 322h-84zM469 287h96q67 0 119 34.5t82 91t45.5 120.5t15.5 131q0 223 -196 223h-80 l-27 -197h183l-25 -196h-186z" />
<glyph horiz-adv-x="1087" d="M49 168l115 833q9 79 62.5 124.5t140.5 45.5h708l-37 -276h-512l-20 -164h446l-39 -268h-446l-25 -187h514l-36 -276h-715q-85 0 -126 44.5t-30 123.5zM244 1563h418l124 -129q48 -48 48 -113q0 -41 -31 -71.5t-80 -30.5q-74 0 -141 57z" />
<glyph horiz-adv-x="1087" d="M49 168l115 833q9 79 62.5 124.5t140.5 45.5h708l-37 -276h-512l-20 -164h446l-39 -268h-446l-25 -187h514l-36 -276h-715q-85 0 -126 44.5t-30 123.5zM436 1319q0 59 64 115l147 129h420l-373 -281q-82 -59 -157 -59q-49 0 -75 29t-26 67z" />
<glyph horiz-adv-x="1087" d="M49 168l115 833q9 79 62.5 124.5t140.5 45.5h708l-37 -276h-512l-20 -164h446l-39 -268h-446l-25 -187h514l-36 -276h-715q-85 0 -126 44.5t-30 123.5zM244 1249l256 260q74 74 194 74q118 0 172 -74l187 -260h-320l-63 117l-88 -117h-338z" />
<glyph horiz-adv-x="1087" d="M49 168l115 833q9 79 62.5 124.5t140.5 45.5h708l-37 -276h-512l-20 -164h446l-39 -268h-446l-25 -187h514l-36 -276h-715q-85 0 -126 44.5t-30 123.5zM285 1382q0 93 56 149t146 56q73 0 113.5 -36.5t40.5 -102.5q0 -90 -56.5 -147.5t-146.5 -57.5q-73 0 -113 36.5 t-40 102.5zM709 1382q0 93 56.5 149t147.5 56q73 0 112.5 -36.5t39.5 -102.5q0 -91 -54.5 -148t-144.5 -57q-75 0 -116 36.5t-41 102.5z" />
<glyph horiz-adv-x="1087" d="M49 168l115 833q9 79 62.5 124.5t140.5 45.5h708l-37 -276h-512l-20 -164h446l-39 -268h-446l-25 -187h514l-36 -276h-715q-85 0 -126 44.5t-30 123.5zM274 1264l33 256h744l-33 -256h-744z" />
<glyph horiz-adv-x="1087" d="M49 168l115 833q9 79 62.5 124.5t140.5 45.5h708l-37 -276h-512l-20 -164h446l-39 -268h-446l-25 -187h514l-36 -276h-715q-85 0 -126 44.5t-30 123.5zM301 1563h293q-9 -65 13 -102.5t67 -37.5t76.5 37.5t40.5 102.5h292q-21 -153 -142 -244.5t-288 -91.5 q-110 0 -194 40t-127.5 117.5t-30.5 178.5z" />
<glyph horiz-adv-x="1087" d="M49 168l115 833q9 79 62.5 124.5t140.5 45.5h708l-37 -276h-512l-20 -164h446l-39 -268h-446l-25 -187h514l-36 -276h-715q-85 0 -126 44.5t-30 123.5zM479 1382q0 94 59.5 149.5t157.5 55.5q85 0 127.5 -38t42.5 -107q0 -92 -61.5 -147.5t-157.5 -55.5q-82 0 -125 37.5 t-43 105.5z" />
<glyph horiz-adv-x="1087" d="M49 168l115 833q9 79 62.5 124.5t140.5 45.5h708l-37 -276h-512l-20 -164h446l-39 -268h-446l-25 -187h514l-36 -276h-97q-96 -58 -96 -119q0 -59 74 -59q93 0 205 45l28 -162q-141 -55 -274 -55q-108 0 -175 44t-67 124q0 116 129 182h-442q-85 0 -126 44.5t-30 123.5z " />
<glyph horiz-adv-x="1087" d="M49 168l115 833q9 79 62.5 124.5t140.5 45.5h708l-37 -276h-512l-20 -164h446l-39 -268h-446l-25 -187h514l-36 -276h-715q-85 0 -126 44.5t-30 123.5zM297 1571h324l61 -119l92 119h332l-256 -262q-68 -72 -193 -72q-116 0 -172 72z" />
<glyph horiz-adv-x="1251" d="M78 489q0 164 50.5 296t139.5 218.5t209.5 132.5t261.5 46q168 0 346 -56l109 -32l-72 -306l-116 37q-140 43 -254 43q-139 0 -220 -97t-81 -277q0 -228 219 -228q50 0 92 6l18 134h-198l34 262h369q86 0 127.5 -45t30.5 -125l-35 -267q-9 -71 -44 -114t-95 -68 q-77 -34 -161 -47.5t-202 -13.5q-247 0 -387.5 129.5t-140.5 371.5zM336 1249l256 260q74 74 194 74q118 0 172 -74l187 -260h-320l-63 117l-88 -117h-338z" />
<glyph horiz-adv-x="1251" d="M78 489q0 164 50.5 296t139.5 218.5t209.5 132.5t261.5 46q168 0 346 -56l109 -32l-72 -306l-116 37q-140 43 -254 43q-139 0 -220 -97t-81 -277q0 -228 219 -228q50 0 92 6l18 134h-198l34 262h369q86 0 127.5 -45t30.5 -125l-35 -267q-9 -71 -44 -114t-95 -68 q-77 -34 -161 -47.5t-202 -13.5q-247 0 -387.5 129.5t-140.5 371.5zM401 1563h293q-9 -65 13 -102.5t67 -37.5t76.5 37.5t40.5 102.5h293q-21 -153 -142 -244.5t-288 -91.5q-110 0 -194.5 40t-128 117.5t-30.5 178.5z" />
<glyph horiz-adv-x="1251" d="M78 489q0 164 50.5 296t139.5 218.5t209.5 132.5t261.5 46q168 0 346 -56l109 -32l-72 -306l-116 37q-140 43 -254 43q-139 0 -220 -97t-81 -277q0 -228 219 -228q50 0 92 6l18 134h-198l34 262h369q86 0 127.5 -45t30.5 -125l-35 -267q-9 -71 -44 -114t-95 -68 q-77 -34 -161 -47.5t-202 -13.5q-247 0 -387.5 129.5t-140.5 371.5zM571 1386q0 94 59.5 149.5t157.5 55.5q85 0 127.5 -38t42.5 -107q0 -92 -61.5 -147.5t-157.5 -55.5q-82 0 -125 37.5t-43 105.5z" />
<glyph horiz-adv-x="1251" d="M78 489q0 164 50.5 296t139.5 218.5t209.5 132.5t261.5 46q168 0 346 -56l109 -32l-72 -306l-116 37q-140 43 -254 43q-139 0 -220 -97t-81 -277q0 -228 219 -228q50 0 92 6l18 134h-198l34 262h369q86 0 127.5 -45t30.5 -125l-35 -267q-9 -71 -44 -114t-95 -68 q-77 -34 -161 -47.5t-202 -13.5q-247 0 -387.5 129.5t-140.5 371.5zM371 -262l73 180h349l-113 -246q-25 -57 -66.5 -86.5t-113.5 -29.5q-94 0 -127 52.5t-2 129.5z" />
<glyph horiz-adv-x="1230" d="M27 0l159 1171h379l-57 -438h258l59 438h381l-162 -1171h-378l61 457h-258l-61 -457h-381zM289 1249l256 260q74 74 194 74q118 0 172 -74l187 -260h-320l-63 117l-88 -117h-338z" />
<glyph horiz-adv-x="1230" d="M27 0l112 831h-78l27 203h80l18 137h379l-18 -137h260l18 137h381l-20 -137h80l-27 -203h-80l-115 -831h-378l61 457h-258l-61 -457h-381zM508 733h258l12 98h-258z" />
<glyph horiz-adv-x="598" d="M8 1563h418l125 -129q47 -47 47 -113q0 -41 -31 -71.5t-80 -30.5q-74 0 -141 57zM27 0l159 1171h383l-157 -1171h-385z" />
<glyph horiz-adv-x="598" d="M27 0l159 1171h383l-157 -1171h-385zM180 1319q0 59 64 115l147 129h420l-373 -281q-82 -59 -157 -59q-49 0 -75 29t-26 67z" />
<glyph horiz-adv-x="598" d="M-31 1249l256 260q74 74 195 74q118 0 172 -74l186 -260h-319l-64 117l-88 -117h-338zM27 0l159 1171h383l-157 -1171h-385z" />
<glyph horiz-adv-x="598" d="M16 1382q0 93 56.5 149t146.5 56q73 0 113.5 -36.5t40.5 -102.5q0 -90 -56.5 -147.5t-146.5 -57.5q-73 0 -113.5 36.5t-40.5 102.5zM27 0l159 1171h383l-157 -1171h-385zM440 1382q0 93 57 149t148 56q73 0 112.5 -36.5t39.5 -102.5q0 -91 -54.5 -148t-144.5 -57 q-75 0 -116.5 36.5t-41.5 102.5z" />
<glyph horiz-adv-x="598" d="M-41 1337q59 122 140.5 185t181.5 63q53 0 86.5 -12t72.5 -43l49 -37q33 -33 70 -33q64 0 131 125l144 -112q-61 -128 -145.5 -188t-178.5 -60q-87 0 -156 57l-47 37q-35 31 -71 31q-67 0 -132 -119zM27 0l159 1171h383l-157 -1171h-385z" />
<glyph horiz-adv-x="598" d="M20 1264l33 256h744l-33 -256h-744zM27 0l159 1171h383l-157 -1171h-385z" />
<glyph horiz-adv-x="598" d="M27 0l159 1171h383l-157 -1171h-385zM35 1563h293q-9 -65 13 -102.5t67 -37.5t76 37t40 103h293q-21 -153 -142 -244.5t-288 -91.5q-110 0 -194 40t-127.5 117.5t-30.5 178.5z" />
<glyph horiz-adv-x="598" d="M27 0l159 1171h383l-157 -1171q-97 -59 -97 -119q0 -59 74 -59q93 0 205 45l29 -162q-141 -55 -275 -55q-108 0 -175 44t-67 124q0 115 130 182h-209z" />
<glyph horiz-adv-x="598" d="M27 0l159 1171h383l-157 -1171h-385zM215 1382q0 94 59.5 149.5t157.5 55.5q85 0 127.5 -38t42.5 -107q0 -92 -61.5 -147.5t-157.5 -55.5q-82 0 -125 37.5t-43 105.5z" />
<glyph horiz-adv-x="1476" d="M27 0l159 1171h383l-157 -1171h-385zM602 51l72 285q129 -41 174 -41q56 0 85 25.5t36 82.5l106 768h377l-109 -796q-26 -183 -142 -279t-308 -96q-143 0 -291 51z" />
<glyph horiz-adv-x="878" d="M4 51l72 285q129 -41 174 -41q56 0 85 25.5t36 82.5l106 768h377l-109 -796q-26 -183 -142 -279t-308 -96q-143 0 -291 51zM256 1249l256 260q74 74 195 74q118 0 172 -74l186 -260h-320l-63 117l-88 -117h-338z" />
<glyph horiz-adv-x="1226" d="M27 0l159 1171h375l-55 -387l338 387h422l-381 -417l205 -754h-400l-117 453l-55 -58q-31 -35 -43.5 -51t-26.5 -47.5t-18 -69.5l-29 -227h-374zM287 -262l73 180h349l-113 -246q-25 -57 -66.5 -86.5t-113.5 -29.5q-94 0 -127 52.5t-2 129.5z" />
<glyph horiz-adv-x="1064" d="M25 412l32 254l86 28l66 477h385l-47 -340l248 84l-35 -253l-250 -84l-37 -275h473l-39 -303h-680q-88 0 -127 44t-28 124l37 272z" />
<glyph horiz-adv-x="1042" d="M49 168l137 1003h383l-118 -868h473l-39 -303h-680q-85 0 -126 44.5t-30 123.5zM373 1319q0 60 63 115l148 129h420l-373 -281q-82 -59 -158 -59q-49 0 -74.5 29t-25.5 67z" />
<glyph horiz-adv-x="1042" d="M49 168l137 1003h383l-118 -868h473l-39 -303h-680q-85 0 -126 44.5t-30 123.5zM225 -262l74 180h348l-112 -246q-25 -57 -67 -86.5t-114 -29.5q-94 0 -127 52.5t-2 129.5z" />
<glyph horiz-adv-x="1042" d="M49 168l137 1003h383l-118 -868h473l-39 -303h-680q-85 0 -126 44.5t-30 123.5zM608.5 813q0.5 40 16.5 90l123 346h309l-168 -409q-27 -58 -65 -87.5t-99 -29.5q-58 0 -87.5 25t-29 65z" />
<glyph horiz-adv-x="1042" d="M49 168l137 1003h383l-118 -868h473l-39 -303h-680q-85 0 -126 44.5t-30 123.5zM592 594q0 113 59 170t135 57q65 0 106.5 -37t41.5 -112q0 -115 -59.5 -171.5t-141.5 -56.5q-62 0 -101.5 37.5t-39.5 112.5z" />
<glyph horiz-adv-x="1284" d="M27 0l133 963q13 106 87 162.5t199 56.5q60 0 101.5 -13t68.5 -41.5t42 -60.5t30 -82l154 -432l86 618h329l-133 -960q-13 -107 -87.5 -164t-198.5 -57q-59 0 -100.5 13.5t-69 42t-43 60t-31.5 80.5l-154 432l-84 -618h-329zM315 1337q59 122 140.5 185t181.5 63 q53 0 87 -12t73 -43l49 -37q33 -33 69 -33q65 0 132 125l143 -112q-61 -128 -145.5 -188t-178.5 -60q-86 0 -155 57l-47 37q-35 31 -72 31q-66 0 -131 -119z" />
<glyph horiz-adv-x="1284" d="M27 0l133 963q13 106 87 162.5t199 56.5q60 0 101.5 -13t68.5 -41.5t42 -60.5t30 -82l154 -432l86 618h329l-133 -960q-13 -107 -87.5 -164t-198.5 -57q-59 0 -100.5 13.5t-69 42t-43 60t-31.5 80.5l-154 432l-84 -618h-329zM561 1319q0 59 64 115l147 129h420l-373 -281 q-82 -59 -157 -59q-49 0 -75 29t-26 67z" />
<glyph horiz-adv-x="1284" d="M27 0l133 963q13 106 87 162.5t199 56.5q60 0 101.5 -13t68.5 -41.5t42 -60.5t30 -82l154 -432l86 618h329l-133 -960q-13 -107 -87.5 -164t-198.5 -57q-59 0 -100.5 13.5t-69 42t-43 60t-31.5 80.5l-154 432l-84 -618h-329zM313 -262l74 180h348l-112 -246 q-25 -57 -67 -86.5t-114 -29.5q-94 0 -127 52.5t-2 129.5z" />
<glyph horiz-adv-x="1284" d="M27 0l133 963q13 106 87 162.5t199 56.5q60 0 101.5 -13t68.5 -41.5t42 -60.5t30 -82l154 -432l86 618h329l-133 -960q-13 -107 -87.5 -164t-198.5 -57q-59 0 -100.5 13.5t-69 42t-43 60t-31.5 80.5l-154 432l-84 -618h-329zM373 1571h323l62 -119l92 119h332l-256 -262 q-68 -72 -193 -72q-116 0 -172 72z" />
<glyph horiz-adv-x="1290" d="M31 0l131 963q14 106 87 162.5t197 56.5q59 0 101 -10.5t69 -34.5t42.5 -47.5t33.5 -63.5l168 -356l72 501h330l-170 -1222q-44 -320 -474 -320l31 230q102 0 115 96l8 55l-321 656l-91 -666h-329z" />
<glyph horiz-adv-x="1353" d="M76 487q0 161 50.5 292.5t140 219t212 134.5t266.5 47q247 0 388 -130.5t141 -367.5q0 -161 -51 -292.5t-140.5 -218.5t-212 -134t-266.5 -47q-247 0 -387.5 130t-140.5 367zM381 1563h418l125 -129q47 -47 47 -113q0 -41 -31 -71.5t-80 -30.5q-74 0 -141 57zM457 489 q0 -110 46 -168.5t132 -58.5q113 0 185.5 112t72.5 304q0 112 -45.5 170.5t-130.5 60.5q-115 0 -187.5 -113.5t-72.5 -306.5z" />
<glyph horiz-adv-x="1353" d="M76 487q0 161 50.5 292.5t140 219t212 134.5t266.5 47q247 0 388 -130.5t141 -367.5q0 -161 -51 -292.5t-140.5 -218.5t-212 -134t-266.5 -47q-247 0 -387.5 130t-140.5 367zM457 489q0 -110 46 -168.5t132 -58.5q113 0 185.5 112t72.5 304q0 112 -45.5 170.5 t-130.5 60.5q-115 0 -187.5 -113.5t-72.5 -306.5zM514 1319q0 59 64 115l147 129h420l-373 -281q-82 -59 -158 -59q-49 0 -74.5 29t-25.5 67z" />
<glyph horiz-adv-x="1353" d="M76 487q0 161 50.5 292.5t140 219t212 134.5t266.5 47q247 0 388 -130.5t141 -367.5q0 -161 -51 -292.5t-140.5 -218.5t-212 -134t-266.5 -47q-247 0 -387.5 130t-140.5 367zM350 1249l256 260q74 74 195 74q118 0 172 -74l186 -260h-319l-64 117l-88 -117h-338zM457 489 q0 -110 46 -168.5t132 -58.5q113 0 185.5 112t72.5 304q0 112 -45.5 170.5t-130.5 60.5q-115 0 -187.5 -113.5t-72.5 -306.5z" />
<glyph horiz-adv-x="1353" d="M76 487q0 161 50.5 292.5t140 219t212 134.5t266.5 47q247 0 388 -130.5t141 -367.5q0 -161 -51 -292.5t-140.5 -218.5t-212 -134t-266.5 -47q-247 0 -387.5 130t-140.5 367zM336 1337q119 248 321 248q53 0 87 -12t73 -43l49 -37q33 -33 70 -33q64 0 131 125l143 -112 q-61 -128 -145 -188t-178 -60q-87 0 -156 57l-47 37q-35 31 -72 31q-66 0 -131 -119zM457 489q0 -110 46 -168.5t132 -58.5q113 0 185.5 112t72.5 304q0 112 -45.5 170.5t-130.5 60.5q-115 0 -187.5 -113.5t-72.5 -306.5z" />
<glyph horiz-adv-x="1353" d="M76 487q0 161 50.5 292.5t140 219t212 134.5t266.5 47q247 0 388 -130.5t141 -367.5q0 -161 -51 -292.5t-140.5 -218.5t-212 -134t-266.5 -47q-247 0 -387.5 130t-140.5 367zM391 1382q0 93 56.5 149t146.5 56q73 0 113.5 -36.5t40.5 -102.5q0 -90 -56.5 -147.5 t-146.5 -57.5q-73 0 -113.5 36.5t-40.5 102.5zM457 489q0 -110 46 -168.5t132 -58.5q113 0 185.5 112t72.5 304q0 112 -45.5 170.5t-130.5 60.5q-115 0 -187.5 -113.5t-72.5 -306.5zM815 1382q0 93 57 149t148 56q73 0 112 -36.5t39 -102.5q0 -92 -54 -148.5t-144 -56.5 q-75 0 -116.5 36.5t-41.5 102.5z" />
<glyph horiz-adv-x="1353" d="M76 487q0 161 50.5 292.5t140 219t212 134.5t266.5 47q82 0 175 -21l55 86h242l-111 -174q168 -133 168 -389q0 -161 -51 -292.5t-140.5 -218.5t-212 -134t-266.5 -47q-92 0 -168 18l-55 -88h-240l109 172q-174 129 -174 395zM457 489q0 -43 4 -61l299 475q-18 6 -43 6 q-115 0 -187.5 -113.5t-72.5 -306.5zM598 264q10 -2 37 -2q113 0 185.5 112t72.5 304q0 21 -4 49z" />
<glyph horiz-adv-x="1742" d="M76 487q0 312 178.5 498t468.5 186h1008l-37 -276h-510l-23 -164h447l-39 -268h-447l-24 -187h514l-37 -276h-983q-240 0 -378 127.5t-138 359.5zM446 502q0 -105 46.5 -160t132.5 -55h98l84 600h-90q-121 0 -196 -106.5t-75 -278.5z" />
<glyph horiz-adv-x="1353" d="M76 487q0 161 50.5 292.5t140 219t212 134.5t266.5 47q247 0 388 -130.5t141 -367.5q0 -161 -51 -292.5t-140.5 -218.5t-212 -134t-266.5 -47q-247 0 -387.5 130t-140.5 367zM393 1264l33 256h743l-32 -256h-744zM457 489q0 -110 46 -168.5t132 -58.5q113 0 185.5 112 t72.5 304q0 112 -45.5 170.5t-130.5 60.5q-115 0 -187.5 -113.5t-72.5 -306.5z" />
<glyph horiz-adv-x="1353" d="M76 487q0 161 50.5 292.5t140 219t212 134.5t266.5 47q247 0 388 -130.5t141 -367.5q0 -161 -51 -292.5t-140.5 -218.5t-212 -134t-266.5 -47q-247 0 -387.5 130t-140.5 367zM410 1563h292q-9 -65 13 -102.5t67 -37.5t76.5 37.5t40.5 102.5h293q-21 -153 -142 -244.5 t-288 -91.5q-110 0 -194 40t-127.5 117.5t-30.5 178.5zM457 489q0 -110 46 -168.5t132 -58.5q113 0 185.5 112t72.5 304q0 112 -45.5 170.5t-130.5 60.5q-115 0 -187.5 -113.5t-72.5 -306.5z" />
<glyph horiz-adv-x="1353" d="M76 487q0 161 50.5 292.5t140 219t212 134.5t266.5 47q247 0 388 -130.5t141 -367.5q0 -161 -51 -292.5t-140.5 -218.5t-212 -134t-266.5 -47q-247 0 -387.5 130t-140.5 367zM420 1317q0 55 45 100l147 146h328l-270 -265q-68 -71 -154 -71q-47 0 -71.5 26t-24.5 64z M457 489q0 -110 46 -168.5t132 -58.5q113 0 185.5 112t72.5 304q0 112 -45.5 170.5t-130.5 60.5q-115 0 -187.5 -113.5t-72.5 -306.5zM854 1315q0 52 45 100l143 148h332l-270 -267q-71 -71 -152 -71q-48 0 -73 26t-25 64z" />
<glyph horiz-adv-x="1206" d="M27 0l137 1001q9 80 62.5 125t140.5 45h405q176 0 270.5 -82t94.5 -229q0 -91 -39.5 -171.5t-108.5 -141.5l-53 -51l149 -496h-395l-104 391h-129l-51 -391h-379zM494 655h182l43 45q55 59 55 125q0 36 -23 56t-67 20h-156zM518 1319q0 59 64 115l147 129h420l-373 -281 q-82 -59 -158 -59q-49 0 -74.5 29t-25.5 67z" />
<glyph horiz-adv-x="1206" d="M27 0l137 1001q9 80 62.5 125t140.5 45h405q176 0 270.5 -82t94.5 -229q0 -91 -39.5 -171.5t-108.5 -141.5l-53 -51l149 -496h-395l-104 391h-129l-51 -391h-379zM303 -262l74 180h348l-113 -246q-25 -57 -66.5 -86.5t-113.5 -29.5q-94 0 -127 52.5t-2 129.5zM494 655 h182l43 45q55 59 55 125q0 36 -23 56t-67 20h-156z" />
<glyph horiz-adv-x="1206" d="M27 0l137 1001q9 80 62.5 125t140.5 45h405q176 0 270.5 -82t94.5 -229q0 -91 -39.5 -171.5t-108.5 -141.5l-53 -51l149 -496h-395l-104 391h-129l-51 -391h-379zM307 1571h324l61 -119l92 119h332l-256 -262q-68 -72 -192 -72q-116 0 -172 72zM494 655h182l43 45 q55 59 55 125q0 36 -23 56t-67 20h-156z" />
<glyph horiz-adv-x="1124" d="M23 80l88 311l125 -45q180 -63 309 -63q49 0 77.5 19t28.5 56q0 52 -71 68l-185 43q-142 34 -209 107.5t-67 201.5q0 198 130.5 300t350.5 102q200 0 377 -56l123 -39l-86 -313l-123 47q-163 63 -307 66q-105 0 -105 -80q0 -51 72 -66l182 -43q143 -33 211 -102.5 t68 -192.5q0 -135 -66 -230.5t-174.5 -140t-247.5 -44.5q-198 0 -381 57zM455 1319q0 60 63 115l148 129h419l-372 -281q-82 -59 -158 -59q-49 0 -74.5 29t-25.5 67z" />
<glyph horiz-adv-x="1124" d="M23 80l88 311l125 -45q180 -63 309 -63q49 0 77.5 19t28.5 56q0 52 -71 68l-185 43q-142 34 -209 107.5t-67 201.5q0 198 130.5 300t350.5 102q200 0 377 -56l123 -39l-86 -313l-123 47q-163 63 -307 66q-105 0 -105 -80q0 -51 72 -66l182 -43q143 -33 211 -102.5 t68 -192.5q0 -135 -66 -230.5t-174.5 -140t-247.5 -44.5q-198 0 -381 57zM221 1249l256 260q74 74 195 74q118 0 172 -74l186 -260h-319l-64 117l-88 -117h-338z" />
<glyph horiz-adv-x="1124" d="M23 80l88 311l125 -45q180 -63 309 -63q49 0 77.5 19t28.5 56q0 52 -71 68l-185 43q-142 34 -209 107.5t-67 201.5q0 198 130.5 300t350.5 102q200 0 377 -56l123 -39l-86 -313l-123 47q-163 63 -307 66q-105 0 -105 -80q0 -51 72 -66l182 -43q143 -33 211 -102.5 t68 -192.5q0 -193 -128 -300t-331 -115l-43 -74q76 0 120 -34t44 -103q0 -89 -67.5 -137t-168.5 -48q-88 0 -194 50l45 124q81 -45 153 -45q60 0 60 50q0 55 -152 45l-12 28l88 148q-143 9 -283 53z" />
</font>
</defs>
</svg>
